<?xml version="1.0" encoding="UTF-8"?>
<svg width="99px" height="99px" viewBox="0 0 99 99" version="1.1" xmlns="http://www.w3.org/2000/svg" xmlns:xlink="http://www.w3.org/1999/xlink">
    <!-- Generator: Sketch 52.5 (67469) - http://www.bohemiancoding.com/sketch -->
    <title>Group 12</title>
    <desc>Created with Sketch.</desc>
    <g id="Page-1" stroke="none" stroke-width="1" fill="none" fill-rule="evenodd">
        <g id="Hakkımızda" transform="translate(-208.000000, -2642.000000)">
            <g id="Group-12" transform="translate(208.000000, 2642.000000)">
                <g id="Group">
                    <path d="M49.492,98.495 C22.557,98.495 0.644,76.583 0.644,49.648 C0.644,22.713 22.557,0.8 49.492,0.8 C76.427,0.8 98.339,22.713 98.339,49.648 C98.339,76.583 76.427,98.495 49.492,98.495 Z M49.492,6.801 C25.866,6.801 6.644,26.023 6.644,49.649 C6.644,73.275 25.866,92.496 49.492,92.496 C73.118,92.496 92.339,73.275 92.339,49.649 C92.339,26.023 73.118,6.801 49.492,6.801 Z" id="Shape" fill="#E6E7E8"></path>
                    <path d="M49.492,98.497 C22.557,98.497 0.644,76.584 0.644,49.648 C0.644,34.077 8.169,19.303 20.775,10.129 L24.306,14.981 C13.246,23.029 6.644,35.989 6.644,49.648 C6.644,73.275 25.866,92.497 49.492,92.497 C73.118,92.497 92.339,73.275 92.339,49.648 C92.339,26.022 73.118,6.801 49.492,6.801 L49.492,0.801 C76.427,0.801 98.339,22.713 98.339,49.648 C98.339,76.584 76.427,98.497 49.492,98.497 Z" id="Shape" fill="#ED8080"></path>
                </g>
                <g id="Group" transform="translate(34.000000, 42.000000)" fill="#414042">
                    <path d="M7.934,7.228 C7.815,10.008 8.174,15.73 4.013,15.73 C2.172,15.709 0.912,14.45 0.912,12.469 L2.112,12.469 C2.213,13.789 2.752,14.65 4.173,14.65 C5.373,14.65 6.053,13.37 6.293,12.349 C6.533,11.309 6.633,10.248 6.633,8.848 L6.594,8.848 C5.973,9.728 5.194,10.269 4.053,10.269 C1.373,10.269 0.633,7.568 0.633,5.587 C0.633,3.606 1.252,0.566 4.253,0.566 C7.693,0.566 7.934,4.667 7.934,7.228 Z M1.933,5.507 C1.933,7.108 2.273,9.188 4.274,9.188 C6.213,9.188 6.633,7.348 6.633,5.768 C6.633,4.207 6.254,1.647 4.253,1.647 C2.332,1.646 1.933,4.026 1.933,5.507 Z" id="Shape"></path>
                    <path d="M13.213,0.566 C17.154,0.566 16.854,6.247 16.854,8.387 C16.854,11.968 16.534,15.729 13.093,15.729 C9.832,15.729 9.452,12.168 9.452,8.047 C9.452,1.666 11.213,0.566 13.213,0.566 Z M13.072,14.649 C13.933,14.649 15.552,14.609 15.552,8.288 C15.552,4.447 15.413,1.646 13.032,1.646 C11.391,1.646 10.751,3.287 10.751,8.387 C10.752,13.009 11.393,14.649 13.072,14.649 Z" id="Shape"></path>
                    <path d="M24.353,4.507 C24.353,7.068 23.332,8.068 21.713,8.068 C19.412,8.068 19.052,6.308 19.052,4.507 C19.052,2.666 19.531,0.886 21.733,0.886 C23.853,0.886 24.353,2.746 24.353,4.507 Z M23.232,4.487 C23.232,3.386 23.152,1.786 21.732,1.766 C20.271,1.745 20.171,3.646 20.171,4.487 C20.171,6.507 20.732,7.187 21.771,7.187 C22.873,7.188 23.232,6.007 23.232,4.487 Z M27.974,0.626 L28.854,0.626 L22.773,15.749 L21.893,15.749 L27.974,0.626 Z M31.715,11.908 C31.715,14.469 30.694,15.489 29.074,15.489 C26.773,15.489 26.413,13.709 26.413,11.908 C26.413,10.068 26.892,8.288 29.094,8.288 C31.215,8.288 31.715,10.148 31.715,11.908 Z M30.594,11.908 C30.594,10.808 30.514,9.187 29.094,9.168 C27.633,9.147 27.533,11.068 27.533,11.908 C27.533,13.929 28.094,14.609 29.134,14.609 C30.234,14.609 30.594,13.429 30.594,11.908 Z" id="Shape"></path>
                </g>
            </g>
        </g>
    </g>
</svg>