<?xml version="1.0" encoding="UTF-8"?>
<svg width="99px" height="99px" viewBox="0 0 99 99" version="1.1" xmlns="http://www.w3.org/2000/svg" xmlns:xlink="http://www.w3.org/1999/xlink">
    <!-- Generator: Sketch 52.5 (67469) - http://www.bohemiancoding.com/sketch -->
    <title>Group 11</title>
    <desc>Created with Sketch.</desc>
    <g id="Page-1" stroke="none" stroke-width="1" fill="none" fill-rule="evenodd">
        <g id="Hakkımızda" transform="translate(-18.000000, -2547.000000)">
            <g id="Group-11" transform="translate(0.000000, 2529.000000)">
                <g id="Group">
                    <path d="M67.492,116.495 C40.557,116.495 18.644,94.583 18.644,67.648 C18.644,40.713 40.557,18.8 67.492,18.8 C94.427,18.8 116.339,40.713 116.339,67.648 C116.339,94.583 94.427,116.495 67.492,116.495 Z M67.492,24.801 C43.866,24.801 24.644,44.023 24.644,67.649 C24.644,91.275 43.866,110.496 67.492,110.496 C91.118,110.496 110.339,91.275 110.339,67.649 C110.339,44.023 91.118,24.801 67.492,24.801 Z" id="Shape" fill="#E6E7E8"></path>
                    <path d="M67.492,116.497 C40.557,116.497 18.644,94.584 18.644,67.648 C18.644,52.077 26.169,37.303 38.775,28.129 L42.306,32.981 C31.246,41.029 24.644,53.989 24.644,67.648 C24.644,91.275 43.866,110.497 67.492,110.497 C91.118,110.497 110.339,91.275 110.339,67.648 C110.339,44.022 91.118,24.801 67.492,24.801 L67.492,18.801 C94.427,18.801 116.339,40.713 116.339,67.648 C116.339,94.584 94.427,116.497 67.492,116.497 Z" id="Shape" fill="#ED8080"></path>
                    <path d="M67.3938555,116.429617 C40.4588555,116.429617 18.5458555,94.5166172 18.5458555,67.5806172 C18.5458555,52.0096172 26.0708555,37.2356172 38.6768555,28.0616172 L42.2078555,32.9136172 C31.1478555,40.9616172 24.5458555,53.9216172 24.5458555,67.5806172 C24.5458555,91.2076172 43.7678555,110.429617 67.3938555,110.429617 C91.0198555,110.429617 110.240855,91.2076172 110.240855,67.5806172 C110.240855,43.9546172 91.0198555,24.7336172 67.3938555,24.7336172 L67.3938555,18.7336172 C94.3288555,18.7336172 116.240855,40.6456172 116.240855,67.5806172 C116.240855,94.5166172 94.3288555,116.429617 67.3938555,116.429617 Z" id="Shape" fill="#ED8080" transform="translate(67.393355, 67.581617) rotate(-330.000000) translate(-67.393355, -67.581617) "></path>
                </g>
                <g id="Group" transform="translate(51.000000, 58.000000)" fill="#414042">
                    <path d="M7.934,7.228 C7.815,10.008 8.174,15.73 4.013,15.73 C2.172,15.709 0.912,14.45 0.912,12.469 L2.112,12.469 C2.213,13.789 2.752,14.65 4.173,14.65 C5.373,14.65 6.053,13.37 6.293,12.349 C6.533,11.309 6.633,10.248 6.633,8.848 L6.594,8.848 C5.973,9.728 5.194,10.269 4.053,10.269 C1.373,10.269 0.633,7.568 0.633,5.587 C0.633,3.606 1.252,0.566 4.253,0.566 C7.693,0.566 7.934,4.667 7.934,7.228 Z M1.933,5.507 C1.933,7.108 2.273,9.188 4.274,9.188 C6.213,9.188 6.633,7.348 6.633,5.768 C6.633,4.207 6.254,1.647 4.253,1.647 C2.332,1.646 1.933,4.026 1.933,5.507 Z" id="Shape"></path>
                    <path d="M17.934,7.228 C17.815,10.008 18.174,15.73 14.013,15.73 C12.172,15.709 10.912,14.45 10.912,12.469 L12.112,12.469 C12.213,13.789 12.752,14.65 14.173,14.65 C15.373,14.65 16.053,13.37 16.293,12.349 C16.533,11.309 16.633,10.248 16.633,8.848 L16.594,8.848 C15.973,9.728 15.194,10.269 14.053,10.269 C11.373,10.269 10.633,7.568 10.633,5.587 C10.633,3.606 11.252,0.566 14.253,0.566 C17.693,0.566 17.934,4.667 17.934,7.228 Z M11.933,5.507 C11.933,7.108 12.273,9.188 14.274,9.188 C16.213,9.188 16.633,7.348 16.633,5.768 C16.633,4.207 16.254,1.647 14.253,1.647 C12.332,1.646 11.933,4.026 11.933,5.507 Z" id="Shape"></path>
                    <path d="M24.353,4.507 C24.353,7.068 23.332,8.068 21.713,8.068 C19.412,8.068 19.052,6.308 19.052,4.507 C19.052,2.666 19.531,0.886 21.733,0.886 C23.853,0.886 24.353,2.746 24.353,4.507 Z M23.232,4.487 C23.232,3.386 23.152,1.786 21.732,1.766 C20.271,1.745 20.171,3.646 20.171,4.487 C20.171,6.507 20.732,7.187 21.771,7.187 C22.873,7.188 23.232,6.007 23.232,4.487 Z M27.974,0.626 L28.854,0.626 L22.773,15.749 L21.893,15.749 L27.974,0.626 Z M31.715,11.908 C31.715,14.469 30.694,15.489 29.074,15.489 C26.773,15.489 26.413,13.709 26.413,11.908 C26.413,10.068 26.892,8.288 29.094,8.288 C31.215,8.288 31.715,10.148 31.715,11.908 Z M30.594,11.908 C30.594,10.808 30.514,9.187 29.094,9.168 C27.633,9.147 27.533,11.068 27.533,11.908 C27.533,13.929 28.094,14.609 29.134,14.609 C30.234,14.609 30.594,13.429 30.594,11.908 Z" id="Shape"></path>
                </g>
            </g>
        </g>
    </g>
</svg>