<?xml version="1.0" encoding="UTF-8"?>
<svg width="320px" height="376px" viewBox="0 0 320 376" version="1.1" xmlns="http://www.w3.org/2000/svg" xmlns:xlink="http://www.w3.org/1999/xlink">
    <!-- Generator: Sketch 52.5 (67469) - http://www.bohemiancoding.com/sketch -->
    <title>Path</title>
    <desc>Created with Sketch.</desc>
    <g id="Page-1" stroke="none" stroke-width="1" fill="none" fill-rule="evenodd" fill-opacity="0.2">
        <g id="Hakkımızda" transform="translate(0.000000, -536.000000)" fill="#F5A623">
            <g id="Group" transform="translate(-87.000000, 460.000000)">
                <path d="M487.73664,155.587195 C472.489516,155.587195 460.12928,167.921146 460.12928,183.135847 C460.12928,184.066344 460.17888,184.977043 460.26816,185.887742 C451.27585,182.121659 441.124779,182.224777 432.211166,186.172754 C423.297552,190.120731 416.411289,197.56371 413.17792,206.744735 C411.606693,206.382326 409.999214,206.199669 408.38656,206.200295 C400.639362,206.209559 393.492986,210.366579 389.66752,217.08909 C379.823107,204.110984 361.735275,200.668733 347.7952,209.120472 C342.549536,202.121627 334.303054,198.001651 325.54464,198.004002 C324.87008,198.004002 324.20544,198.004002 323.56064,198.083193 C323.56064,197.677338 323.56064,197.271483 323.56064,196.865628 C323.580967,187.36849 317.390421,178.969146 308.299229,176.158916 C299.208036,173.348686 289.343268,176.78508 283.97984,184.630581 C281.718913,179.321942 276.695926,175.700885 270.93504,175.226622 C273.700302,169.975445 272.848087,163.555156 268.808158,159.203447 C264.76823,154.851739 258.418068,153.513809 252.96,155.864364 L251.8688,76 L245.09344,76 L243.10944,155.923757 C241.349611,155.149436 239.447791,154.748308 237.52448,154.745788 C232.605577,154.737811 228.041383,157.29974 225.493928,161.498659 C222.946474,165.697577 222.787494,170.920764 225.07488,175.266217 C219.313994,175.74048 214.291007,179.361537 212.03008,184.670177 C206.679955,176.816799 196.822153,173.364255 187.726988,176.15839 C178.631823,178.952525 172.426843,187.339733 172.42944,196.835931 C172.42944,197.241786 172.42944,197.647641 172.42944,198.053496 C171.7648,198.053496 171.10016,197.974305 170.44544,197.974305 C161.687026,197.971954 153.440544,202.09193 148.19488,209.090775 C135.196128,201.209525 118.424683,203.61576 108.1776,214.83214 C102.379137,207.114548 92.1427549,204.18973 83.1296,207.675232 C80.0963661,198.248106 73.2380218,190.52372 64.2249715,186.38341 C55.2119213,182.243099 44.8713985,182.066869 35.72192,185.897641 C35.8112,184.986942 35.8608,184.076243 35.8608,183.145746 C35.8562452,174.379506 31.6739412,166.137956 24.5953432,160.946299 C17.5167452,155.754642 8.38571722,154.231794 0,156.844356 L0,452 L496,452 L496,156.844356 C493.326123,156.006338 490.539293,155.582358 487.73664,155.587195 Z" id="Path" style="mix-blend-mode: soft-light;"></path>
            </g>
        </g>
    </g>
</svg>