<?xml version="1.0" encoding="UTF-8"?>
<svg width="50px" height="50px" viewBox="0 0 50 50" version="1.1" xmlns="http://www.w3.org/2000/svg" xmlns:xlink="http://www.w3.org/1999/xlink">
    <!-- Generator: Sketch 52.5 (67469) - http://www.bohemiancoding.com/sketch -->
    <title>Rectangle 1 + google play</title>
    <desc>Created with Sketch.</desc>
    <g id="Designs" stroke="none" stroke-width="1" fill="none" fill-rule="evenodd">
        <g id="Kaynaklarımız" transform="translate(-276.000000, -1043.000000)">
            <g id="Rectangle-1-+-google-play" transform="translate(276.000000, 1043.000000)">
                <rect id="Rectangle-1" stroke="#9B9B9B" stroke-width="2" x="1" y="1" width="48" height="48" rx="10"></rect>
                <path d="M15.644745,35.9650748 C15.2542029,35.8598787 15,35.4721398 15,34.8721315 L15,15.0667399 C15,14.5110408 15.2152373,14.1362622 15.5564301,14 L15.5564301,14 L25.2892072,25.0372633 L15.644745,35.9650748 L15.644745,35.9650748 Z M16.9845317,35.5446698 L28.6997237,28.9048922 L25.8463222,25.6690486 L16.9845317,35.5446698 L16.9845317,35.5446698 Z M28.7803956,21.0815167 L17.2284674,14.5327498 L25.8632139,24.3868759 L28.7803956,21.0815167 L28.7803956,21.0815167 Z M29.5641845,21.5258452 L34.0895939,24.0912915 C34.946426,24.577028 34.9542618,25.36003 34.0895939,25.8500947 L29.4496961,28.479833 L26.4233025,25.026059 L29.5641845,21.5258452 L29.5641845,21.5258452 Z" id="google-play" fill="#9B9B9B"></path>
            </g>
        </g>
    </g>
</svg>