<?xml version="1.0" encoding="UTF-8"?>
<svg width="565px" height="441px" viewBox="0 0 565 441" version="1.1" xmlns="http://www.w3.org/2000/svg" xmlns:xlink="http://www.w3.org/1999/xlink">
    <!-- Generator: Sketch 52.5 (67469) - http://www.bohemiancoding.com/sketch -->
    <title>iletisim</title>
    <desc>Created with Sketch.</desc>
    <defs>
        <linearGradient x1="50%" y1="0%" x2="50%" y2="100%" id="linearGradient-1">
            <stop stop-color="#81CFE6" offset="0%"></stop>
            <stop stop-color="#F9CA2A" offset="100%"></stop>
        </linearGradient>
        <path d="M335.369133,459.475734 C547.553129,492.538393 583.159892,284.544993 633.589061,187.877454 C684.018231,91.209914 498.121612,0 331.014044,0 C163.906477,0 105.926626,86.8542935 28.4390272,187.877454 C-18.7332584,249.377532 -7.89911143,342.537893 66.0141652,375.754907 C103.801157,392.73658 288.307745,452.142596 335.369133,459.475734 Z" id="path-2"></path>
        <linearGradient x1="50%" y1="0%" x2="50%" y2="100%" id="linearGradient-4">
            <stop stop-color="#D85354" offset="0%"></stop>
            <stop stop-color="#EBF6F9" offset="100%"></stop>
        </linearGradient>
        <path d="M295.145732,449.901995 C481.880869,478.965715 513.217039,296.129184 557.59785,211.153615 C601.978661,126.178045 438.378054,46 291.312983,46 C144.247912,46 93.2220307,122.349239 25.0281159,211.153615 C-16.4864346,265.215238 -6.95171021,347.107824 58.0965784,376.307229 C91.3514854,391.234963 253.728779,443.455802 295.145732,449.901995 Z" id="path-5"></path>
    </defs>
    <g id="Designs" stroke="none" stroke-width="1" fill="none" fill-rule="evenodd">
        <g id="İletişim" transform="translate(-414.000000, -309.000000)">
            <g id="iletisim" transform="translate(414.000000, 297.000000)">
                <path d="M290.381509,400.00358 C476.649342,428.998943 556,326.235696 556,235.2384 C556,144.241104 446.885409,12 300.188367,12 C153.491326,12 -32.9721122,144.241104 24.7630181,235.2384 C62.9669788,295.452296 96.1017796,331.523006 160.987285,360.653736 C194.158972,375.54636 249.068201,393.572548 290.381509,400.00358 Z" id="Oval" fill="url(#linearGradient-1)"></path>
                <mask id="mask-3" fill="white">
                    <use xlink:href="#path-2"></use>
                </mask>
                <g id="Oval"></g>
                <mask id="mask-6" fill="white">
                    <use xlink:href="#path-5"></use>
                </mask>
                <use id="Oval" fill="url(#linearGradient-4)" xlink:href="#path-5"></use>
                <g id="Varlık-2" mask="url(#mask-6)">
                    <g transform="translate(49.000000, 108.000000)">
                        <path d="M315.426794,121.274507 C312.107929,114.486331 297.486983,125.204504 300.177954,109.573836 C292.284437,106.983611 300.895547,119.934736 293.091729,119.845418 C292.047927,111.09355 286.748815,103.412414 278.919278,99.3022536 C278.919278,108.234064 289.593466,105.822475 286.005504,115.468831 C285.025146,110.96283 281.896108,107.217807 277.62473,105.438209 C273.353352,103.658612 268.47829,104.068863 264.567429,106.53702 C263.221943,107.340883 251.919862,122.524961 251.919862,121.63178 C245.46153,118.862919 239.631092,103.23225 250.753775,103.768159 C259.72368,104.482704 258.557593,97.5158915 253.08595,93.4965768 C255.94363,91.478828 259.129974,89.9679651 262.504351,89.0306716 C260.979467,84.7434025 253.534445,90.1918069 251.919862,86.0831741 C250.305279,81.9745413 252.637455,81.706587 255.418126,81.706587 C253.410556,78.9481662 251.025373,76.4829207 248.3319,74.3825024 C254.07264,64.5575108 258.378194,78.2231809 260.71037,82.3318137 C265.912915,91.2636242 266.271711,79.4736344 273.08884,81.706587 C271.657117,79.3038599 272.147078,76.2264611 274.254927,74.3825024 C272.99914,74.918411 280.62356,80.0988611 286.274601,79.20568 C291.925641,78.312499 296.051798,70.0059152 305.021703,68.4875075 C302.420431,57.05479 290.759553,73.5786394 298.922168,55.7150185 C293.091729,50.3559322 291.835942,63.842966 286.005504,63.0391031 C287.350989,67.5943264 289.324369,78.2231809 277.75319,77.6872723 L277.75319,70.0059152 C276.594542,71.4074483 274.867052,72.2194436 273.04399,72.2194436 C271.220928,72.2194436 269.493438,71.4074483 268.33479,70.0059152 C268.33479,58.8411521 273.716733,61.0741048 280.354463,53.1247934 C292.553535,38.3873061 308.699365,44.1929829 325.203991,50.8918408 C323.969726,52.6418487 322.0587,53.8003037 319.930705,54.0884819 C317.80271,54.37666 315.650396,53.7684724 313.991609,52.4102486 C313.188439,54.2628463 313.188439,56.3633277 313.991609,58.2159254 C322.513019,61.0741048 327.087671,48.3016158 329.240448,48.0336615 C331.393226,47.7657071 332.290216,49.8200235 330.496235,52.4102486 C341.048735,47.2028904 353.047939,45.6621958 364.581876,48.0336615 C361.890905,43.6570743 367.272848,33.0282198 372.834189,39.101851 C371.488703,44.9968459 373.73118,49.8200235 369.246227,53.7500202 C372.834189,55.2684279 376.511851,46.6045718 381.086502,47.9443433 C381.086502,41.692076 377.677938,46.9618442 375.166365,46.4259356 C373.999127,44.1229083 373.999127,41.4048782 375.166365,39.101851 C376.60155,43.0318476 381.893794,39.101851 388.083029,44.9968459 C391.670991,42.7638933 387.275737,38.3873061 384.584766,39.101851 C400.371799,27.1332249 418.491009,32.0457207 435.175033,30.1700405 C442.620055,41.2454855 453.742737,31.5991302 461.09806,43.38912 C459.752574,44.9075278 488.007777,30.8845853 471.682548,33.1175379 C473.655928,29.8127681 480.652454,32.5816293 484.599212,31.6884483 C485.227106,36.3329897 478.768774,32.2243569 479.845163,37.4941251 C493.26088,43.4196278 507.626116,46.9276414 522.272816,47.8550252 C527.923856,47.8550252 542.8139,39.3698053 536.445267,56.7868357 C534.740985,61.4313772 530.614828,64.2895565 523.349204,66.3438729 C510.073744,69.9165971 510.43254,76.8834093 502.269926,88.9413535 C500.864137,83.673945 500.438528,78.1947916 501.01414,72.7747765 C504.960898,69.0234161 511.060434,69.3806885 511.688327,62.5925125 C509.804647,62.5925125 508.997356,63.5750117 509.266453,65.4506919 C503.166917,63.7536479 504.691801,65.4506919 497.515876,69.9165971 C487.554882,66.1122065 476.282586,69.8536807 470.60616,78.8484076 C479.576065,88.7627173 483.253727,78.8484076 482.446435,97.9624821 C477.782084,98.8556631 481.01125,89.9238526 480.024561,86.1724922 C475.255155,96.5529108 467.395024,105.221581 457.510098,111.002925 C458.945283,114.307695 463.161138,125.561776 455.177922,124.222005 C457.868894,117.344511 452.217853,117.791101 452.845747,111.002925 C449.437183,110.377699 448.540192,118.237692 448.540192,109.305881 L442.709754,113.682469 C443.786142,117.731556 446.118318,118.714055 449.70628,116.629966 C442.889152,125.561776 451.141465,134.493587 443.786142,145.122441 C441.552418,148.694626 437.50392,150.727506 433.291353,150.39221 C428.8064,152.26789 432.753158,157.44834 430.959177,160.663792 C426.653623,162.003563 429.254895,154.858115 428.537303,151.731981 C418.849805,150.928118 436.969014,173.972189 423.872952,179.59923 C419.387999,179.59923 420.464388,172.096509 416.786727,170.667419 C415.166248,172.150935 414.308579,174.286001 414.454551,176.473096 C411.135686,174.686734 412.212075,167.541286 412.122376,161.824927 C409.162307,161.824927 408.444714,164.05788 407.368326,166.201514 C406.333836,160.706139 404.771887,155.322354 402.703975,150.124255 C387.275737,151.464027 384.764164,169.059694 380.36891,183.797181 C378.076496,172.072777 373.832055,160.8124 367.811042,150.481528 C358.841137,139.584719 345.924473,148.069939 336.954567,133.064497 C333.007809,135.476086 340.901326,156.465841 345.924473,143.336079 C351.037319,152.26789 355.970767,152.26789 345.924473,162.003563 C340.613837,166.632726 334.129398,169.722152 327.17737,170.935374 C324.04088,159.318986 319.618522,148.085372 313.991609,137.441084 C313.789288,145.944955 315.996433,154.333632 320.360242,161.646291 C328.343458,177.991504 323.948204,173.079008 338.300053,174.061507 C337.316944,183.580642 333.183275,192.504125 326.549477,199.427849 C315.875289,212.825565 326.549477,224.615555 318.745659,238.906451 C310.941841,253.197348 311.210938,274.633693 288.965572,276.777328 C284.839416,262.665067 281.161755,248.374171 277.125297,234.26191 C286.095203,220.060331 271.384557,210.056704 273.98583,197.998759 C276.228306,187.280587 265.554119,186.119452 259.275185,187.548541 C246.179123,190.674675 241.783869,189.692176 234.966741,175.401279 C225.996835,157.537658 240.79718,126.365639 257.570903,120.827917 C276.318006,114.754286 273.537335,121.63178 286.543698,133.064497 C288.990272,132.725206 290.999961,130.969807 291.656544,128.598592 C294.078419,125.38314 299.280964,130.384954 303.048324,130.117 C298.114876,133.779042 318.207464,131.99268 314.7989,121.185189 C313.991609,118.237692 318.745659,131.724726 315.426794,121.274507 Z M308.340568,67.0584178 L310.762443,67.0584178 C312.556424,63.3963755 306.725985,62.7711488 307.174481,65.54001 C307.892073,65.54001 308.609666,65.54001 308.340568,67.0584178 C308.071471,68.5768256 308.609666,65.8079643 308.340568,67.0584178 Z M331.93142,97.873164 C331.034429,104.929294 335.967877,118.862919 342.515909,119.845418 C344.526267,113.114894 342.705417,105.828216 337.761859,100.820661 C340.183733,96.8906648 343.861394,104.036113 344.848084,97.873164 C342.067413,92.9606682 335.878178,95.8188475 331.93142,97.873164 C331.034429,105.286567 335.69878,95.8188475 331.93142,97.873164 Z M302.51013,109.305881 C312.377026,105.822475 315.964988,110.288381 324.845195,107.876792 C322.742208,103.53445 319.956365,99.5543462 316.592881,96.0868019 C313.991609,103.053614 310.941841,98.4090726 307.622976,96.0868019 C304.861645,100.012079 303.106366,104.550291 302.51013,109.305881 C312.377026,106.09043 302.151334,104.66134 302.51013,109.305881 Z" id="Shape" fill="#81CFE6"></path>
                        <path d="M440.745227,183.643725 C445.781876,191.30859 442.829357,196.203022 440.745227,207.931189 C417.819789,212.825621 440.050516,187.98407 440.745227,183.643725 C445.781876,191.30859 439.529484,191.031546 440.745227,183.643725 Z" id="Path" fill="#81CFE6"></path>
                        <path d="M492.073171,224.307692 C489.048563,222.664762 486.629206,219.984025 485.203908,216.696293 C482.848408,217.799539 481.133564,220.044609 480.595416,222.729719 C475.030444,222.729719 468.422039,201.566315 463.204878,202.958644 C471.900147,189.592284 490.508022,217.53169 491.72536,224.307692 C488.682016,223.193829 490.334117,215.025498 492.073171,224.307692 Z" id="Path" fill="#81CFE6"></path>
                        <path d="M465.745605,225.619433 C467.73472,227.172851 470.321277,227.73133 472.771149,227.13636 C471.473508,229.409616 471.391192,232.182463 472.551681,234.529186 C473.712171,236.875909 475.962598,238.487383 478.551659,238.825617 C481.931034,235.077916 479.707761,231.865601 479.707761,225.619433 C493.492055,226.511743 512.345411,297.807288 477.395557,284.24418 C480.419208,272.28723 470.458944,277.551858 469.213911,276.927241 C463.789125,258.010275 449.382315,282.727254 440.044567,278.354936 C440.241369,271.402633 439.279541,264.466169 437.198777,257.831813 C434.797642,243.465627 451.249864,243.465627 456.407858,229.991751 C457.480971,231.067667 458.641037,232.052573 459.876164,232.936373 L465.745605,225.619433 C467.346362,227.314822 465.21202,229.367134 465.745605,225.619433 Z" id="Path" fill="#81CFE6"></path>
                        <path d="M214.122619,40.4517528 C210.262003,42.5238378 216.636508,43.244563 215.289782,46.3977358 C204.156842,49.3707273 190.240668,51.0824496 189.432632,65.5870445 C177.491656,63.8753222 174.977766,52.6139907 172.733222,42.7941097 C168.423697,24.0552542 157.021412,36.9382174 146.965854,27.1183363 C158.182094,18.7181931 170.213852,11.4743021 182.878562,5.49657999 C201.463389,-3.51248516 214.212401,-2.25121604 221.664288,15.316461 C226.692067,14.7759171 226.063594,8.82993409 232.258537,10.8119284 C231.270937,18.8299964 221.394942,18.9200871 224.088395,27.3886083 C223.103092,33.0651853 221.062488,38.5051404 218.073017,43.4247443 C215.469345,44.2355601 216.456945,40.5418434 214.571528,40.4517528 C209.813094,42.7040191 216.008036,40.5418434 214.122619,40.4517528 Z M176.414275,43.4247443 C176.414275,44.5058321 176.414275,46.3076451 177.581438,46.3977358 C177.581438,41.9832938 177.581438,38.0193052 172.912786,38.9202117 C171.11715,44.2355601 176.863184,39.8211182 176.414275,43.4247443 C176.68362,44.5058321 176.863184,39.8211182 176.414275,43.4247443 Z M206.221823,3.424495 C204.515969,4.23531087 200.116662,1.71277262 200.386008,4.95603608 C201.732734,4.14522021 206.221823,6.66775846 206.221823,3.424495 Z" id="Shape" fill="#81CFE6"></path>
                        <path d="M164.626151,176.939033 C164.626151,189.334184 187.928193,187.358145 178.786623,200.561676 C179.593232,204.423933 182.281929,199.034737 184.612133,200.561676 C183.257053,202.257222 182.444822,204.323565 182.281929,206.489791 C188.914048,195.711399 216.786875,214.932865 198.682981,230.022614 C201.521392,241.284812 195.463241,252.886302 184.612133,256.968595 C184.612133,266.758967 178.15926,270.800865 175.201693,279.064299 C173.678098,278.076279 172.06488,277.17808 170.541285,276.100241 C171.079024,276.100241 165.70163,294.962427 158.711018,290.92053 C163.102556,296.219906 145.446779,320.830568 158.711018,321.818587 C155.574204,325.052105 153.423247,323.884446 149.748694,323.345526 C149.748694,321.369488 151.810028,321.010208 152.078898,318.944349 C148.225099,317.147951 151.182666,323.704806 147.328867,321.818587 C134.243874,298.106125 163.550672,263.52545 150.913796,242.238125 C145.446779,233.256132 136.036339,224.274138 134.423121,212.687367 C132.809902,201.100595 143.385444,193.645541 137.918427,181.789309 C136.036339,181.789309 135.319353,182.777329 135.588223,184.663547 C129.945576,182.49514 125.904751,177.450182 125.012681,171.460017 C119.310159,170.032336 113.78043,167.984256 108.522005,165.352261 C96.5124916,159.963065 88.7152701,141.639799 82.7105132,130.142847 C83.6067456,139.12484 89.2530095,141.639799 90.955851,149.274493 C82.8897597,149.723593 79.9321929,130.412307 76.3472635,125.56203 C64.9651125,109.933362 67.3849398,94.3945129 56.809398,78.4963845 C53.7622079,78.4963845 58.4226162,81.1011626 56.809398,84.4245002 C53.6264767,76.9135978 48.1309515,70.6192134 41.1253316,66.4605133 C28.4884553,59.8138381 34.6724586,69.0652914 25.0827723,68.167092 L25.0827723,64.8437544 C20.2431175,75.3526868 20.1534943,74.6341273 4.73829766,79.6640437 C7.92158511,76.2877185 11.4684124,73.2753358 15.3138395,70.6820502 C5.45528355,61.7000567 -1.62495211,67.1790727 10.6534313,57.3886999 C9.39870595,52.9875231 -0.997589458,62.7778959 0.0778893773,52.9875231 C4.64867443,51.8198639 6.17226945,51.4605842 9.48832919,54.514462 C9.49622351,52.7329327 8.7042399,51.0423036 7.33152022,49.9103719 C5.95880053,48.7784401 4.15091058,48.3252379 2.40809352,48.6761662 C8.95058977,37.4486744 21.1393499,42.6582306 30.8186594,43.1971502 C40.4979689,43.7360698 43.545159,46.9695875 53.045222,44.9935489 C61.2552859,43.0264682 69.8827053,43.8153692 77.6019888,47.2390473 C81.097295,45.2630087 75.5406543,42.6582306 76.4368867,39.7839927 C73.4881664,42.2668365 69.3894639,42.8586235 65.8613448,41.3109316 C65.1443589,28.0175813 91.6728369,36.9995747 91.7624601,41.3109316 C98.0360866,40.2330924 75.7199008,31.2510989 70.6113763,32.3289381 C75.4510311,20.2032469 87.9086609,35.7420956 95.2577663,29.3648803 C96.2436219,29.3648803 93.9134178,45.7121084 103.503104,42.6582306 C104.399336,48.945626 97.8568402,44.5444492 96.4228684,48.5863463 C98.0360866,54.6042819 107.26728,49.8438254 106.99841,44.1851695 C112.106935,42.2091309 108.522005,51.1911244 112.913544,50.0234652 C117.305082,48.8558061 112.913544,42.3887708 112.913544,39.6941728 C117.358057,42.044278 121.030472,45.6311823 123.489086,50.0234652 C133.885381,44.9935489 108.880498,39.6941728 125.81929,35.292996 L125.81929,41.2211116 C132.496861,36.8773362 141.099412,36.8773362 147.776983,41.2211116 C151.810028,42.8378705 163.012933,50.2031051 164.626151,54.7839218 C161.041222,56.8497803 159.33838,55.4126613 156.380813,53.2569829 C153.423247,55.6821211 160.951599,57.20906 159.965743,62.2389763 C153.333623,63.0473558 148.404345,57.1192401 138.725036,57.7479796 C139.800515,52.7180633 146.611881,54.8737417 146.970374,48.7659861 C144.449072,49.2201986 142.060769,50.2328518 139.979761,51.730044 C143.026951,45.0833688 137.649557,44.3648094 132.899526,45.8019283 C133.347642,47.7779669 133.706135,49.7540054 134.064628,51.730044 C131.375452,52.5390339 128.508466,52.5390339 125.81929,51.730044 C126.715522,56.6701404 138.00805,54.1551822 134.064628,60.7120375 C128.239117,54.3348221 117.663575,57.2988799 112.913544,66.6401531 C114.915281,71.2861722 119.072132,74.6458295 124.026825,75.6221466 C134.602367,78.7658443 128.956103,83.1670211 136.394832,86.1310789 C142.041096,77.1490855 135.050483,71.0413299 139.979761,62.5982561 C157.904408,61.8796966 158.352525,76.2508861 174.036591,81.7299022 C171.975257,87.7478378 165.074267,88.5562172 161.130845,92.0591946 C160.836233,90.3628485 159.984535,88.8137831 158.711018,87.6580178 L152.885507,92.0591946 C157.790239,93.4790426 162.512563,95.4685803 166.956355,97.9873103 C166.418616,102.568127 147.956229,105.262725 144.64017,112.897419 C142.041096,118.735715 142.937328,114.514178 142.309965,121.879413 C130.569321,132.118885 137.201441,131.939246 135.22973,145.502056 C126.267406,136.520062 121.786244,128.615908 108.342759,139.66376 C107.943041,145.520498 108.642224,151.400433 110.404093,156.999007 C115.512618,165.981001 119.366417,152.508011 124.833434,152.86729 C124.833434,169.483978 129.13535,161.310364 130.569321,175.771374 C132.003293,190.232383 148.493969,173.256416 149.569448,173.525875 C148.351157,175.77474 147.909966,178.364532 148.314722,180.89111 C155.215711,176.759393 153.333623,176.220473 164.805398,177.927052 C164.626151,185.471927 160.055366,176.310293 164.626151,176.939033 Z M118.739054,94.3945129 C122.413607,90.4424358 127.701378,97.8076704 129.404219,91.4304551 C127.951391,89.4399079 125.420632,88.5587412 123.049299,89.2177811 C120.677966,89.8768209 118.961471,91.9383824 118.739054,94.3945129 Z M125.460797,107.687863 C127.791001,105.711825 125.460797,97.3585708 129.045726,97.3585708 C132.630656,97.3585708 129.045726,104.633985 133.706135,103.196867 C132.809902,99.3346093 133.706135,98.3465901 136.036339,100.322629 C136.753325,93.0472139 127.880624,96.5501914 124.295695,95.8316319 C125.012681,99.4244293 122.861723,106.520204 125.460797,107.687863 C128.149494,105.711825 123.220216,106.520204 125.460797,107.687863 Z M132.541033,107.687863 C136.318544,106.18948 139.585551,103.632503 141.951472,100.322629 C136.394832,99.2447894 135.22973,104.184886 132.899526,107.687863 L132.541033,107.687863 Z" id="Shape" fill="#81CFE6"></path>
                        <path d="M170.585366,42.1580092 C169.719131,26.6022597 156.75983,14.4291498 141.06566,14.4291498 C125.371489,14.4291498 112.412189,26.6022597 111.545953,42.1580092 C111.392578,48.1410758 113.125801,54.0222583 116.503461,58.979857 L140.569909,99.6923077 L164.636356,59.2482907 C168.376336,54.3121246 170.457546,48.3332361 170.585366,42.1580092 Z" id="Path" fill="#D85354"></path>
                        <path d="M140.404878,22.2995951 C129.534298,22.2995951 120.721951,31.1088912 120.721951,41.9757085 C120.721951,52.8425258 129.534298,61.6518219 140.404878,61.6518219 C145.625115,61.6518219 150.631544,59.5788087 154.322809,55.8888217 C158.014074,52.1988346 160.087805,47.1941382 160.087805,41.9757085 C160.087805,31.1088912 151.275458,22.2995951 140.404878,22.2995951 Z" id="Path" fill="#FFFFFF"></path>
                        <path d="M111.536585,84.1776829 C111.354044,71.5754836 103.183723,60.4801409 91.1990993,56.5592586 C79.2144757,52.6383764 66.0611934,56.7575022 58.4580711,66.8125483 C50.8549487,76.8675944 50.4804003,90.6388768 57.5257486,101.091897 L81.560571,141.668016 L105.595393,101.091897 C109.277435,96.2031229 111.353045,90.2939875 111.536585,84.1776829 Z" id="Path" fill="#D85354"></path>
                        <path d="M101.038811,85.1716421 C100.988306,74.3168817 92.1537211,65.5535215 81.2951362,65.5871409 C70.4365513,65.6207604 61.6564378,74.4386579 61.6731947,85.2935227 C61.6899515,96.1483876 70.4972478,104.939154 81.3558848,104.939271 C86.592022,104.939328 91.6123754,102.853757 95.306283,99.143953 C99.0001907,95.4341491 101.063165,90.40591 101.038811,85.1716421 Z" id="Path" fill="#FFFFFF"></path>
                        <path d="M206.014634,161.540202 C205.832092,148.951085 197.661772,137.867261 185.677148,133.950449 C173.692524,130.033637 160.539242,134.148487 152.93612,144.193095 C145.332998,154.237702 144.958449,167.994688 152.003797,178.436857 L176.03862,219.060729 L200.073442,178.436857 C203.755484,173.553158 205.831093,167.650157 206.014634,161.540202 Z" id="Path" fill="#D85354"></path>
                        <path d="M196.828411,160.215697 C196.90262,152.241327 192.154439,145.010821 184.805733,141.907622 C177.457027,138.804423 168.961324,140.442325 163.294105,146.054888 C157.626887,151.667451 155.909094,160.144545 158.94455,167.519396 C161.980007,174.894248 169.168318,179.708157 177.145785,179.708502 C187.945096,179.708969 196.727952,171.010816 196.828411,160.215697 Z" id="Path" fill="#FFFFFF"></path>
                        <path d="M326.736585,30.4571559 C326.593114,17.8563027 318.443033,6.74000788 306.455784,2.79517685 C294.468535,-1.14965419 281.295411,2.94948107 273.675557,12.9955355 C266.055702,23.0415899 265.674447,36.8126159 272.726834,47.2635933 L296.761174,87.8866397 L320.795513,47.2635933 C324.475813,42.413333 326.552268,36.5393427 326.736585,30.4571559 Z" id="Path" fill="#D85354"></path>
                        <path d="M317.55122,28.8582996 C317.55122,17.9914823 308.738873,9.18218623 297.868293,9.18218623 C286.997712,9.18218623 278.185366,17.9914823 278.185366,28.8582996 C278.185366,39.7251169 286.997712,48.534413 297.868293,48.534413 C308.718047,48.4843152 317.501104,39.704298 317.55122,28.8582996 Z" id="Path" fill="#FFFFFF"></path>
                        <path d="M465.784091,89.8748937 C466.387771,79.0619834 460.904822,68.8045729 451.535119,63.2181542 C442.165416,57.6317354 430.44434,57.6317354 421.074637,63.2181542 C411.704934,68.8045729 406.221985,79.0619834 406.825665,89.8748937 C406.822479,95.8802429 408.71033,101.737172 412.226437,106.630419 L436.349884,146.91498 L460.383319,106.630419 C463.899426,101.737172 465.787278,95.8802429 465.784091,89.8748937 Z" id="Path" fill="#D85354"></path>
                        <path d="M456.643691,90.6012902 C456.680538,82.6267032 451.898576,75.4185366 444.535459,72.3497543 C437.172341,69.2809721 428.684433,70.9585543 423.043536,76.597499 C417.402638,82.2364438 415.724475,90.7214139 418.79432,98.0819826 C421.864165,105.442551 429.074827,110.222858 437.052176,110.186023 C447.851541,110.136158 456.593809,101.396917 456.643691,90.6012902 Z" id="Path" fill="#FFFFFF"></path>
                    </g>
                </g>
            </g>
        </g>
    </g>
</svg>