<?xml version="1.0" encoding="UTF-8"?>
<svg width="52px" height="52px" viewBox="0 0 52 52" version="1.1" xmlns="http://www.w3.org/2000/svg" xmlns:xlink="http://www.w3.org/1999/xlink">
    <!-- Generator: Sketch 52.5 (67469) - http://www.bohemiancoding.com/sketch -->
    <title>Stroke 82</title>
    <desc>Created with Sketch.</desc>
    <g id="Designs" stroke="none" stroke-width="1" fill="none" fill-rule="evenodd" stroke-linecap="round" stroke-linejoin="round">
        <g id="İletişim" transform="translate(-135.000000, -680.000000)" stroke="#303C42">
            <g id="Group-3" transform="translate(44.000000, 681.000000)">
                <path d="M138.428571,0 L95.5714286,0 C93.597619,0 92,1.59761905 92,3.57142857 L92,46.4285714 C92,48.402381 93.597619,50 95.5714286,50 L115.809524,50 L115.809524,30.952381 L111.097619,30.952381 L111.097619,23.8095238 L115.809524,23.8095238 L115.809524,19.047619 C115.809524,13.7880952 120.07381,9.52380952 125.333333,9.52380952 L132.47619,9.52380952 L132.47619,16.6666667 L125.333333,16.6666667 C124.019048,16.6666667 122.952381,17.7333333 122.952381,19.047619 L122.952381,23.8095238 L132.47619,23.8095238 L131.285714,30.952381 L122.952381,30.952381 L122.952381,50 L138.428571,50 C140.402381,50 142,48.402381 142,46.4285714 L142,3.57142857 C142,1.59761905 140.402381,0 138.428571,0 Z" id="Stroke-82"></path>
            </g>
        </g>
    </g>
</svg>