<?xml version="1.0" encoding="UTF-8"?>
<svg width="52px" height="52px" viewBox="0 0 52 52" version="1.1" xmlns="http://www.w3.org/2000/svg" xmlns:xlink="http://www.w3.org/1999/xlink">
    <!-- Generator: Sketch 52.5 (67469) - http://www.bohemiancoding.com/sketch -->
    <title>Group 2</title>
    <desc>Created with Sketch.</desc>
    <g id="Designs" stroke="none" stroke-width="1" fill="none" fill-rule="evenodd" stroke-linecap="round" stroke-linejoin="round">
        <g id="İletişim" transform="translate(-234.000000, -680.000000)" stroke="#303C42">
            <g id="Group-3" transform="translate(44.000000, 681.000000)">
                <g id="Group-2" transform="translate(191.000000, 0.000000)">
                    <path d="M50,36.9571429 C50,44.1595238 44.1595238,50 36.9571429,50 L13.0428571,50 C5.84047619,50 0,44.1595238 0,36.9571429 L0,13.0428571 C0,5.84047619 5.84047619,0 13.0428571,0 L36.9571429,0 C44.1595238,0 50,5.84047619 50,13.0428571 L50,36.9571429 Z" id="Stroke-33"></path>
                    <path d="M38.0952381,25 C38.0952381,32.2333333 32.2333333,38.0952381 25,38.0952381 C17.7666667,38.0952381 11.9047619,32.2333333 11.9047619,25 C11.9047619,17.7666667 17.7666667,11.9047619 25,11.9047619 C32.2333333,11.9047619 38.0952381,17.7666667 38.0952381,25 Z" id="Stroke-35"></path>
                    <path d="M26.1904762,8.33333333 C26.1904762,8.99047619 25.6571429,9.52380952 25,9.52380952 C24.3428571,9.52380952 23.8095238,8.99047619 23.8095238,8.33333333 C23.8095238,7.67619048 24.3428571,7.14285714 25,7.14285714 C25.6571429,7.14285714 26.1904762,7.67619048 26.1904762,8.33333333 Z" id="Stroke-37"></path>
                </g>
            </g>
        </g>
    </g>
</svg>