<?xml version="1.0" encoding="UTF-8"?>
<svg width="515px" height="412px" viewBox="0 0 515 412" version="1.1" xmlns="http://www.w3.org/2000/svg" xmlns:xlink="http://www.w3.org/1999/xlink">
    <!-- Generator: Sketch 52.5 (67469) - http://www.bohemiancoding.com/sketch -->
    <title>giris</title>
    <desc>Created with Sketch.</desc>
    <defs>
        <linearGradient x1="50%" y1="0%" x2="50%" y2="79.3307442%" id="linearGradient-1">
            <stop stop-color="#B391FF" offset="0%"></stop>
            <stop stop-color="#F9CA2A" offset="100%"></stop>
        </linearGradient>
        <linearGradient x1="50%" y1="12.8657876%" x2="50%" y2="100%" id="linearGradient-2">
            <stop stop-color="#FFFFFF" offset="0%"></stop>
            <stop stop-color="#EBF6F9" offset="100%"></stop>
        </linearGradient>
        <path d="M273.137932,408.996197 C445.499501,435.959618 514.677859,274.77305 500.112637,190.501796 C494.194604,156.261324 459.45082,110.820389 430.927834,85.9809293 C384.414028,45.4740266 353.03537,31 268.889743,31 C133.144714,31 86.0464494,101.831836 23.1016262,184.218736 C-15.2174239,234.373579 -6.41661608,310.34817 53.6247092,337.437472 C84.3198856,351.286448 234.908967,403.01584 273.137932,408.996197 Z" id="path-3"></path>
        <linearGradient x1="64.5105328%" y1="241.293354%" x2="43.638166%" y2="-33.3598641%" id="linearGradient-5">
            <stop stop-color="#1AE5FF" offset="0%"></stop>
            <stop stop-color="#64E8F9" offset="26%"></stop>
            <stop stop-color="#EAEEEE" offset="70%"></stop>
        </linearGradient>
        <linearGradient x1="100.032136%" y1="49.9466248%" x2="-1.11866427%" y2="49.9466248%" id="linearGradient-6">
            <stop stop-color="#5155D4" offset="0%"></stop>
            <stop stop-color="#45F7FF" offset="100%"></stop>
        </linearGradient>
        <linearGradient x1="3.04154937e-05%" y1="50.007843%" x2="99.9999696%" y2="50.007843%" id="linearGradient-7">
            <stop stop-color="#7F5EFF" offset="0%"></stop>
            <stop stop-color="#8665FF" offset="24%"></stop>
            <stop stop-color="#9978FF" offset="60%"></stop>
            <stop stop-color="#B391FF" offset="94%"></stop>
        </linearGradient>
        <linearGradient x1="37.530389%" y1="-70.7052954%" x2="70.520639%" y2="258.044653%" id="linearGradient-8">
            <stop stop-color="#5155D4" offset="0%"></stop>
            <stop stop-color="#45F7FF" offset="100%"></stop>
        </linearGradient>
        <linearGradient x1="49.92%" y1="-43.1493454%" x2="49.92%" y2="143.103821%" id="linearGradient-9">
            <stop stop-color="#7F5EFF" offset="0%"></stop>
            <stop stop-color="#8665FF" offset="24%"></stop>
            <stop stop-color="#9978FF" offset="60%"></stop>
            <stop stop-color="#B391FF" offset="94%"></stop>
        </linearGradient>
        <linearGradient x1="38.9666667%" y1="71.0333333%" x2="131.133333%" y2="-104.7%" id="linearGradient-10">
            <stop stop-color="#CC68FF" offset="0%"></stop>
            <stop stop-color="#FB8E31" offset="100%"></stop>
        </linearGradient>
    </defs>
    <g id="Designs" stroke="none" stroke-width="1" fill="none" fill-rule="evenodd">
        <g id="Giriş-yap" transform="translate(-471.000000, -236.000000)">
            <g id="giris" transform="translate(471.000000, 236.000000)">
                <path d="M268.98435,360.359559 C441.505479,387.289094 515,291.847402 515,207.333374 C515,122.819346 413.938147,0 278.067455,0 C142.196763,0 -30.5055357,122.819346 22.9686994,207.333374 C58.3531796,263.257221 89.0426077,296.758008 149.139515,323.813266 C179.863107,337.644838 230.719994,354.386718 268.98435,360.359559 Z" id="Oval" fill="url(#linearGradient-1)"></path>
                <mask id="mask-4" fill="white">
                    <use xlink:href="#path-3"></use>
                </mask>
                <use id="Oval" fill="url(#linearGradient-2)" xlink:href="#path-3"></use>
                <g id="Varlık-1" mask="url(#mask-4)">
                    <g transform="translate(0.000000, -34.000000)">
                        <path d="M352.731142,435.379421 C355.249293,437.046106 356.835483,439.838986 357,442.895806 C357,445.667575 355.065424,446.792587 352.715154,445.406703 L313.895727,422.58037 C311.383668,420.91005 309.803762,418.117774 309.642857,415.063985 C309.642857,412.292216 311.577433,411.183508 313.927703,412.569393 L352.731142,435.379421 Z" id="Path" fill="#1AE5FF" fill-rule="evenodd"></path>
                        <path d="M103.047867,2.21656528 L102.515567,1.92476833 L101.838095,1.53570573 L101.160623,1.2114869 L100.483151,0.952111833 L99.8218092,0.708947709 L99.6927669,0.708947709 L99.1927279,0.546838293 L98.4507346,0.287463227 L97.7732625,0.141564752 L97.0473995,0.0118772192 L96.5473606,0.0118772192 L96.3054063,0.0118772192 C96.0421805,-0.00395907307 95.7782479,-0.00395907307 95.5150221,0.0118772192 L94.6439865,0.0118772192 C94.3238771,0.0300910177 94.0056767,0.073452563 93.6922995,0.141564752 C93.3098227,0.206024325 92.9324703,0.298125284 92.5631793,0.41715076 C92.0886976,0.574458396 91.6340026,0.786622317 91.2082351,1.04937748 L80.1428571,7.53375413 C80.9045844,7.093577 81.7327654,6.78145627 82.594661,6.60973046 C83.521174,6.40727021 84.4713522,6.33633262 85.4174615,6.39898822 C86.4727067,6.50366115 87.5121244,6.73217065 88.5144769,7.07984777 C89.6852276,7.50308468 90.8095193,8.04631223 91.8695769,8.70094193 L394.506051,184.719346 L405.571429,178.234969 L103.047867,2.21656528 Z" id="Path" fill="url(#linearGradient-5)" fill-rule="evenodd"></path>
                        <path d="M428.635389,208.948288 C428.635389,208.673262 428.635389,208.414414 428.635389,208.139387 C428.635389,207.864361 428.635389,207.589335 428.635389,207.330487 L428.536728,206.505408 C428.536728,206.230382 428.536728,205.939177 428.421623,205.664151 C428.421623,205.405303 428.339405,205.130277 428.290075,204.871428 C428.240744,204.61258 428.17497,204.28902 428.109196,203.997816 C428.043422,203.706611 427.977648,203.399229 427.89543,203.108025 C427.813213,202.816821 427.747439,202.525616 427.665221,202.218234 C427.583003,201.910852 427.533673,201.76525 427.451455,201.538758 C427.451455,201.538758 427.451455,201.538758 427.451455,201.409333 C427.451455,201.279909 427.270576,200.826925 427.171915,200.535721 C427.073254,200.244516 426.974593,199.96949 426.859488,199.678286 C426.744384,199.387082 426.662166,199.144411 426.547061,198.869385 C426.431957,198.594359 426.333296,198.319333 426.218191,198.060484 L425.955094,197.429542 C425.948904,197.381199 425.948904,197.332283 425.955094,197.28394 L425.576893,196.475039 C425.445345,196.183835 425.297354,195.892631 425.149362,195.601426 C425.00137,195.310222 424.804048,194.92195 424.623169,194.598389 L424.014759,193.53064 L423.899654,193.352682 C423.899654,193.352682 423.899654,193.20708 423.784549,193.12619 C423.373461,192.462892 422.962373,191.799593 422.518398,191.152472 C422.074423,190.505352 421.811327,190.133257 421.449569,189.631739 L420.693167,188.661058 L420.035426,187.868335 L419.377685,187.107969 L418.719944,186.396136 L418.571952,186.250534 L418.062203,185.71666 L417.355132,185.021005 L416.59873,184.341528 L415.842327,183.694408 L415.464126,183.387026 L415.365465,183.387026 L415.085925,183.160533 L414.345967,182.594303 L413.606008,182.076606 L412.882493,181.607444 L412.158978,181.170638 L411.994543,181.073569 L400.714286,187.544775 C401.899952,188.232531 403.032175,189.005801 404.101652,189.858231 C405.200921,190.749743 406.239124,191.711733 407.209478,192.737918 C409.252996,194.893294 411.04041,197.270597 412.537179,199.823888 C412.58157,199.884957 412.620103,199.949948 412.652284,200.018024 C413.393693,201.272027 414.058105,202.568589 414.64195,203.900748 C415.233656,205.239603 415.744298,206.61174 416.171198,208.009963 C416.595632,209.360184 416.919874,210.738939 417.141366,212.135357 C417.355072,213.478803 417.46501,214.836249 417.470236,216.196038 L416.861826,428.014779 C416.863054,429.225388 416.74743,430.433376 416.516512,431.622477 L416.516512,431.735723 C416.317904,432.7508 415.997765,433.739154 415.562788,434.680121 C415.214835,435.374891 414.784292,436.02657 414.280193,436.621483 C414.115757,436.815619 413.967766,437.025933 413.803331,437.203892 C413.262315,437.792359 412.636238,438.299307 411.945212,438.708447 L423.22547,432.237241 C423.917606,431.823156 424.543742,431.310709 425.083588,430.716508 C425.248023,430.53855 425.396015,430.344413 425.56045,430.150277 C425.724885,429.956141 425.987982,429.681115 426.16886,429.406089 C426.40206,429.034026 426.616096,428.650663 426.810158,428.25745 C426.941706,427.982423 427.056811,427.707397 427.171915,427.416193 C427.28702,427.124989 427.385681,426.833784 427.467899,426.54258 C427.550116,426.251376 427.632334,425.97635 427.698108,425.685145 C427.704614,425.561197 427.704614,425.437 427.698108,425.313051 L427.698108,425.215983 C427.698108,425.086559 427.698108,424.973313 427.698108,424.860067 C427.698108,424.746821 427.780326,424.326192 427.813213,424.051166 L427.911874,423.258443 L427.911874,422.465721 C427.911874,422.190694 427.911874,421.931846 427.911874,421.65682 L428.520284,209.838079 C428.651832,209.449807 428.651832,209.207136 428.635389,208.948288 Z" id="Path" fill="url(#linearGradient-6)" fill-rule="evenodd"></path>
                        <path d="M401.056343,187.308952 C410.281974,192.648297 417.746495,205.592165 417.714181,216.206136 L417.116373,428.048712 C417.116373,438.678863 409.571067,442.966519 400.345436,437.627174 L90.7293717,258.694382 C81.5037404,253.338857 74.0392191,240.411169 74.0715331,229.781018 L74.6693411,17.9384422 C74.6693411,7.30829078 82.1984903,3.03681443 91.4402785,8.37615987 L401.056343,187.308952 Z" id="Path" fill="url(#linearGradient-7)" fill-rule="evenodd"></path>
                        <path d="M381.763985,187.195244 C390.241193,192.046087 397.087547,203.97916 397.0714,213.745523 L396.5224,408.377503 C396.5224,418.079188 389.59531,422.073049 381.101955,417.157528 L111.2361,261.235274 C102.742746,256.384431 95.8963911,244.451358 95.9286852,234.684994 L96.4776853,40.0530149 C96.4776853,30.3513295 103.404775,26.357469 111.881983,31.2729896 L381.763985,187.195244 Z" id="Path" fill="#F9FBFC" fill-rule="evenodd"></path>
                        <path d="M405.571429,356.070844 C404.230166,356.070844 403.142857,355.049764 403.142857,353.790198 L403.142857,285.43596 C403.142857,284.176394 404.230166,283.155313 405.571429,283.155313 C406.912692,283.155313 408,284.176394 408,285.43596 L408,353.855359 C407.962439,355.089407 406.886055,356.071348 405.571429,356.070844 Z" id="Path" fill="#F9FBFC" fill-rule="evenodd"></path>
                        <path d="M85.0809524,139.193035 C87.9011736,141.005233 89.6753995,144.034733 89.8571429,147.348405 C89.8571429,150.348816 87.687619,151.545788 85,150.045583 C82.1449808,148.254992 80.3376112,145.220334 80.1428571,141.890212 C80.272381,138.889802 82.4257143,137.67687 85.0809524,139.193035 Z" id="Path" fill="#FFFFFF" fill-rule="evenodd"></path>
                        <path d="M269.913961,167.919708 C270.74842,170.643537 271.343598,173.434691 271.692754,176.261548 C271.896905,177.867021 271.999524,179.483729 272,181.102074 C272,181.586126 272,182.054044 272,182.521962 L272,182.715583 L271.902975,184.03866 C271.902975,184.119335 271.902975,184.200011 271.902975,184.280686 C271.902975,184.721712 271.854462,185.141224 271.757437,185.539223 C271.757437,186.103951 271.595729,186.507328 271.531046,186.89457 C271.466362,187.281812 271.336995,187.798135 271.23997,188.169242 C271.23302,188.233596 271.23302,188.298509 271.23997,188.362863 C271.142945,188.750105 271.04592,189.105077 270.932724,189.460049 C270.925774,189.524403 270.925774,189.589316 270.932724,189.65367 C270.803358,190.008642 270.690162,190.363614 270.544624,190.702451 C270.399087,191.041288 270.237378,191.444665 270.09184,191.767367 C269.946303,192.090068 269.719911,192.509581 269.558203,192.816147 L269.461178,192.993633 C269.299469,193.284065 269.12159,193.574496 268.943711,193.848793 C268.940627,193.891765 268.940627,193.934902 268.943711,193.977874 C268.74966,194.268305 268.55561,194.542602 268.345389,194.816898 C268.135168,195.091195 267.924947,195.349356 267.698556,195.591382 L267.601531,195.688193 C267.39131,195.930219 267.181089,196.15611 266.954697,196.382002 L266.82533,196.494947 L266.129984,197.10808 L266.016788,197.204891 C265.774225,197.382377 265.531663,197.575998 265.272929,197.737349 C265.006765,197.936134 264.725638,198.114147 264.432045,198.269807 L264.286508,198.366617 L263.477966,198.769994 L263.316257,198.769994 C263.037722,198.904822 262.751552,199.023347 262.459202,199.124966 C262.279401,199.194332 262.095843,199.253587 261.909394,199.302452 C261.909394,189.008267 254.567831,176.551979 245.625354,171.404886 C236.682878,166.257794 228.953215,170.501322 228.953215,180.843912 C228.953215,180.843912 229.211948,181.27956 229.697074,182.021774 L228.953215,181.102074 L227.999135,179.698321 L227.853598,179.47243 C227.562522,179.036783 227.287618,178.585 227.012714,178.149353 C226.947588,178.056221 226.888186,177.959232 226.834834,177.858921 C226.543759,177.391004 226.268855,176.939221 226.010121,176.471304 C225.751388,176.003386 225.460313,175.503199 225.201579,175.035281 L225.056042,174.760985 C224.797308,174.293067 224.554746,173.841285 224.312183,173.357232 C224.312183,173.357232 224.312183,173.195881 224.182816,173.099071 L223.519812,171.743723 C223.228736,171.13059 223.018515,170.646537 222.808294,170.130215 L222.662757,169.823648 L222.048265,168.37149 L221.449944,166.757981 C221.449944,166.757981 221.449944,166.612766 221.369089,166.53209 C221.19121,166.048037 221.013331,165.563985 220.851622,165.063797 L220.867793,164.966987 C220.528206,163.966611 220.22096,162.966236 219.962226,161.96586 C219.956817,161.863743 219.956817,161.761411 219.962226,161.659294 C219.832859,161.175241 219.703493,160.691188 219.590297,160.207136 C219.599522,160.121328 219.599522,160.034782 219.590297,159.948974 L219.299221,158.561357 C219.169855,157.915953 219.089,157.415766 219.008146,156.947848 L219.008146,156.641282 C219.008146,156.157229 218.862609,155.673176 218.797925,155.189124 C218.733242,154.705071 218.684729,154.108073 218.652388,153.65629 C218.652388,153.575615 218.652388,153.49494 218.652388,153.414264 C218.652388,152.946347 218.652388,152.478429 218.571533,152.010512 C218.580008,151.908498 218.580008,151.805959 218.571533,151.703945 C218.571533,151.219892 218.571533,150.751975 218.571533,150.267922 C218.567574,148.761442 218.675677,147.256746 218.89495,145.766233 C219.182575,143.601024 219.793035,141.490892 220.706085,139.505819 C220.883964,139.134712 221.061843,138.77974 221.255893,138.440903 C225.622021,130.615386 234.855573,128.759851 245.512159,134.939589 C255.085298,140.457789 263.461795,151.074676 268.151339,162.369238 C268.474756,163.127587 268.765831,163.869801 269.040736,164.62815 C269.202444,165.693066 269.574373,166.806387 269.913961,167.919708 Z M245.657696,168.694192 C251.171954,171.921209 255.651277,169.32346 255.667448,162.998506 C255.301089,156.012135 251.603638,149.62339 245.72238,145.814638 C240.224293,142.587621 235.728798,145.18537 235.712627,151.510324 C236.086774,158.494391 239.78233,164.879862 245.657696,168.694192 Z" id="Shape" fill="url(#linearGradient-8)" fill-rule="nonzero"></path>
                        <path d="M311.999847,252.274677 C314.199457,253.702593 315.581423,256.104406 315.714286,258.730257 L315.714286,274.433455 C315.714286,276.80588 314.106304,277.758078 311.983768,276.563796 L168.873375,193.674153 C166.671561,192.246108 165.284536,189.845891 165.142857,187.218573 L165.142857,171.515376 C165.142857,169.159089 166.831238,168.287586 168.889455,169.401173 L311.999847,252.274677 Z" id="Path" fill="#CFE3FF" fill-rule="evenodd"></path>
                        <path d="M311.999847,286.328514 C314.197491,287.757509 315.578821,290.156882 315.714286,292.780499 L315.714286,308.474952 C315.714286,310.846056 314.106304,311.781594 311.983768,310.587977 L168.873375,227.744491 C166.667634,226.320999 165.279334,223.919915 165.142857,221.292506 L165.142857,205.598053 C165.142857,203.226949 166.750839,202.275281 168.889455,203.452768 L311.999847,286.328514 Z" id="Path" fill="#CFE3FF" fill-rule="evenodd"></path>
                        <path d="M247.96608,293.399296 C252.126435,296.115169 254.741241,300.667004 255,305.643887 L255,308.512433 C255,313.020147 251.83392,314.823233 247.93344,312.56118 L211.05024,291.137242 C206.888168,288.428379 204.267552,283.883085 204,278.909042 L204,276.024105 C204,271.532782 207.264,269.713305 211.08288,271.975358 L247.96608,293.399296 Z" id="Path" fill="url(#linearGradient-9)" fill-rule="evenodd"></path>
                        <g id="Group" opacity="0.67" stroke-width="1" fill="none" fill-rule="evenodd" transform="translate(349.500000, 110.588556)">
                            <path d="M37.5566456,21.1455041 L37.5566456,27.1083742 C37.548766,28.7409969 36.6768683,30.2462834 35.2674169,31.0606098 C33.8579654,31.8749362 32.1235578,31.8754719 30.7136076,31.0620163 L2.67974684,14.7289373 C1.27509664,13.9109014 0.408684172,12.4056126 0.404113924,10.7752952 L0.404113924,4.79622162 C0.417694168,3.16649672 1.29184474,1.66647136 2.70026098,0.856077995 C4.10867722,0.0456846278 5.83969322,0.046714403 7.2471519,0.858782925 L35.2648734,17.1918619 C36.6757351,18.0057922 37.548739,19.5118516 37.5566456,21.1455041 Z" id="Path" fill="#1AE5FF"></path>
                            <path d="M126.193354,102.178965 L126.193354,108.158038 C126.186349,109.786988 125.316115,111.28901 123.909228,112.100437 C122.502341,112.911864 120.771581,112.909974 119.366456,112.095477 L2.59905063,44.4298638 C1.19184565,43.6064969 0.325547064,42.0952376 0.323417722,40.4600182 L0.323417722,34.4323342 C0.330423545,32.8033847 1.20065735,31.3013626 2.60754428,30.4899354 C4.01443122,29.6785082 5.74519079,29.680398 7.15031646,30.4948955 L123.901582,98.1605086 C125.332508,98.9859456 126.208632,100.522165 126.193354,102.178965 Z" id="Path" fill="#1AE5FF"></path>
                            <g opacity="0.53" transform="translate(0.000000, 89.118983)" fill="#1AE5FF" id="Path">
                                <path d="M77.8886076,44.5432879 L77.8886076,50.5223615 C77.8816018,52.151311 77.011368,53.6533332 75.604481,54.4647603 C74.1975941,55.2761875 72.4668345,55.2742977 71.0617089,54.4598002 L2.45379747,14.6965304 C1.04172437,13.8780344 0.173653384,12.3636831 0.178164557,10.7266848 L0.178164557,4.74761126 C0.175157945,3.11439417 1.0436639,1.6046639 2.45422591,0.791117127 C3.86478792,-0.022429646 5.60130937,-0.0151584156 7.00506329,0.81017257 L75.6129747,40.5734423 C77.0250478,41.3919383 77.8931188,42.9062897 77.8886076,44.5432879 Z"></path>
                            </g>
                            <path d="M108.00443,121.380054 L108.00443,127.359128 C107.997425,128.988078 107.127191,130.4901 105.720304,131.301527 C104.313417,132.112954 102.582657,132.111064 101.177532,131.296567 L2.53449367,74.1145867 C1.12486442,73.2936431 0.257685335,71.7808476 0.258860759,70.1447411 L0.258860759,64.181871 C0.260123683,62.5500256 1.12808894,61.042714 2.53602444,60.2273404 C3.94395994,59.4119668 5.67814005,59.4123054 7.08575949,60.2282289 L105.728797,117.410209 C107.143334,118.226232 108.012309,119.74216 108.00443,121.380054 Z" id="Path" fill="#1AE5FF"></path>
                        </g>
                        <path d="M160.285714,196.871935 C160.285714,210.295313 149.41263,221.177112 136,221.177112 C122.58737,221.177112 111.714286,210.295313 111.714286,196.871935 C111.714286,183.448556 122.58737,172.566757 136,172.566757 C149.41263,172.566757 160.285714,183.448556 160.285714,196.871935 Z" id="Path" fill="url(#linearGradient-10)" fill-rule="evenodd"></path>
                        <polygon id="Path" fill="#FFFFFF" fill-rule="evenodd" points="133.892032 209.024523 123.857143 201.722341 127.512023 196.747929 132.721829 200.542512 143.269684 187.149864 148.142857 190.944448"></polygon>
                        <g id="Group" opacity="0.46" stroke-width="1" fill="none" fill-rule="evenodd" transform="translate(0.000000, 34.027248)">
                            <path d="M104.72,56.3069936 C110.829728,60.2902562 114.668666,66.9565721 115.049524,74.2442144 C115.049524,80.871426 110.370476,83.528792 104.655238,80.2232879 L10.3457143,25.7310808 C4.22284766,21.7429526 0.376970365,15.0629901 0,7.76145322 C0,1.18285195 4.67904762,-1.49071753 10.4104762,1.81478656 L104.72,56.3069936 Z" id="Path" fill="#1AE5FF"></path>
                        </g>
                        <g id="Group" opacity="0.46" stroke-width="1" fill="none" fill-rule="evenodd" transform="translate(387.357143, 339.057221)">
                            <path d="M72.93,39.017911 C77.1421415,41.7768408 79.7890678,46.411288 80.0466857,51.4783651 C80.0466857,56.0801453 76.8409714,57.9597457 72.8819143,55.6264487 L8.01428571,17.7427793 C3.81134612,14.9674853 1.16819792,10.3336352 0.8976,5.26612171 C0.8976,0.680544959 4.10331429,-1.21525886 8.06237143,1.1342416 L72.93,39.017911 Z" id="Path" fill="#1AE5FF"></path>
                        </g>
                    </g>
                </g>
            </g>
        </g>
    </g>
</svg>