<?xml version="1.0" encoding="UTF-8"?>
<svg width="134px" height="22px" viewBox="0 0 134 22" version="1.1" xmlns="http://www.w3.org/2000/svg" xmlns:xlink="http://www.w3.org/1999/xlink">
    <!-- Generator: Sketch 52.5 (67469) - http://www.bohemiancoding.com/sketch -->
    <title>Group 4</title>
    <desc>Created with Sketch.</desc>
    <defs>
        <rect id="path-1" x="0" y="0" width="132" height="20" rx="2"></rect>
        <filter x="-1.5%" y="-5.0%" width="103.0%" height="120.0%" filterUnits="objectBoundingBox" id="filter-2">
            <feOffset dx="0" dy="1" in="SourceAlpha" result="shadowOffsetOuter1"></feOffset>
            <feGaussianBlur stdDeviation="0.5" in="shadowOffsetOuter1" result="shadowBlurOuter1"></feGaussianBlur>
            <feColorMatrix values="0 0 0 0 0   0 0 0 0 0   0 0 0 0 0  0 0 0 0.5 0" type="matrix" in="shadowBlurOuter1"></feColorMatrix>
        </filter>
    </defs>
    <g id="Page-1" stroke="none" stroke-width="1" fill="none" fill-rule="evenodd">
        <g id="İletişim" transform="translate(-89.000000, -390.000000)">
            <g id="Group-4" transform="translate(90.000000, 390.000000)">
                <g id="Rectangle">
                    <use fill="black" fill-opacity="1" filter="url(#filter-2)" xlink:href="#path-1"></use>
                    <use fill="#4A4A4A" fill-rule="evenodd" xlink:href="#path-1"></use>
                </g>
                <g id="choose" transform="translate(10.000000, 3.000000)">
                    <path d="M6.57931415,4.94790419 C6.57931415,4.07540918 5.87142992,3.36836327 4.99939399,3.36836327 C4.12671934,3.36836327 3.41943391,4.07540918 3.41943391,4.94790419 C3.41943391,5.54035928 3.74584109,6.05560878 4.22825626,6.32620758 L4.26105067,5.27804391 C4.26105067,4.8492016 4.60897483,4.50129741 5.03821634,4.50129741 L5.08230816,4.50129741 C5.42037203,4.50129741 5.69440397,4.77526946 5.69440397,5.11337325 L5.69440397,6.3650499 C6.21745786,6.10806387 6.57931415,5.57051896 6.57931415,4.94790419" id="Fill-3" fill="#9B9B9B"></path>
                    <path d="M5.69440397,5.11337325 C5.69440397,4.77526946 5.42037203,4.50129741 5.08230816,4.50129741 L5.03821634,4.50129741 C4.60897483,4.50129741 4.26105067,4.8492016 4.26105067,5.27804391 L4.15546185,8.63548902 C4.13893491,8.70670659 4.12951375,10.3123154 4.12951375,10.3123154 C3.9937852,10.1739122 3.84266744,10.0156287 3.70695886,9.86413174 C3.39003271,9.51061876 2.80771734,9.27239521 2.42067143,9.22830339 C2.21677922,9.2049501 2.06111055,9.23283433 1.95747782,9.31081836 C1.92430417,9.33612774 1.89186904,9.36439122 1.86137004,9.39489022 C1.66162952,9.59161677 1.51087103,9.90938124 1.65033211,10.1422754 C1.71061155,10.243992 1.81420437,10.311517 1.92430417,10.3823752 C2.07017243,10.4769461 2.31588101,10.5794411 2.50057163,10.81501 C2.80989299,11.2107585 3.52614049,12.0953693 3.96630017,12.5675649 C4.05787702,12.6245309 4.25162952,12.8178643 4.34320636,12.8668463 C4.62099079,13.0443713 4.84789698,13.2112974 4.92659958,13.3017764 C4.98809658,13.3722156 5.35174928,13.5584232 5.35174928,13.5584232 C5.64578121,13.7446307 6.18093091,13.9187226 6.79905467,13.9187226 C7.41598081,13.9187226 7.97647982,13.9556687 8.39071135,13.5912774 L8.41286704,13.5912774 L8.42380516,13.5637525 C8.84520237,13.1778044 9.10715846,12.6429541 9.10715846,12.0516367 C9.10715846,11.9054092 9.10715846,11.3661078 9.10715846,11.2646906 L9.10715846,9.22449102 C9.10715846,9.08588822 9.07667942,8.62147705 8.68612053,8.48201597 C8.49845586,8.41532934 8.32101075,8.44057884 8.16977323,8.50580838 L8.13442393,8.50730539 L8.12352572,8.50804391 C8.05560157,8.25289421 7.88602073,8.08820359 7.63504269,8.04447106 C7.33200876,7.99203593 7.12200876,8.08251497 6.99578121,8.1741517 C6.87031215,7.90427146 6.61851574,7.76367265 6.27779718,7.79229541 C6.02230816,7.8138523 5.83230816,7.93932136 5.69440397,8.1047505 L5.69440397,5.11337325" id="Fill-4" fill="#FFFFFF"></path>
                    <path d="M8.52480317,7.57111776 L8.83839598,7.9200998 C8.8987353,7.98794411 9.00799678,7.98383234 9.06115047,7.91031936 C9.66570137,7.07137725 9.99891495,6.06167665 9.99891495,4.99952096 C9.99891495,2.24253493 7.75602073,-2.84217094e-14 4.99939399,-2.84217094e-14 C4.81021235,-2.84217094e-14 4.61839598,0.0105788423 4.42871534,0.0317165669 C2.12815646,0.287984032 0.278056662,2.14497006 0.0296933884,4.44736527 C-0.105655913,5.70017964 0.225980814,6.92247505 0.937198378,7.91031936 C0.989932909,7.98419162 1.09925427,7.98794411 1.16039199,7.92045908 L1.47354568,7.57183633 C1.51807662,7.52249501 1.52139,7.44934132 1.4836854,7.39469062 C0.981709356,6.66125749 0.718236303,5.78532934 0.744583608,4.8744511 C0.808316143,2.66359281 2.58799678,0.851097804 4.79620037,0.748183633 C7.23779718,0.627964072 9.25570137,2.58516966 9.25570137,4.99952096 C9.25570137,5.86343313 8.99222832,6.69413174 8.51392493,7.39397206 C8.47659958,7.449002 8.47999279,7.52177645 8.52480317,7.57111776" id="Fill-5" fill="#FFFFFF"></path>
                    <path d="M7.11941395,6.00700599 L7.45142992,6.37634731 C7.51925427,6.45245509 7.64260756,6.43510978 7.6881365,6.34433134 C7.8977373,5.93011976 8.0081365,5.47439122 8.0081365,4.99952096 C8.0081365,3.58321357 7.0025876,2.34508982 5.61630017,2.05487026 C5.2119888,1.96928144 4.7871385,1.96928144 4.38162952,2.05487026 C2.99616045,2.34508982 1.99063151,3.58321357 1.99063151,4.99952096 C1.99063151,5.47483034 2.10103071,5.93011976 2.31027223,6.34433134 C2.35665946,6.43510978 2.47913451,6.45245509 2.5473381,6.37634731 L2.87899479,6.00700599 C2.91632013,5.96550898 2.92496285,5.90672655 2.90386505,5.85552894 C2.79230816,5.58451098 2.73354568,5.29391218 2.73354568,4.99952096 C2.73354568,4.05241517 3.33234808,3.19690619 4.2231864,2.87087824 C4.72083111,2.68918164 5.2778371,2.68918164 5.77502273,2.87087824 C6.66600077,3.19690619 7.26450377,4.05241517 7.26450377,4.99952096 C7.26450377,5.29391218 7.20572133,5.58451098 7.09488301,5.85552894 C7.07380516,5.90710579 7.08234808,5.96586826 7.11941395,6.00700599" id="Fill-6" fill="#9B9B9B"></path>
                </g>
                <path d="M32.5,5 L32.5,16" id="Line-6" stroke="#FFFFFF" stroke-linecap="square"></path>
            </g>
        </g>
    </g>
</svg>