<?xml version="1.0" encoding="UTF-8"?>
<svg width="272px" height="244px" viewBox="0 0 272 244" version="1.1" xmlns="http://www.w3.org/2000/svg" xmlns:xlink="http://www.w3.org/1999/xlink">
    <!-- Generator: Sketch 52.5 (67469) - http://www.bohemiancoding.com/sketch -->
    <title>Group 10</title>
    <desc>Created with Sketch.</desc>
    <g id="Page-1" stroke="none" stroke-width="1" fill="none" fill-rule="evenodd">
        <g id="Hakkımızda" transform="translate(-24.000000, -1938.000000)">
            <g id="Group-10" transform="translate(24.000000, 1938.000000)">
                <g id="Group">
                    <g id="Group-4">
                        <g id="Group" transform="translate(1.000000, 0.000000)" fill="#D3D3D3">
                            <path d="M16.249275,9.23072897 L14.458525,9.23072897 L14.181125,9.23072897 L4.408,9.23072897 L4.129175,9.23072897 L2.3389,9.23072897 C1.076825,9.23072897 0.051775,10.2785047 0.051775,11.569757 L0.051775,11.6028037 L0.051775,15.4376822 L0.051775,28.4896822 C0.051775,29.4285981 0.865925,30.1915888 1.870075,30.1915888 L1.90665,30.1915888 C2.910325,30.1915888 3.724475,29.4285981 3.724475,28.4896822 L3.724475,15.1203364 L3.724475,15.1203364 C3.813775,15.1004112 3.90735,15.0872897 4.0033,15.0872897 C4.046525,15.0872897 4.086425,15.0940935 4.129175,15.0974953 L4.129175,26.8815701 L4.129175,29.1865794 L4.129175,49.5190654 C4.129175,50.8069159 5.149,51.8527477 6.40775,51.8527477 L6.45335,51.8527477 C7.71305,51.8527477 8.73335,50.8078879 8.73335,49.5190654 L8.73335,29.1486729 L8.73335,29.1486729 C8.895325,29.0393271 9.085325,28.9737196 9.2948,28.9737196 C9.503325,28.9737196 9.69475,29.041271 9.8572,29.1506168 C9.8572,29.171514 9.85435,29.1914393 9.85435,29.2123364 L9.85435,49.5190654 C9.85435,50.8064299 10.87465,51.8522617 12.132925,51.8522617 L12.17995,51.8522617 C13.439175,51.8522617 14.460425,50.8078879 14.460425,49.5190654 L14.460425,29.2123364 C14.460425,29.2035888 14.458525,29.1958131 14.458525,29.1865794 L14.460425,29.1865794 L14.460425,15.0970093 C14.503175,15.0931215 14.543075,15.0868037 14.587725,15.0868037 C14.68415,15.0868037 14.775825,15.0999252 14.867025,15.1198505 L14.867025,15.1198505 L14.867025,28.4891963 C14.867025,29.4281121 15.6807,30.1911028 16.68485,30.1911028 L16.721425,30.1911028 C17.7251,30.1911028 18.537825,29.4281121 18.537825,28.4891963 L18.537825,15.4371963 L18.537825,11.6023178 L18.537825,11.569271 C18.535925,10.2785047 17.51325,9.23072897 16.249275,9.23072897 Z" id="Shape"></path>
                            <path d="M13.38645,4.23241121 C13.38645,6.54568224 11.554375,8.41816822 9.2948,8.41816822 C7.03475,8.41816822 5.204575,6.54519626 5.204575,4.23241121 C5.204575,1.92205607 7.035225,0.0466542056 9.2948,0.0466542056 C11.5539,0.0466542056 13.38645,1.92205607 13.38645,4.23241121 Z" id="Shape"></path>
                        </g>
                        <g id="Group" transform="translate(0.000000, 63.000000)" fill="#D3D3D3">
                            <path d="M21.7388085,24.7826168 L17.8869362,11.0667664 C17.5213617,9.76676636 16.3745532,8.87158879 15.0690638,8.87158879 L13.9667234,8.87158879 L11.0308936,8.87158879 L8.09553191,8.87158879 L6.9927234,8.87158879 C5.6886383,8.87158879 4.54089362,9.76676636 4.17578723,11.0667664 L0.323914894,24.7826168 C0.0716170213,25.6831402 0.666085106,26.5997009 1.56434043,26.6964112 L1.93880851,26.7343178 C2.64093617,26.8077009 3.29297872,26.3450467 3.47693617,25.6374579 L6.32148936,14.8350654 C6.32148936,14.8350654 6.49514894,14.6761495 6.69595745,14.6858692 L1.85548936,34.7836262 L6.73387234,34.7836262 L6.73387234,49.503028 C6.73387234,50.6786168 7.53757447,51.6306542 8.52804255,51.6306542 L8.56361702,51.6306542 C9.55548936,51.6306542 10.3573191,50.6786168 10.3573191,49.503028 L10.3573191,34.7836262 L11.0304255,34.7836262 L11.7035319,34.7836262 L11.7035319,49.503028 C11.7035319,50.6786168 12.507234,51.6306542 13.4981702,51.6306542 L13.5337447,51.6306542 C14.525617,51.6306542 15.3274468,50.6786168 15.3274468,49.503028 L15.3274468,34.7836262 L20.2058298,34.7836262 L15.366766,14.6858692 C15.5661702,14.6756636 15.7417021,14.8350654 15.7417021,14.8350654 L18.5839149,25.6374579 C18.7697447,26.3450467 19.4222553,26.8077009 20.1234468,26.7343178 L20.498383,26.6964112 C21.3961702,26.5997009 21.9920426,25.6826542 21.7388085,24.7826168 Z" id="Shape"></path>
                            <ellipse id="Oval" cx="11.0313617" cy="4.17360748" rx="3.8532766" ry="4.00059813"></ellipse>
                        </g>
                        <g id="Group" transform="translate(5.000000, 40.000000)" fill="#ED8080">
                            <path d="M4.51565217,9.33704348 L4.51565217,0.40226087 L0.302173913,0.40226087 L0.302173913,9.33704348 C0.302173913,10.7191304 1.23565217,11.841913 2.38782609,11.841913 L2.42956522,11.841913 C3.58173913,11.841913 4.51565217,10.7201739 4.51565217,9.33704348 Z" id="Shape"></path>
                            <path d="M9.75608696,9.33704348 L9.75608696,0.40226087 L5.54086957,0.40226087 L5.54086957,9.33704348 C5.54086957,10.7191304 6.47434783,11.841913 7.62652174,11.841913 L7.66913043,11.841913 C8.82217391,11.841913 9.75608696,10.7201739 9.75608696,9.33704348 Z" id="Shape"></path>
                        </g>
                        <g id="Group" transform="translate(7.000000, 103.000000)" fill="#95C7C9">
                            <path d="M3.84963158,9.8426087 L3.84963158,0.40226087 L0.182842105,0.40226087 L0.182842105,9.8426087 C0.182842105,10.7102609 0.571263158,11.4553043 1.13826316,11.841913 L2.89657895,11.841913 C3.46168421,11.4553043 3.84963158,10.7102609 3.84963158,9.8426087 Z" id="Shape"></path>
                            <path d="M5.21289474,0.40226087 L5.21289474,9.8426087 C5.21289474,10.7102609 5.60178947,11.4553043 6.16831579,11.841913 L7.92710526,11.841913 C8.49221053,11.4553043 8.88110526,10.7102609 8.88110526,9.8426087 L8.88110526,0.40226087 L5.21289474,0.40226087 Z" id="Shape"></path>
                        </g>
                    </g>
                    <g id="Group-7" transform="translate(60.750000, 0.000000)">
                        <g id="Group" transform="translate(2.000000, 0.000000)" fill="#D3D3D3">
                            <path d="M15.7744615,9.23072897 L14.0344615,9.23072897 L13.7649231,9.23072897 L4.26876923,9.23072897 L3.99784615,9.23072897 L2.25830769,9.23072897 C1.03246154,9.23072897 0.036,10.2785047 0.036,11.569757 L0.036,11.6028037 L0.036,15.4376822 L0.036,28.4896822 C0.036,29.4285981 0.827076923,30.1915888 1.80276923,30.1915888 L1.83876923,30.1915888 C2.81353846,30.1915888 3.60461538,29.4285981 3.60461538,28.4896822 L3.60461538,15.1203364 L3.60461538,15.1203364 C3.69138462,15.1004112 3.78230769,15.0872897 3.876,15.0872897 C3.91753846,15.0872897 3.95630769,15.0940935 3.99784615,15.0974953 L3.99784615,26.8815701 L3.99784615,29.1865794 L3.99784615,49.5190654 C3.99784615,50.8069159 4.98876923,51.8527477 6.21184615,51.8527477 L6.25615385,51.8527477 C7.48015385,51.8527477 8.472,50.8078879 8.472,49.5190654 L8.472,29.1486729 L8.472,29.1486729 C8.62938462,29.0393271 8.81353846,28.9737196 9.01707692,28.9737196 C9.21969231,28.9737196 9.40569231,29.041271 9.56353846,29.1506168 C9.56353846,29.171514 9.56076923,29.1914393 9.56076923,29.2123364 L9.56076923,49.5190654 C9.56076923,50.8064299 10.5521538,51.8522617 11.7747692,51.8522617 L11.8204615,51.8522617 C13.044,51.8522617 14.0363077,50.8078879 14.0363077,49.5190654 L14.0363077,29.2123364 C14.0363077,29.2035888 14.0344615,29.1958131 14.0344615,29.1865794 L14.0363077,29.1865794 L14.0363077,15.0970093 C14.0778462,15.0931215 14.1166154,15.0868037 14.16,15.0868037 C14.2536923,15.0868037 14.3427692,15.0999252 14.4313846,15.1198505 L14.4313846,15.1198505 L14.4313846,28.4891963 C14.4313846,29.4281121 15.2224615,30.1911028 16.1976923,30.1911028 L16.2332308,30.1911028 C17.2084615,30.1911028 17.9981538,29.4281121 17.9981538,28.4891963 L17.9981538,15.4371963 L17.9981538,11.6023178 L17.9981538,11.569271 C17.9963077,10.2785047 17.0026154,9.23072897 15.7744615,9.23072897 Z" id="Shape"></path>
                            <path d="M12.9923077,4.23241121 C12.9923077,6.54568224 11.2116923,8.41816822 9.01615385,8.41816822 C6.82061538,8.41816822 5.04184615,6.54519626 5.04184615,4.23241121 C5.04184615,1.92205607 6.82061538,0.0466542056 9.01615385,0.0466542056 C11.2116923,0.0466542056 12.9923077,1.92205607 12.9923077,4.23241121 Z" id="Shape"></path>
                        </g>
                        <g id="Group" transform="translate(7.000000, 63.000000)" fill="#D3D3D3">
                            <ellipse id="Oval" cx="4.01685106" cy="4.17360748" rx="3.8532766" ry="4.00059813"></ellipse>
                        </g>
                        <g id="Group" transform="translate(6.000000, 30.000000)" fill="#ED8080">
                            <path d="M9.7426087,19.5047111 L9.7426087,0.412622222 L5.5273913,0.412622222 L5.5273913,19.5047111 C5.5273913,20.7997778 6.46130435,21.8518667 7.61304348,21.8518667 L7.65608696,21.8518667 C8.80869565,21.8518667 9.7426087,20.8007556 9.7426087,19.5047111 Z" id="Shape"></path>
                            <path d="M4.50173913,19.5047111 L4.50173913,0.412622222 L0.28826087,0.412622222 L0.28826087,19.5047111 C0.28826087,20.7997778 1.22173913,21.8518667 2.37391304,21.8518667 L2.41565217,21.8518667 C3.56826087,21.8518667 4.50173913,20.8007556 4.50173913,19.5047111 Z" id="Shape"></path>
                        </g>
                        <path d="M21.9398011,88.0006819 L18.0041459,74.2075467 C17.6320546,72.9002216 16.4588668,72 15.1249815,72 L13.9986639,72 L10.9994546,72 L8.00024524,72 L6.8739276,72 C5.54099882,72 4.36828932,72.9002216 3.99524144,74.2075467 L0.0595862875,88.0006819 C-0.198199364,88.9062795 0.40919911,89.8280048 1.32699255,89.92526 L1.71008403,89.9633801 C2.42748381,90.0371768 3.09323079,89.5719157 3.2816678,88.8603398 L6.18761515,77.997079 C6.18761515,77.997079 6.36505203,77.8372677 6.57070663,77.8470421 L1.62447433,98.058044 L6.60896795,98.058044 L6.60896795,112.860385 C6.60896795,114.042598 7.43062982,115 8.44264177,115 L8.47851176,115 C9.4919585,115 10.311229,114.042598 10.311229,112.860385 L10.311229,98.058044 L10.9989763,98.058044 L11.6867235,98.058044 L11.6867235,112.860385 C11.6867235,114.042598 12.5079072,115 13.5203974,115 L13.5567456,115 C14.5701924,115 15.3894629,114.042598 15.3894629,112.860385 L15.3894629,98.058044 L20.3739565,98.058044 L15.4305938,77.8470421 C15.6343354,77.836779 15.8127288,77.997079 15.8127288,77.997079 L18.7177196,88.8603398 C18.9071131,89.5719157 19.5733384,90.0371768 20.2907382,89.9633801 L20.6728731,89.92526 C21.58971,89.8280048 22.1994998,88.9057908 21.9398011,88.0006819 Z" id="Shape" fill="#D3D3D3"></path>
                        <path d="M2,98.6601218 L6.78521693,98.6601218 L6.78521693,113.164877 C6.78521693,113.961278 7.16122121,114.645139 7.71076593,115 L9.41495141,115 C9.96311883,114.645139 10.3395822,113.961278 10.3395822,113.164877 L10.3395822,98.6601218 L10.9997704,98.6601218 L11.6599587,98.6601218 L11.6599587,113.164877 C11.6599587,113.961278 12.0364221,114.645139 12.5859668,115 L14.2906114,115 C14.8383197,114.645139 15.2152422,113.961278 15.2152422,113.164877 L15.2152422,98.6601218 L20,98.6601218 L18.8830056,94 L3.11837172,94 L2,98.6601218 Z" id="Shape" fill="#95C7C9"></path>
                    </g>
                    <g id="Group-6" transform="translate(125.500000, 0.000000)">
                        <g id="Group" transform="translate(1.000000, 0.000000)" fill="#D3D3D3">
                            <path d="M15.7596923,9.23072897 L14.0192308,9.23072897 L13.7496923,9.23072897 L4.25353846,9.23072897 L3.98261538,9.23072897 L2.24353846,9.23072897 C1.01723077,9.23072897 0.0207692308,10.2785047 0.0207692308,11.569757 L0.0207692308,11.6028037 L0.0207692308,15.4376822 L0.0207692308,28.4896822 C0.0207692308,29.4285981 0.811846154,30.1915888 1.78753846,30.1915888 L1.82353846,30.1915888 C2.79876923,30.1915888 3.58984615,29.4285981 3.58984615,28.4896822 L3.58984615,15.1203364 L3.58984615,15.1203364 C3.67615385,15.1004112 3.76707692,15.0872897 3.86076923,15.0872897 C3.90230769,15.0872897 3.94107692,15.0940935 3.98261538,15.0974953 L3.98261538,26.8815701 L3.98261538,29.1865794 L3.98261538,49.5190654 C3.98261538,50.8069159 4.974,51.8527477 6.19661538,51.8527477 L6.24138462,51.8527477 C7.46492308,51.8527477 8.45676923,50.8078879 8.45676923,49.5190654 L8.45676923,29.1486729 L8.45676923,29.1486729 C8.61415385,29.0393271 8.79876923,28.9737196 9.00184615,28.9737196 C9.20492308,28.9737196 9.39046154,29.041271 9.54876923,29.1506168 C9.54876923,29.171514 9.54553846,29.1914393 9.54553846,29.2123364 L9.54553846,49.5190654 C9.54553846,50.8064299 10.5369231,51.8522617 11.76,51.8522617 L11.8052308,51.8522617 C13.0292308,51.8522617 14.0210769,50.8078879 14.0210769,49.5190654 L14.0210769,29.2123364 C14.0210769,29.2035888 14.0192308,29.1958131 14.0192308,29.1865794 L14.0210769,29.1865794 L14.0210769,15.0970093 C14.0626154,15.0931215 14.1013846,15.0868037 14.1452308,15.0868037 C14.2389231,15.0868037 14.328,15.0999252 14.4166154,15.1198505 L14.4166154,15.1198505 L14.4166154,28.4891963 C14.4166154,29.4281121 15.2072308,30.1911028 16.1829231,30.1911028 L16.2184615,30.1911028 C17.1932308,30.1911028 17.9829231,29.4281121 17.9829231,28.4891963 L17.9829231,15.4371963 L17.9829231,11.6023178 L17.9829231,11.569271 C17.982,10.2785047 16.9883077,9.23072897 15.7596923,9.23072897 Z" id="Shape"></path>
                            <path d="M12.978,4.23241121 C12.978,6.54568224 11.1973846,8.41816822 9.00184615,8.41816822 C6.80630769,8.41816822 5.02753846,6.54519626 5.02753846,4.23241121 C5.02753846,1.92205607 6.80630769,0.0466542056 9.00184615,0.0466542056 C11.1973846,0.0466542056 12.978,1.92205607 12.978,4.23241121 Z" id="Shape"></path>
                        </g>
                        <g id="Group" transform="translate(0.000000, 63.000000)" fill="#D3D3D3">
                            <path d="M21.7093191,24.7826168 L17.8574468,11.0667664 C17.4928085,9.76676636 16.3445957,8.87158879 15.0391064,8.87158879 L13.937234,8.87158879 L11.0009362,8.87158879 L8.06604255,8.87158879 L6.96276596,8.87158879 C5.65821277,8.87158879 4.51093617,9.76676636 4.14676596,11.0667664 L0.293489362,24.7826168 C0.0416595745,25.6831402 0.63612766,26.5997009 1.53485106,26.6964112 L1.90978723,26.7343178 C2.61144681,26.8077009 3.26302128,26.3450467 3.44744681,25.6374579 L6.29153191,14.8350654 C6.29153191,14.8350654 6.46519149,14.6761495 6.66646809,14.6858692 L1.82646809,34.7836262 L6.70485106,34.7836262 L6.70485106,49.503028 C6.70485106,50.6786168 7.50808511,51.6306542 8.49855319,51.6306542 L8.53412766,51.6306542 C9.52553191,51.6306542 10.3273617,50.6786168 10.3273617,49.503028 L10.3273617,34.7836262 L11.0004681,34.7836262 L11.6740426,34.7836262 L11.6740426,49.503028 C11.6740426,50.6786168 12.4777447,51.6306542 13.4686809,51.6306542 L13.5037872,51.6306542 C14.4956596,51.6306542 15.2974894,50.6786168 15.2974894,49.503028 L15.2974894,34.7836262 L20.1758723,34.7836262 L15.3377447,14.6858692 C15.537617,14.6756636 15.7122128,14.8350654 15.7122128,14.8350654 L18.5548936,25.6374579 C18.7402553,26.3450467 19.3922979,26.8077009 20.0944255,26.7343178 L20.4684255,26.6964112 C21.3662128,26.5997009 21.9634894,25.6826542 21.7093191,24.7826168 Z" id="Shape"></path>
                            <ellipse id="Oval" cx="11.0023404" cy="4.17360748" rx="3.85234043" ry="3.99962617"></ellipse>
                        </g>
                        <g id="Group" transform="translate(1.000000, 21.000000)" fill="#ED8080">
                            <path d="M14.0366154,28.6026667 L14.0366154,8.97637879 C14.0366154,8.96745455 14.0347692,8.95993939 14.0347692,8.95148485 L14.0366154,8.95148485 L14.0366154,0 L4,0 L4,6.72324242 L4,8.95101515 L4,28.602197 C4,29.8468939 4.99138462,30.8576818 6.214,30.8576818 L6.25876923,30.8576818 C7.48230769,30.8576818 8.47415385,29.8478333 8.47415385,28.602197 L8.47415385,8.91437879 C8.63153846,8.80869697 8.81615385,8.74528788 9.01923077,8.74528788 C9.22230769,8.74528788 9.40784615,8.81057576 9.56615385,8.91625758 C9.56615385,8.93645455 9.56338462,8.95571212 9.56338462,8.97590909 L9.56338462,28.602197 C9.56338462,29.8464242 10.5543077,30.8572121 11.7773846,30.8572121 L11.8226154,30.8572121 C13.0452308,30.8576818 14.0366154,29.8478333 14.0366154,28.6026667 Z" id="Shape"></path>
                            <path d="M14.4675385,0 L14.4675385,8.2774697 C14.4675385,9.18492424 15.2581538,9.92234848 16.2333846,9.92234848 L16.2689231,9.92234848 C17.2441538,9.92234848 18.0338462,9.18492424 18.0338462,8.2774697 L18.0338462,0 L14.4675385,0 Z" id="Shape"></path>
                            <path d="M0,0 L0,8.2774697 C0,9.18492424 0.791076923,9.92234848 1.76676923,9.92234848 L1.80276923,9.92234848 C2.778,9.92234848 3.56907692,9.18492424 3.56907692,8.2774697 L3.56907692,0 L0,0 Z" id="Shape"></path>
                        </g>
                        <g id="Group" transform="translate(0.000000, 83.000000)" fill="#95C7C9">
                            <path d="M15.4724255,29.057803 L15.4724255,14.8316212 L20.3512766,14.8316212 L16.6566809,0 L5.69553191,0 L2,14.8316212 L6.87838298,14.8316212 L6.87838298,29.057803 C6.87838298,29.8389091 7.26174468,30.5096364 7.82157447,30.8576818 L9.55910638,30.8576818 C10.118,30.5096364 10.5018298,29.8389091 10.5018298,29.057803 L10.5018298,14.8316212 L11.1749362,14.8316212 L11.8485106,14.8316212 L11.8485106,29.057803 C11.8485106,29.8389091 12.2318723,30.5096364 12.7921702,30.8576818 L14.5301702,30.8576818 C15.0885957,30.5096364 15.4724255,29.8389091 15.4724255,29.057803 Z" id="Shape"></path>
                            <path d="M18.6317447,5.99098485 C18.8171064,6.67486364 19.4691489,7.12201515 20.1712766,7.05109091 L20.5457447,7.01398485 C21.4425957,6.92098485 22.0389362,6.03419697 21.784766,5.16431818 L20.2840851,0 L17,0 L18.6317447,5.99098485 Z" id="Shape"></path>
                            <path d="M1.30005228,7.01445455 L1.67498845,7.05109091 C2.37664802,7.12201515 3.02822249,6.67486364 3.21264802,5.99098485 L4.84392462,0 L1.55890334,0 L0.0577544047,5.16431818 C-0.193139212,6.03419697 0.401328873,6.92051515 1.30005228,7.01445455 Z" id="Shape"></path>
                        </g>
                    </g>
                    <g id="Group-5" transform="translate(188.250000, 0.000000)">
                        <path d="M18.7453846,9.23072897 L17.0049231,9.23072897 L16.7353846,9.23072897 L7.23923077,9.23072897 L6.96923077,9.23072897 L5.23015385,9.23072897 C4.00384615,9.23072897 3.00738462,10.2785047 3.00738462,11.569757 L3.00738462,11.6028037 L3.00738462,15.4376822 L3.00738462,28.4896822 C3.00738462,29.4285981 3.79892308,30.1915888 4.77415385,30.1915888 L4.81015385,30.1915888 C5.78538462,30.1915888 6.57646154,29.4285981 6.57646154,28.4896822 L6.57646154,15.1203364 L6.57646154,15.1203364 C6.66276923,15.1004112 6.75369231,15.0872897 6.84738462,15.0872897 C6.88892308,15.0872897 6.92769231,15.0940935 6.96923077,15.0974953 L6.96923077,26.8815701 L6.96923077,29.1865794 L6.96923077,49.5190654 C6.96923077,50.8069159 7.96061538,51.8527477 9.18323077,51.8527477 L9.228,51.8527477 C10.4515385,51.8527477 11.4433846,50.8078879 11.4433846,49.5190654 L11.4433846,29.1486729 L11.4433846,29.1486729 C11.6007692,29.0393271 11.7853846,28.9737196 11.9884615,28.9737196 C12.1915385,28.9737196 12.3775385,29.041271 12.5353846,29.1506168 C12.5353846,29.171514 12.5326154,29.1914393 12.5326154,29.2123364 L12.5326154,49.5190654 C12.5326154,50.8064299 13.5235385,51.8522617 14.7466154,51.8522617 L14.7918462,51.8522617 C16.0158462,51.8522617 17.0076923,50.8078879 17.0076923,49.5190654 L17.0076923,29.2123364 C17.0076923,29.2035888 17.0058462,29.1958131 17.0058462,29.1865794 L17.0076923,29.1865794 L17.0076923,15.0970093 C17.0496923,15.0931215 17.0884615,15.0868037 17.1318462,15.0868037 C17.2255385,15.0868037 17.3146154,15.0999252 17.4032308,15.1198505 L17.4032308,15.1198505 L17.4032308,28.4891963 C17.4032308,29.4281121 18.1938462,30.1911028 19.1695385,30.1911028 L19.2050769,30.1911028 C20.1798462,30.1911028 20.9695385,29.4281121 20.9695385,28.4891963 L20.9695385,15.4371963 L20.9695385,11.6023178 L20.9695385,11.569271 C20.9676923,10.2785047 19.9735385,9.23072897 18.7453846,9.23072897 Z" id="Shape" fill="#ED8080"></path>
                        <path d="M15.9636923,4.23241121 C15.9636923,6.54568224 14.1835385,8.41816822 11.9875385,8.41816822 C9.792,8.41816822 8.01369231,6.54519626 8.01369231,4.23241121 C8.01369231,1.92205607 9.79246154,0.0466542056 11.9875385,0.0466542056 C14.1830769,0.0466542056 15.9636923,1.92205607 15.9636923,4.23241121 Z" id="Shape" fill="#D3D3D3"></path>
                        <g id="Group" transform="translate(0.000000, 63.000000)">
                            <path d="M21.6948085,24.7826168 L17.8429362,11.0667664 C17.4782979,9.76676636 16.3300851,8.87158879 15.0245957,8.87158879 L13.9227234,8.87158879 L10.9864255,8.87158879 L8.05153191,8.87158879 L6.94825532,8.87158879 C5.64370213,8.87158879 4.49689362,9.76676636 4.13225532,11.0667664 L0.278978723,24.7826168 C0.0271489362,25.6831402 0.621617021,26.5997009 1.52034043,26.6964112 L1.8952766,26.7343178 C2.59693617,26.8077009 3.24897872,26.3450467 3.43293617,25.6374579 L6.27702128,14.8350654 C6.27702128,14.8350654 6.45114894,14.6761495 6.65195745,14.6858692 L1.81195745,34.7836262 L6.69034043,34.7836262 L6.69034043,49.503028 C6.69034043,50.6786168 7.49357447,51.6306542 8.48404255,51.6306542 L8.51961702,51.6306542 C9.51148936,51.6306542 10.3133191,50.6786168 10.3133191,49.503028 L10.3133191,34.7836262 L10.9864255,34.7836262 L11.66,34.7836262 L11.66,49.503028 C11.66,50.6786168 12.4637021,51.6306542 13.4546383,51.6306542 L13.4902128,51.6306542 C14.481617,51.6306542 15.2839149,50.6786168 15.2839149,49.503028 L15.2839149,34.7836262 L20.1622979,34.7836262 L15.3241702,14.6858692 C15.5235745,14.6756636 15.6981702,14.8350654 15.6981702,14.8350654 L18.5413191,25.6374579 C18.7266809,26.3450467 19.3782553,26.8077009 20.080383,26.7343178 L20.4548511,26.6964112 C21.3517021,26.5997009 21.9489787,25.6826542 21.6948085,24.7826168 Z" id="Shape" fill="#95C7C9"></path>
                            <ellipse id="Oval" fill="#D3D3D3" cx="10.9878298" cy="4.17360748" rx="3.85234043" ry="3.99962617"></ellipse>
                        </g>
                    </g>
                    <g id="Group-8" transform="translate(250.000000, 0.000000)">
                        <g id="Group" transform="translate(2.000000, 0.000000)" fill="#ED8080">
                            <path d="M16.6649,9.23072897 L14.87415,9.23072897 L14.59675,9.23072897 L4.823625,9.23072897 L4.5448,9.23072897 L2.755,9.23072897 C1.492925,9.23072897 0.467875,10.2785047 0.467875,11.569757 L0.467875,11.6028037 L0.467875,15.4376822 L0.467875,28.4896822 C0.467875,29.4285981 1.282025,30.1915888 2.286175,30.1915888 L2.32275,30.1915888 C3.326425,30.1915888 4.140575,29.4285981 4.140575,28.4896822 L4.140575,15.1203364 L4.140575,15.1203364 C4.229875,15.1004112 4.32345,15.0872897 4.4194,15.0872897 C4.462625,15.0872897 4.502525,15.0940935 4.545275,15.0974953 L4.545275,26.8815701 L4.545275,29.1865794 L4.545275,49.5190654 C4.545275,50.8069159 5.5651,51.8527477 6.82385,51.8527477 L6.86945,51.8527477 C8.12915,51.8527477 9.14945,50.8078879 9.14945,49.5190654 L9.14945,29.1486729 L9.14945,29.1486729 C9.311425,29.0393271 9.501425,28.9737196 9.7109,28.9737196 C9.919425,28.9737196 10.11085,29.041271 10.2733,29.1506168 C10.2733,29.171514 10.27045,29.1914393 10.27045,29.2123364 L10.27045,49.5190654 C10.27045,50.8064299 11.290275,51.8522617 12.549025,51.8522617 L12.59605,51.8522617 C13.855275,51.8522617 14.876525,50.8078879 14.876525,49.5190654 L14.876525,29.2123364 C14.876525,29.2035888 14.874625,29.1958131 14.874625,29.1865794 L14.876525,29.1865794 L14.876525,15.0970093 C14.919275,15.0931215 14.959175,15.0868037 15.003825,15.0868037 C15.10025,15.0868037 15.191925,15.0999252 15.283125,15.1198505 L15.283125,15.1198505 L15.283125,28.4891963 C15.283125,29.4281121 16.0968,30.1911028 17.10095,30.1911028 L17.137525,30.1911028 C18.1412,30.1911028 18.953925,29.4281121 18.953925,28.4891963 L18.953925,15.4371963 L18.953925,11.6023178 L18.953925,11.569271 C18.95155,10.2785047 17.928875,9.23072897 16.6649,9.23072897 Z" id="Shape"></path>
                            <path d="M13.802075,4.23241121 C13.802075,6.54568224 11.97,8.41816822 9.710425,8.41816822 C7.45085,8.41816822 5.6202,6.54519626 5.6202,4.23241121 C5.6202,1.92205607 7.45085,0.0466542056 9.710425,0.0466542056 C11.97,0.0466542056 13.802075,1.92205607 13.802075,4.23241121 Z" id="Shape"></path>
                        </g>
                        <g id="Group" transform="translate(0.000000, 63.000000)" fill="#95C7C9">
                            <path d="M21.6798298,24.7826168 L17.8279574,11.0667664 C17.4633191,9.76676636 16.3155745,8.87158879 15.009617,8.87158879 L13.9077447,8.87158879 L10.9719149,8.87158879 L8.03655319,8.87158879 L6.93374468,8.87158879 C5.62919149,8.87158879 4.48191489,9.76676636 4.1172766,11.0667664 L0.264468085,24.7826168 C0.0121702128,25.6831402 0.606638298,26.5997009 1.5053617,26.6964112 L1.88029787,26.7343178 C2.58195745,26.8077009 3.234,26.3450467 3.41795745,25.6374579 L6.26204255,14.8350654 C6.26204255,14.8350654 6.43617021,14.6761495 6.63697872,14.6858692 L1.79697872,34.7836262 L6.6753617,34.7836262 L6.6753617,49.503028 C6.6753617,50.6786168 7.47859574,51.6306542 8.46906383,51.6306542 L8.5046383,51.6306542 C9.49651064,51.6306542 10.2983404,50.6786168 10.2983404,49.503028 L10.2983404,34.7836262 L10.9714468,34.7836262 L11.6450213,34.7836262 L11.6450213,49.503028 C11.6450213,50.6786168 12.4487234,51.6306542 13.4396596,51.6306542 L13.475234,51.6306542 C14.4671064,51.6306542 15.2689362,50.6786168 15.2689362,49.503028 L15.2689362,34.7836262 L20.1473191,34.7836262 L15.3091915,14.6858692 C15.5085957,14.6756636 15.6831915,14.8350654 15.6831915,14.8350654 L18.5263404,25.6374579 C18.7117021,26.3450467 19.3637447,26.8077009 20.0658723,26.7343178 L20.4398723,26.6964112 C21.3371915,26.5997009 21.934,25.6826542 21.6798298,24.7826168 Z" id="Shape"></path>
                            <ellipse id="Oval" cx="10.9728511" cy="4.17360748" rx="3.85234043" ry="3.99962617"></ellipse>
                        </g>
                    </g>
                </g>
                <g id="Group" transform="translate(0.000000, 129.000000)">
                    <g id="Group-4">
                        <g id="Group" transform="translate(1.000000, 0.000000)" fill="#D3D3D3">
                            <path d="M16.249275,9.23072897 L14.458525,9.23072897 L14.181125,9.23072897 L4.408,9.23072897 L4.129175,9.23072897 L2.3389,9.23072897 C1.076825,9.23072897 0.051775,10.2785047 0.051775,11.569757 L0.051775,11.6028037 L0.051775,15.4376822 L0.051775,28.4896822 C0.051775,29.4285981 0.865925,30.1915888 1.870075,30.1915888 L1.90665,30.1915888 C2.910325,30.1915888 3.724475,29.4285981 3.724475,28.4896822 L3.724475,15.1203364 L3.724475,15.1203364 C3.813775,15.1004112 3.90735,15.0872897 4.0033,15.0872897 C4.046525,15.0872897 4.086425,15.0940935 4.129175,15.0974953 L4.129175,26.8815701 L4.129175,29.1865794 L4.129175,49.5190654 C4.129175,50.8069159 5.149,51.8527477 6.40775,51.8527477 L6.45335,51.8527477 C7.71305,51.8527477 8.73335,50.8078879 8.73335,49.5190654 L8.73335,29.1486729 L8.73335,29.1486729 C8.895325,29.0393271 9.085325,28.9737196 9.2948,28.9737196 C9.503325,28.9737196 9.69475,29.041271 9.8572,29.1506168 C9.8572,29.171514 9.85435,29.1914393 9.85435,29.2123364 L9.85435,49.5190654 C9.85435,50.8064299 10.87465,51.8522617 12.132925,51.8522617 L12.17995,51.8522617 C13.439175,51.8522617 14.460425,50.8078879 14.460425,49.5190654 L14.460425,29.2123364 C14.460425,29.2035888 14.458525,29.1958131 14.458525,29.1865794 L14.460425,29.1865794 L14.460425,15.0970093 C14.503175,15.0931215 14.543075,15.0868037 14.587725,15.0868037 C14.68415,15.0868037 14.775825,15.0999252 14.867025,15.1198505 L14.867025,15.1198505 L14.867025,28.4891963 C14.867025,29.4281121 15.6807,30.1911028 16.68485,30.1911028 L16.721425,30.1911028 C17.7251,30.1911028 18.537825,29.4281121 18.537825,28.4891963 L18.537825,15.4371963 L18.537825,11.6023178 L18.537825,11.569271 C18.535925,10.2785047 17.51325,9.23072897 16.249275,9.23072897 Z" id="Shape"></path>
                            <path d="M13.38645,4.23241121 C13.38645,6.54568224 11.554375,8.41816822 9.2948,8.41816822 C7.03475,8.41816822 5.204575,6.54519626 5.204575,4.23241121 C5.204575,1.92205607 7.035225,0.0466542056 9.2948,0.0466542056 C11.5539,0.0466542056 13.38645,1.92205607 13.38645,4.23241121 Z" id="Shape"></path>
                        </g>
                        <g id="Group" transform="translate(0.000000, 63.000000)" fill="#D3D3D3">
                            <path d="M21.7388085,24.7826168 L17.8869362,11.0667664 C17.5213617,9.76676636 16.3745532,8.87158879 15.0690638,8.87158879 L13.9667234,8.87158879 L11.0308936,8.87158879 L8.09553191,8.87158879 L6.9927234,8.87158879 C5.6886383,8.87158879 4.54089362,9.76676636 4.17578723,11.0667664 L0.323914894,24.7826168 C0.0716170213,25.6831402 0.666085106,26.5997009 1.56434043,26.6964112 L1.93880851,26.7343178 C2.64093617,26.8077009 3.29297872,26.3450467 3.47693617,25.6374579 L6.32148936,14.8350654 C6.32148936,14.8350654 6.49514894,14.6761495 6.69595745,14.6858692 L1.85548936,34.7836262 L6.73387234,34.7836262 L6.73387234,49.503028 C6.73387234,50.6786168 7.53757447,51.6306542 8.52804255,51.6306542 L8.56361702,51.6306542 C9.55548936,51.6306542 10.3573191,50.6786168 10.3573191,49.503028 L10.3573191,34.7836262 L11.0304255,34.7836262 L11.7035319,34.7836262 L11.7035319,49.503028 C11.7035319,50.6786168 12.507234,51.6306542 13.4981702,51.6306542 L13.5337447,51.6306542 C14.525617,51.6306542 15.3274468,50.6786168 15.3274468,49.503028 L15.3274468,34.7836262 L20.2058298,34.7836262 L15.366766,14.6858692 C15.5661702,14.6756636 15.7417021,14.8350654 15.7417021,14.8350654 L18.5839149,25.6374579 C18.7697447,26.3450467 19.4222553,26.8077009 20.1234468,26.7343178 L20.498383,26.6964112 C21.3961702,26.5997009 21.9920426,25.6826542 21.7388085,24.7826168 Z" id="Shape"></path>
                            <ellipse id="Oval" cx="11.0313617" cy="4.17360748" rx="3.8532766" ry="4.00059813"></ellipse>
                        </g>
                        <g id="Group" transform="translate(5.000000, 40.000000)" fill="#ED8080">
                            <path d="M4.51565217,9.33704348 L4.51565217,0.40226087 L0.302173913,0.40226087 L0.302173913,9.33704348 C0.302173913,10.7191304 1.23565217,11.841913 2.38782609,11.841913 L2.42956522,11.841913 C3.58173913,11.841913 4.51565217,10.7201739 4.51565217,9.33704348 Z" id="Shape"></path>
                            <path d="M9.75608696,9.33704348 L9.75608696,0.40226087 L5.54086957,0.40226087 L5.54086957,9.33704348 C5.54086957,10.7191304 6.47434783,11.841913 7.62652174,11.841913 L7.66913043,11.841913 C8.82217391,11.841913 9.75608696,10.7201739 9.75608696,9.33704348 Z" id="Shape"></path>
                        </g>
                        <g id="Group" transform="translate(7.000000, 103.000000)" fill="#95C7C9">
                            <path d="M3.84963158,9.8426087 L3.84963158,0.40226087 L0.182842105,0.40226087 L0.182842105,9.8426087 C0.182842105,10.7102609 0.571263158,11.4553043 1.13826316,11.841913 L2.89657895,11.841913 C3.46168421,11.4553043 3.84963158,10.7102609 3.84963158,9.8426087 Z" id="Shape"></path>
                            <path d="M5.21289474,0.40226087 L5.21289474,9.8426087 C5.21289474,10.7102609 5.60178947,11.4553043 6.16831579,11.841913 L7.92710526,11.841913 C8.49221053,11.4553043 8.88110526,10.7102609 8.88110526,9.8426087 L8.88110526,0.40226087 L5.21289474,0.40226087 Z" id="Shape"></path>
                        </g>
                    </g>
                    <g id="Group-7" transform="translate(60.750000, 0.000000)">
                        <g id="Group" transform="translate(2.000000, 0.000000)" fill="#D3D3D3">
                            <path d="M15.7744615,9.23072897 L14.0344615,9.23072897 L13.7649231,9.23072897 L4.26876923,9.23072897 L3.99784615,9.23072897 L2.25830769,9.23072897 C1.03246154,9.23072897 0.036,10.2785047 0.036,11.569757 L0.036,11.6028037 L0.036,15.4376822 L0.036,28.4896822 C0.036,29.4285981 0.827076923,30.1915888 1.80276923,30.1915888 L1.83876923,30.1915888 C2.81353846,30.1915888 3.60461538,29.4285981 3.60461538,28.4896822 L3.60461538,15.1203364 L3.60461538,15.1203364 C3.69138462,15.1004112 3.78230769,15.0872897 3.876,15.0872897 C3.91753846,15.0872897 3.95630769,15.0940935 3.99784615,15.0974953 L3.99784615,26.8815701 L3.99784615,29.1865794 L3.99784615,49.5190654 C3.99784615,50.8069159 4.98876923,51.8527477 6.21184615,51.8527477 L6.25615385,51.8527477 C7.48015385,51.8527477 8.472,50.8078879 8.472,49.5190654 L8.472,29.1486729 L8.472,29.1486729 C8.62938462,29.0393271 8.81353846,28.9737196 9.01707692,28.9737196 C9.21969231,28.9737196 9.40569231,29.041271 9.56353846,29.1506168 C9.56353846,29.171514 9.56076923,29.1914393 9.56076923,29.2123364 L9.56076923,49.5190654 C9.56076923,50.8064299 10.5521538,51.8522617 11.7747692,51.8522617 L11.8204615,51.8522617 C13.044,51.8522617 14.0363077,50.8078879 14.0363077,49.5190654 L14.0363077,29.2123364 C14.0363077,29.2035888 14.0344615,29.1958131 14.0344615,29.1865794 L14.0363077,29.1865794 L14.0363077,15.0970093 C14.0778462,15.0931215 14.1166154,15.0868037 14.16,15.0868037 C14.2536923,15.0868037 14.3427692,15.0999252 14.4313846,15.1198505 L14.4313846,15.1198505 L14.4313846,28.4891963 C14.4313846,29.4281121 15.2224615,30.1911028 16.1976923,30.1911028 L16.2332308,30.1911028 C17.2084615,30.1911028 17.9981538,29.4281121 17.9981538,28.4891963 L17.9981538,15.4371963 L17.9981538,11.6023178 L17.9981538,11.569271 C17.9963077,10.2785047 17.0026154,9.23072897 15.7744615,9.23072897 Z" id="Shape"></path>
                            <path d="M12.9923077,4.23241121 C12.9923077,6.54568224 11.2116923,8.41816822 9.01615385,8.41816822 C6.82061538,8.41816822 5.04184615,6.54519626 5.04184615,4.23241121 C5.04184615,1.92205607 6.82061538,0.0466542056 9.01615385,0.0466542056 C11.2116923,0.0466542056 12.9923077,1.92205607 12.9923077,4.23241121 Z" id="Shape"></path>
                        </g>
                        <g id="Group" transform="translate(7.000000, 63.000000)" fill="#D3D3D3">
                            <ellipse id="Oval" cx="4.01685106" cy="4.17360748" rx="3.8532766" ry="4.00059813"></ellipse>
                        </g>
                        <g id="Group" transform="translate(6.000000, 30.000000)" fill="#ED8080">
                            <path d="M9.7426087,19.5047111 L9.7426087,0.412622222 L5.5273913,0.412622222 L5.5273913,19.5047111 C5.5273913,20.7997778 6.46130435,21.8518667 7.61304348,21.8518667 L7.65608696,21.8518667 C8.80869565,21.8518667 9.7426087,20.8007556 9.7426087,19.5047111 Z" id="Shape"></path>
                            <path d="M4.50173913,19.5047111 L4.50173913,0.412622222 L0.28826087,0.412622222 L0.28826087,19.5047111 C0.28826087,20.7997778 1.22173913,21.8518667 2.37391304,21.8518667 L2.41565217,21.8518667 C3.56826087,21.8518667 4.50173913,20.8007556 4.50173913,19.5047111 Z" id="Shape"></path>
                        </g>
                        <path d="M21.9398011,88.0006819 L18.0041459,74.2075467 C17.6320546,72.9002216 16.4588668,72 15.1249815,72 L13.9986639,72 L10.9994546,72 L8.00024524,72 L6.8739276,72 C5.54099882,72 4.36828932,72.9002216 3.99524144,74.2075467 L0.0595862875,88.0006819 C-0.198199364,88.9062795 0.40919911,89.8280048 1.32699255,89.92526 L1.71008403,89.9633801 C2.42748381,90.0371768 3.09323079,89.5719157 3.2816678,88.8603398 L6.18761515,77.997079 C6.18761515,77.997079 6.36505203,77.8372677 6.57070663,77.8470421 L1.62447433,98.058044 L6.60896795,98.058044 L6.60896795,112.860385 C6.60896795,114.042598 7.43062982,115 8.44264177,115 L8.47851176,115 C9.4919585,115 10.311229,114.042598 10.311229,112.860385 L10.311229,98.058044 L10.9989763,98.058044 L11.6867235,98.058044 L11.6867235,112.860385 C11.6867235,114.042598 12.5079072,115 13.5203974,115 L13.5567456,115 C14.5701924,115 15.3894629,114.042598 15.3894629,112.860385 L15.3894629,98.058044 L20.3739565,98.058044 L15.4305938,77.8470421 C15.6343354,77.836779 15.8127288,77.997079 15.8127288,77.997079 L18.7177196,88.8603398 C18.9071131,89.5719157 19.5733384,90.0371768 20.2907382,89.9633801 L20.6728731,89.92526 C21.58971,89.8280048 22.1994998,88.9057908 21.9398011,88.0006819 Z" id="Shape" fill="#D3D3D3"></path>
                        <path d="M2,98.6601218 L6.78521693,98.6601218 L6.78521693,113.164877 C6.78521693,113.961278 7.16122121,114.645139 7.71076593,115 L9.41495141,115 C9.96311883,114.645139 10.3395822,113.961278 10.3395822,113.164877 L10.3395822,98.6601218 L10.9997704,98.6601218 L11.6599587,98.6601218 L11.6599587,113.164877 C11.6599587,113.961278 12.0364221,114.645139 12.5859668,115 L14.2906114,115 C14.8383197,114.645139 15.2152422,113.961278 15.2152422,113.164877 L15.2152422,98.6601218 L20,98.6601218 L18.8830056,94 L3.11837172,94 L2,98.6601218 Z" id="Shape" fill="#95C7C9"></path>
                    </g>
                    <g id="Group-6" transform="translate(125.500000, 0.000000)">
                        <g id="Group" transform="translate(1.000000, 0.000000)" fill="#D3D3D3">
                            <path d="M15.7596923,9.23072897 L14.0192308,9.23072897 L13.7496923,9.23072897 L4.25353846,9.23072897 L3.98261538,9.23072897 L2.24353846,9.23072897 C1.01723077,9.23072897 0.0207692308,10.2785047 0.0207692308,11.569757 L0.0207692308,11.6028037 L0.0207692308,15.4376822 L0.0207692308,28.4896822 C0.0207692308,29.4285981 0.811846154,30.1915888 1.78753846,30.1915888 L1.82353846,30.1915888 C2.79876923,30.1915888 3.58984615,29.4285981 3.58984615,28.4896822 L3.58984615,15.1203364 L3.58984615,15.1203364 C3.67615385,15.1004112 3.76707692,15.0872897 3.86076923,15.0872897 C3.90230769,15.0872897 3.94107692,15.0940935 3.98261538,15.0974953 L3.98261538,26.8815701 L3.98261538,29.1865794 L3.98261538,49.5190654 C3.98261538,50.8069159 4.974,51.8527477 6.19661538,51.8527477 L6.24138462,51.8527477 C7.46492308,51.8527477 8.45676923,50.8078879 8.45676923,49.5190654 L8.45676923,29.1486729 L8.45676923,29.1486729 C8.61415385,29.0393271 8.79876923,28.9737196 9.00184615,28.9737196 C9.20492308,28.9737196 9.39046154,29.041271 9.54876923,29.1506168 C9.54876923,29.171514 9.54553846,29.1914393 9.54553846,29.2123364 L9.54553846,49.5190654 C9.54553846,50.8064299 10.5369231,51.8522617 11.76,51.8522617 L11.8052308,51.8522617 C13.0292308,51.8522617 14.0210769,50.8078879 14.0210769,49.5190654 L14.0210769,29.2123364 C14.0210769,29.2035888 14.0192308,29.1958131 14.0192308,29.1865794 L14.0210769,29.1865794 L14.0210769,15.0970093 C14.0626154,15.0931215 14.1013846,15.0868037 14.1452308,15.0868037 C14.2389231,15.0868037 14.328,15.0999252 14.4166154,15.1198505 L14.4166154,15.1198505 L14.4166154,28.4891963 C14.4166154,29.4281121 15.2072308,30.1911028 16.1829231,30.1911028 L16.2184615,30.1911028 C17.1932308,30.1911028 17.9829231,29.4281121 17.9829231,28.4891963 L17.9829231,15.4371963 L17.9829231,11.6023178 L17.9829231,11.569271 C17.982,10.2785047 16.9883077,9.23072897 15.7596923,9.23072897 Z" id="Shape"></path>
                            <path d="M12.978,4.23241121 C12.978,6.54568224 11.1973846,8.41816822 9.00184615,8.41816822 C6.80630769,8.41816822 5.02753846,6.54519626 5.02753846,4.23241121 C5.02753846,1.92205607 6.80630769,0.0466542056 9.00184615,0.0466542056 C11.1973846,0.0466542056 12.978,1.92205607 12.978,4.23241121 Z" id="Shape"></path>
                        </g>
                        <g id="Group" transform="translate(0.000000, 63.000000)" fill="#D3D3D3">
                            <path d="M21.7093191,24.7826168 L17.8574468,11.0667664 C17.4928085,9.76676636 16.3445957,8.87158879 15.0391064,8.87158879 L13.937234,8.87158879 L11.0009362,8.87158879 L8.06604255,8.87158879 L6.96276596,8.87158879 C5.65821277,8.87158879 4.51093617,9.76676636 4.14676596,11.0667664 L0.293489362,24.7826168 C0.0416595745,25.6831402 0.63612766,26.5997009 1.53485106,26.6964112 L1.90978723,26.7343178 C2.61144681,26.8077009 3.26302128,26.3450467 3.44744681,25.6374579 L6.29153191,14.8350654 C6.29153191,14.8350654 6.46519149,14.6761495 6.66646809,14.6858692 L1.82646809,34.7836262 L6.70485106,34.7836262 L6.70485106,49.503028 C6.70485106,50.6786168 7.50808511,51.6306542 8.49855319,51.6306542 L8.53412766,51.6306542 C9.52553191,51.6306542 10.3273617,50.6786168 10.3273617,49.503028 L10.3273617,34.7836262 L11.0004681,34.7836262 L11.6740426,34.7836262 L11.6740426,49.503028 C11.6740426,50.6786168 12.4777447,51.6306542 13.4686809,51.6306542 L13.5037872,51.6306542 C14.4956596,51.6306542 15.2974894,50.6786168 15.2974894,49.503028 L15.2974894,34.7836262 L20.1758723,34.7836262 L15.3377447,14.6858692 C15.537617,14.6756636 15.7122128,14.8350654 15.7122128,14.8350654 L18.5548936,25.6374579 C18.7402553,26.3450467 19.3922979,26.8077009 20.0944255,26.7343178 L20.4684255,26.6964112 C21.3662128,26.5997009 21.9634894,25.6826542 21.7093191,24.7826168 Z" id="Shape"></path>
                            <ellipse id="Oval" cx="11.0023404" cy="4.17360748" rx="3.85234043" ry="3.99962617"></ellipse>
                        </g>
                        <g id="Group" transform="translate(1.000000, 21.000000)" fill="#ED8080">
                            <path d="M14.0366154,28.6026667 L14.0366154,8.97637879 C14.0366154,8.96745455 14.0347692,8.95993939 14.0347692,8.95148485 L14.0366154,8.95148485 L14.0366154,0 L4,0 L4,6.72324242 L4,8.95101515 L4,28.602197 C4,29.8468939 4.99138462,30.8576818 6.214,30.8576818 L6.25876923,30.8576818 C7.48230769,30.8576818 8.47415385,29.8478333 8.47415385,28.602197 L8.47415385,8.91437879 C8.63153846,8.80869697 8.81615385,8.74528788 9.01923077,8.74528788 C9.22230769,8.74528788 9.40784615,8.81057576 9.56615385,8.91625758 C9.56615385,8.93645455 9.56338462,8.95571212 9.56338462,8.97590909 L9.56338462,28.602197 C9.56338462,29.8464242 10.5543077,30.8572121 11.7773846,30.8572121 L11.8226154,30.8572121 C13.0452308,30.8576818 14.0366154,29.8478333 14.0366154,28.6026667 Z" id="Shape"></path>
                            <path d="M14.4675385,0 L14.4675385,8.2774697 C14.4675385,9.18492424 15.2581538,9.92234848 16.2333846,9.92234848 L16.2689231,9.92234848 C17.2441538,9.92234848 18.0338462,9.18492424 18.0338462,8.2774697 L18.0338462,0 L14.4675385,0 Z" id="Shape"></path>
                            <path d="M0,0 L0,8.2774697 C0,9.18492424 0.791076923,9.92234848 1.76676923,9.92234848 L1.80276923,9.92234848 C2.778,9.92234848 3.56907692,9.18492424 3.56907692,8.2774697 L3.56907692,0 L0,0 Z" id="Shape"></path>
                        </g>
                        <g id="Group" transform="translate(0.000000, 83.000000)" fill="#95C7C9">
                            <path d="M15.4724255,29.057803 L15.4724255,14.8316212 L20.3512766,14.8316212 L16.6566809,0 L5.69553191,0 L2,14.8316212 L6.87838298,14.8316212 L6.87838298,29.057803 C6.87838298,29.8389091 7.26174468,30.5096364 7.82157447,30.8576818 L9.55910638,30.8576818 C10.118,30.5096364 10.5018298,29.8389091 10.5018298,29.057803 L10.5018298,14.8316212 L11.1749362,14.8316212 L11.8485106,14.8316212 L11.8485106,29.057803 C11.8485106,29.8389091 12.2318723,30.5096364 12.7921702,30.8576818 L14.5301702,30.8576818 C15.0885957,30.5096364 15.4724255,29.8389091 15.4724255,29.057803 Z" id="Shape"></path>
                            <path d="M18.6317447,5.99098485 C18.8171064,6.67486364 19.4691489,7.12201515 20.1712766,7.05109091 L20.5457447,7.01398485 C21.4425957,6.92098485 22.0389362,6.03419697 21.784766,5.16431818 L20.2840851,0 L17,0 L18.6317447,5.99098485 Z" id="Shape"></path>
                            <path d="M1.30005228,7.01445455 L1.67498845,7.05109091 C2.37664802,7.12201515 3.02822249,6.67486364 3.21264802,5.99098485 L4.84392462,0 L1.55890334,0 L0.0577544047,5.16431818 C-0.193139212,6.03419697 0.401328873,6.92051515 1.30005228,7.01445455 Z" id="Shape"></path>
                        </g>
                    </g>
                    <g id="Group-5" transform="translate(188.250000, 0.000000)">
                        <path d="M18.7453846,9.23072897 L17.0049231,9.23072897 L16.7353846,9.23072897 L7.23923077,9.23072897 L6.96923077,9.23072897 L5.23015385,9.23072897 C4.00384615,9.23072897 3.00738462,10.2785047 3.00738462,11.569757 L3.00738462,11.6028037 L3.00738462,15.4376822 L3.00738462,28.4896822 C3.00738462,29.4285981 3.79892308,30.1915888 4.77415385,30.1915888 L4.81015385,30.1915888 C5.78538462,30.1915888 6.57646154,29.4285981 6.57646154,28.4896822 L6.57646154,15.1203364 L6.57646154,15.1203364 C6.66276923,15.1004112 6.75369231,15.0872897 6.84738462,15.0872897 C6.88892308,15.0872897 6.92769231,15.0940935 6.96923077,15.0974953 L6.96923077,26.8815701 L6.96923077,29.1865794 L6.96923077,49.5190654 C6.96923077,50.8069159 7.96061538,51.8527477 9.18323077,51.8527477 L9.228,51.8527477 C10.4515385,51.8527477 11.4433846,50.8078879 11.4433846,49.5190654 L11.4433846,29.1486729 L11.4433846,29.1486729 C11.6007692,29.0393271 11.7853846,28.9737196 11.9884615,28.9737196 C12.1915385,28.9737196 12.3775385,29.041271 12.5353846,29.1506168 C12.5353846,29.171514 12.5326154,29.1914393 12.5326154,29.2123364 L12.5326154,49.5190654 C12.5326154,50.8064299 13.5235385,51.8522617 14.7466154,51.8522617 L14.7918462,51.8522617 C16.0158462,51.8522617 17.0076923,50.8078879 17.0076923,49.5190654 L17.0076923,29.2123364 C17.0076923,29.2035888 17.0058462,29.1958131 17.0058462,29.1865794 L17.0076923,29.1865794 L17.0076923,15.0970093 C17.0496923,15.0931215 17.0884615,15.0868037 17.1318462,15.0868037 C17.2255385,15.0868037 17.3146154,15.0999252 17.4032308,15.1198505 L17.4032308,15.1198505 L17.4032308,28.4891963 C17.4032308,29.4281121 18.1938462,30.1911028 19.1695385,30.1911028 L19.2050769,30.1911028 C20.1798462,30.1911028 20.9695385,29.4281121 20.9695385,28.4891963 L20.9695385,15.4371963 L20.9695385,11.6023178 L20.9695385,11.569271 C20.9676923,10.2785047 19.9735385,9.23072897 18.7453846,9.23072897 Z" id="Shape" fill="#ED8080"></path>
                        <path d="M15.9636923,4.23241121 C15.9636923,6.54568224 14.1835385,8.41816822 11.9875385,8.41816822 C9.792,8.41816822 8.01369231,6.54519626 8.01369231,4.23241121 C8.01369231,1.92205607 9.79246154,0.0466542056 11.9875385,0.0466542056 C14.1830769,0.0466542056 15.9636923,1.92205607 15.9636923,4.23241121 Z" id="Shape" fill="#D3D3D3"></path>
                        <g id="Group" transform="translate(0.000000, 63.000000)">
                            <path d="M21.6948085,24.7826168 L17.8429362,11.0667664 C17.4782979,9.76676636 16.3300851,8.87158879 15.0245957,8.87158879 L13.9227234,8.87158879 L10.9864255,8.87158879 L8.05153191,8.87158879 L6.94825532,8.87158879 C5.64370213,8.87158879 4.49689362,9.76676636 4.13225532,11.0667664 L0.278978723,24.7826168 C0.0271489362,25.6831402 0.621617021,26.5997009 1.52034043,26.6964112 L1.8952766,26.7343178 C2.59693617,26.8077009 3.24897872,26.3450467 3.43293617,25.6374579 L6.27702128,14.8350654 C6.27702128,14.8350654 6.45114894,14.6761495 6.65195745,14.6858692 L1.81195745,34.7836262 L6.69034043,34.7836262 L6.69034043,49.503028 C6.69034043,50.6786168 7.49357447,51.6306542 8.48404255,51.6306542 L8.51961702,51.6306542 C9.51148936,51.6306542 10.3133191,50.6786168 10.3133191,49.503028 L10.3133191,34.7836262 L10.9864255,34.7836262 L11.66,34.7836262 L11.66,49.503028 C11.66,50.6786168 12.4637021,51.6306542 13.4546383,51.6306542 L13.4902128,51.6306542 C14.481617,51.6306542 15.2839149,50.6786168 15.2839149,49.503028 L15.2839149,34.7836262 L20.1622979,34.7836262 L15.3241702,14.6858692 C15.5235745,14.6756636 15.6981702,14.8350654 15.6981702,14.8350654 L18.5413191,25.6374579 C18.7266809,26.3450467 19.3782553,26.8077009 20.080383,26.7343178 L20.4548511,26.6964112 C21.3517021,26.5997009 21.9489787,25.6826542 21.6948085,24.7826168 Z" id="Shape" fill="#95C7C9"></path>
                            <ellipse id="Oval" fill="#D3D3D3" cx="10.9878298" cy="4.17360748" rx="3.85234043" ry="3.99962617"></ellipse>
                        </g>
                    </g>
                    <g id="Group-8" transform="translate(250.000000, 0.000000)">
                        <g id="Group" transform="translate(2.000000, 0.000000)" fill="#ED8080">
                            <path d="M16.6649,9.23072897 L14.87415,9.23072897 L14.59675,9.23072897 L4.823625,9.23072897 L4.5448,9.23072897 L2.755,9.23072897 C1.492925,9.23072897 0.467875,10.2785047 0.467875,11.569757 L0.467875,11.6028037 L0.467875,15.4376822 L0.467875,28.4896822 C0.467875,29.4285981 1.282025,30.1915888 2.286175,30.1915888 L2.32275,30.1915888 C3.326425,30.1915888 4.140575,29.4285981 4.140575,28.4896822 L4.140575,15.1203364 L4.140575,15.1203364 C4.229875,15.1004112 4.32345,15.0872897 4.4194,15.0872897 C4.462625,15.0872897 4.502525,15.0940935 4.545275,15.0974953 L4.545275,26.8815701 L4.545275,29.1865794 L4.545275,49.5190654 C4.545275,50.8069159 5.5651,51.8527477 6.82385,51.8527477 L6.86945,51.8527477 C8.12915,51.8527477 9.14945,50.8078879 9.14945,49.5190654 L9.14945,29.1486729 L9.14945,29.1486729 C9.311425,29.0393271 9.501425,28.9737196 9.7109,28.9737196 C9.919425,28.9737196 10.11085,29.041271 10.2733,29.1506168 C10.2733,29.171514 10.27045,29.1914393 10.27045,29.2123364 L10.27045,49.5190654 C10.27045,50.8064299 11.290275,51.8522617 12.549025,51.8522617 L12.59605,51.8522617 C13.855275,51.8522617 14.876525,50.8078879 14.876525,49.5190654 L14.876525,29.2123364 C14.876525,29.2035888 14.874625,29.1958131 14.874625,29.1865794 L14.876525,29.1865794 L14.876525,15.0970093 C14.919275,15.0931215 14.959175,15.0868037 15.003825,15.0868037 C15.10025,15.0868037 15.191925,15.0999252 15.283125,15.1198505 L15.283125,15.1198505 L15.283125,28.4891963 C15.283125,29.4281121 16.0968,30.1911028 17.10095,30.1911028 L17.137525,30.1911028 C18.1412,30.1911028 18.953925,29.4281121 18.953925,28.4891963 L18.953925,15.4371963 L18.953925,11.6023178 L18.953925,11.569271 C18.95155,10.2785047 17.928875,9.23072897 16.6649,9.23072897 Z" id="Shape"></path>
                            <path d="M13.802075,4.23241121 C13.802075,6.54568224 11.97,8.41816822 9.710425,8.41816822 C7.45085,8.41816822 5.6202,6.54519626 5.6202,4.23241121 C5.6202,1.92205607 7.45085,0.0466542056 9.710425,0.0466542056 C11.97,0.0466542056 13.802075,1.92205607 13.802075,4.23241121 Z" id="Shape"></path>
                        </g>
                        <g id="Group" transform="translate(0.000000, 63.000000)" fill="#95C7C9">
                            <path d="M21.6798298,24.7826168 L17.8279574,11.0667664 C17.4633191,9.76676636 16.3155745,8.87158879 15.009617,8.87158879 L13.9077447,8.87158879 L10.9719149,8.87158879 L8.03655319,8.87158879 L6.93374468,8.87158879 C5.62919149,8.87158879 4.48191489,9.76676636 4.1172766,11.0667664 L0.264468085,24.7826168 C0.0121702128,25.6831402 0.606638298,26.5997009 1.5053617,26.6964112 L1.88029787,26.7343178 C2.58195745,26.8077009 3.234,26.3450467 3.41795745,25.6374579 L6.26204255,14.8350654 C6.26204255,14.8350654 6.43617021,14.6761495 6.63697872,14.6858692 L1.79697872,34.7836262 L6.6753617,34.7836262 L6.6753617,49.503028 C6.6753617,50.6786168 7.47859574,51.6306542 8.46906383,51.6306542 L8.5046383,51.6306542 C9.49651064,51.6306542 10.2983404,50.6786168 10.2983404,49.503028 L10.2983404,34.7836262 L10.9714468,34.7836262 L11.6450213,34.7836262 L11.6450213,49.503028 C11.6450213,50.6786168 12.4487234,51.6306542 13.4396596,51.6306542 L13.475234,51.6306542 C14.4671064,51.6306542 15.2689362,50.6786168 15.2689362,49.503028 L15.2689362,34.7836262 L20.1473191,34.7836262 L15.3091915,14.6858692 C15.5085957,14.6756636 15.6831915,14.8350654 15.6831915,14.8350654 L18.5263404,25.6374579 C18.7117021,26.3450467 19.3637447,26.8077009 20.0658723,26.7343178 L20.4398723,26.6964112 C21.3371915,26.5997009 21.934,25.6826542 21.6798298,24.7826168 Z" id="Shape"></path>
                            <ellipse id="Oval" cx="10.9728511" cy="4.17360748" rx="3.85234043" ry="3.99962617"></ellipse>
                        </g>
                    </g>
                </g>
            </g>
        </g>
    </g>
</svg>