<?xml version="1.0" encoding="UTF-8"?>
<svg width="581px" height="462px" viewBox="0 0 581 462" version="1.1" xmlns="http://www.w3.org/2000/svg" xmlns:xlink="http://www.w3.org/1999/xlink">
    <!-- Generator: Sketch 52.5 (67469) - http://www.bohemiancoding.com/sketch -->
    <title>kaynaklar</title>
    <desc>Created with Sketch.</desc>
    <defs>
        <linearGradient x1="50%" y1="0%" x2="50%" y2="100%" id="linearGradient-1">
            <stop stop-color="#C5A584" offset="0%"></stop>
            <stop stop-color="#F9CA2A" offset="100%"></stop>
        </linearGradient>
        <linearGradient x1="50%" y1="0%" x2="50%" y2="100%" id="linearGradient-2">
            <stop stop-color="#7677AB" offset="0%"></stop>
            <stop stop-color="#EBF6F9" offset="100%"></stop>
        </linearGradient>
        <path d="M345.294388,474.361557 C563.757972,508.49536 600.418518,293.763514 652.34014,193.964196 C704.261761,94.1648788 512.863529,0 340.81041,0 C168.757291,0 109.061526,89.6681475 29.2806807,193.964196 C-19.2876695,257.456717 -8.13288575,353.635233 67.9678554,387.928392 C106.873154,405.460227 296.840217,466.790844 345.294388,474.361557 Z" id="path-3"></path>
    </defs>
    <g id="Designs" stroke="none" stroke-width="1" fill="none" fill-rule="evenodd">
        <g id="Kaynaklarımız" transform="translate(-387.000000, -191.000000)">
            <g id="kaynaklar" transform="translate(386.000000, 186.000000)">
                <path d="M300.050302,413.82559 C492.160484,443.853867 574,337.429843 574,243.190913 C574,148.951983 461.462996,12 310.164755,12 C158.866515,12 -33.4454073,148.951983 26.1006035,243.190913 C65.5028434,305.549833 99.6769277,342.905505 166.597588,373.073971 C200.809715,388.497121 257.441189,407.165463 300.050302,413.82559 Z" id="Oval" fill="url(#linearGradient-1)"></path>
                <path d="M304.503842,463.803042 C496.527053,493.795087 528.750619,305.118568 574.388232,217.428792 C620.025845,129.739015 451.7923,47 300.562554,47 C149.332808,47 96.8619466,125.787912 26.7368767,217.428792 C-15.9533071,273.217199 -6.1485728,357.725518 60.7417912,387.857583 C94.9384301,403.262124 261.914018,457.150951 304.503842,463.803042 Z" id="Oval" fill="url(#linearGradient-2)"></path>
                <mask id="mask-4" fill="white">
                    <use xlink:href="#path-3"></use>
                </mask>
                <g id="Oval"></g>
                <g id="vektor" mask="url(#mask-4)">
                    <g transform="translate(80.000000, 5.000000)">
                        <path d="M273.115851,390.496094 C258.865835,398.689245 235.761809,398.689245 221.511793,390.496094 C207.261777,382.301296 207.261777,369.015193 221.511793,360.820396 C235.761809,352.627244 258.865835,352.627244 273.114198,360.820396 C287.364214,369.015193 287.364214,382.301296 273.115851,390.496094" id="Fill-22" fill="#C6E0EC"></path>
                        <path d="M159.595084,454.118505 C145.345068,462.315108 122.241042,462.315108 107.991026,454.118505 C93.7410104,445.925192 93.7410104,432.640474 107.991026,424.445516 C122.241042,416.252204 145.345068,416.252204 159.593432,424.445516 C173.843448,432.640474 173.843448,445.925192 159.595084,454.118505" id="Fill-23" fill="#C6E0EC"></path>
                        <path d="M412.312458,320.102175 C398.062402,328.295729 374.959963,328.295729 360.709906,320.102175 C346.45985,311.906976 346.45985,298.621868 360.709906,290.428314 C374.95831,282.233115 398.062402,282.233115 412.312458,290.428314 C426.562514,298.621868 426.562514,311.906976 412.312458,320.102175" id="Fill-25" fill="#C6E0EC"></path>
                        <polyline id="Fill-26" fill="#ED9831" points="213.527157 397.994681 213.527157 406.117021 212.475667 406.117021 212.175719 402.54437 213.527157 397.994681"></polyline>
                        <polyline id="Fill-27" fill="#ED9831" points="222.812976 409.781036 218.385203 409.605853 216.631356 409.535453 213.203456 408.25842 211.772043 404.01638 212.626982 397.994681 211.504976 401.65387 202.296056 405.999055 199.889198 405.527535 190.074492 400.054305 190.074492 403.590703 194.22217 410.686419 191.160673 411.871768 191.054823 411.730967 189.747173 412.143546 186.498403 413.140614 186.498403 416.688472 199.10591 416.593513 206.852476 423.715426 211.514747 415.396705 222.98722 413.328894 222.98722 409.792497 222.812976 409.781036"></polyline>
                        <polyline id="Fill-28" fill="#D6852F" points="224.338658 409.203616 224.338658 412.88067 212.807517 415.037715 208.121406 423.715426 208.121406 416.115384 211.35078 410.160026 219.713108 408.996963 220.945606 408.824468 224.163522 409.179706 224.338658 409.203616"></polyline>
                        <polyline id="Fill-29" fill="#F9CA2A" points="190.070917 400.115936 202.284876 402.572039 212.621394 397.994681 212.456934 405.649282 222.98722 410.070936 210.670677 412.342872 206.842518 419.654255 199.394625 413.402663 186.498403 413.501443 194.213339 407.365373 190.070917 400.115936"></polyline>
                        <path d="M345.968051,6.34740744 L345.104254,9.11686057 L341.521891,9.52287098 L340.985115,9.58723849 C341.325349,11.1683685 341.521891,12.8930875 341.521891,14.8026568 L341.521891,281.021703 L12.9850329,470.564198 L17.1950112,471.363015 L10.4745712,483.279255 L0,478.052284 L0,211.829937 C0,199.378951 7.57102403,184.92597 16.9208423,179.529003 L324.601049,2.02158107 C328.563284,-0.264290557 332.185286,-0.539915511 335.07562,0.833257913 L335.088833,0.820054322 L335.31015,0.924032598 C335.336576,0.950439779 335.376215,0.96364337 335.400989,0.976846961 L341.521891,4.08629255 L345.968051,6.34740744" id="Fill-30" fill="#ACD1D7"></path>
                        <path d="M345.968051,6.33675974 L341.521891,34.9701466 L12.9850329,224.207867 L17.1950112,224.992163 L10.4745712,236.901596 L0,231.683392 L0,211.474595 C0,199.044495 7.57102403,184.615759 16.9208423,179.227845 L324.601049,2.01818989 C328.563284,-0.263847213 332.185286,-0.539009809 335.07562,0.831860133 L335.088833,0.818678691 L335.31015,0.922482545 C335.336576,0.948845428 335.376215,0.96202687 335.400989,0.975208312 L345.968051,6.33675974" id="Fill-31" fill="#4B65A1"></path>
                        <polyline id="Fill-32" fill="#EBF6F9" points="351.373802 41.9654255 351.373802 287.754779 9.4600639 484.632979 9.4600639 238.843625 351.373802 41.9654255"></polyline>
                        <path d="M351.373802,41.4912638 L351.373802,19.7207049 C351.373802,8.15061449 343.225203,3.46159639 333.171738,9.24664157 L27.6621281,185.059274 C17.6103159,190.844319 9.4600639,204.91467 9.4600639,216.483112 L9.4600639,238.255319 L351.373802,41.4912638" id="Fill-33" fill="#26377A"></path>
                        <path d="M32.4345048,198.303416 C32.4345048,201.311861 30.3178843,204.970738 27.7044728,206.476574 C25.0926796,207.979183 22.9744409,206.759019 22.9744409,203.750574 C22.9744409,200.743743 25.0926796,197.084867 27.7044728,195.580644 C30.3178843,194.076421 32.4345048,195.294971 32.4345048,198.303416" id="Fill-34" fill="#6CB644"></path>
                        <path d="M47.3003195,190.180959 C47.3003195,193.1893 45.182443,196.84805 42.5694786,198.35222 C39.958132,199.858005 37.8402556,198.637884 37.8402556,195.627929 C37.8402556,192.621201 39.958132,188.962452 42.5694786,187.458281 C45.182443,185.954111 47.3003195,187.172618 47.3003195,190.180959" id="Fill-35" fill="#F7C823"></path>
                        <path d="M60.8146965,182.058594 C60.8146965,185.068785 58.6964578,188.726209 56.0830463,190.230498 C53.4712531,191.734787 51.3546326,190.516183 51.3546326,187.507606 C51.3546326,184.499028 53.4712531,180.83999 56.0830463,179.335701 C58.6964578,177.831413 60.8146965,179.05163 60.8146965,182.058594" id="Fill-36" fill="#D8232A"></path>
                        <path d="M133.242943,146.19711 L81.6356512,175.659291 C75.3604601,179.242329 70.2747604,188.853031 70.2747604,197.126263 L70.2747604,203.058511 L144.603834,160.621389 L144.603834,154.690786 C144.603834,146.415909 139.516471,142.614072 133.242943,146.19711" id="Fill-37" fill="#4B65A1"></path>
                        <path d="M207.570607,104.231685 L155.966134,133.695511 C149.691083,137.276904 144.603834,146.887606 144.603834,155.162483 L144.603834,161.093085 L218.932907,118.655963 L218.932907,112.725361 C218.932907,104.450484 213.845658,100.648647 207.570607,104.231685" id="Fill-38" fill="#212851"></path>
                        <path d="M281.90109,60.911619 L230.293798,90.37592 C224.018607,93.9590159 218.932907,103.568228 218.932907,111.843238 L218.932907,117.773936 L293.261981,75.3361299 L293.261981,69.4054317 C293.261981,61.1320666 288.176281,57.3301682 281.90109,60.911619" id="Fill-39" fill="#212851"></path>
                        <polyline id="Fill-40" fill="#FFFFFE" points="160.821086 378.62762 24.3258786 457.558511 24.3258786 246.792593 160.821086 167.861702 160.821086 378.62762"></polyline>
                        <polyline id="Fill-41" fill="#D8232A" points="29.7316294 337.077128 29.7316294 251.556144 155.415335 178.691489 155.415335 264.210816 29.7316294 337.077128"></polyline>
                        <polyline id="Fill-42" fill="#57619D" points="37.8402556 323.539894 37.8402556 317.68065 147.306709 254.5 147.306709 260.360886 37.8402556 323.539894"></polyline>
                        <polyline id="Fill-43" fill="#212851" points="58.1118211 312.710106 58.1118211 306.813069 148.658147 254.5 148.658147 260.39869 58.1118211 312.710106"></polyline>
                        <path d="M109.466454,246.169754 C109.466454,256.867114 101.902559,269.873853 92.5734824,275.221719 C83.2444058,280.571213 75.6805112,276.235633 75.6805112,265.538273 C75.6805112,254.840914 83.2444058,241.834175 92.5734824,236.484681 C101.902559,231.136815 109.466454,235.472395 109.466454,246.169754" id="Fill-44" fill="#FFFFFE"></path>
                        <path d="M86.4370133,276.159574 C82.2400114,276.159574 79.7348243,272.546682 79.7348243,266.492827 C79.7348243,256.35061 86.6777716,243.973356 95.2133021,238.902248 C97.4159147,237.59136 99.5599645,236.901596 101.412827,236.901596 C105.609829,236.901596 108.115016,240.514488 108.115016,246.566669 C108.115016,256.71056 101.172069,269.08614 92.6365382,274.158923 C90.4322988,275.468136 88.2898758,276.159574 86.4370133,276.159574" id="Fill-45" fill="#263779"></path>
                        <polyline id="Fill-46" fill="#FFFFFE" points="89.1948882 249.085106 102.709265 251.155389 89.1948882 269.390957 89.1948882 249.085106"></polyline>
                        <polyline id="Fill-47" fill="#FFFFFE" points="59.4632588 313.743648 56.7603834 315.417553 56.7603834 304.907948 59.4632588 303.234043 59.4632588 313.743648"></polyline>
                        <polyline id="Fill-48" fill="#BDD5D6" points="112.169329 302.980863 32.4345048 349.260638 32.4345048 344.098925 112.169329 297.819149 112.169329 302.980863"></polyline>
                        <polyline id="Fill-49" fill="#BDD5D6" points="112.169329 312.45676 32.4345048 358.736702 32.4345048 353.571841 112.169329 307.295213 112.169329 312.45676"></polyline>
                        <polyline id="Fill-50" fill="#BDD5D6" points="112.169329 320.579267 32.4345048 366.859043 32.4345048 361.697329 112.169329 315.417553 112.169329 320.579267"></polyline>
                        <polyline id="Fill-51" fill="#BDD5D5" points="154.063898 296.466521 132.440895 308.648936 132.440895 284.282463 154.063898 272.098404 154.063898 296.466521"></polyline>
                        <path d="M150.009585,298.981418 L135.14377,307.295213 L135.14377,306.587621 C135.14377,301.653824 138.242063,295.922173 142.062514,293.784893 L143.092505,293.209471 C146.912956,291.070579 150.009585,293.340029 150.009585,298.273827 L150.009585,298.981418" id="Fill-52" fill="#FFFFFE"></path>
                        <path d="M147.306709,283.213708 C147.306709,285.887436 145.49094,289.139893 143.251597,290.477583 C141.013853,291.815274 139.198083,290.730571 139.198083,288.056843 C139.198083,285.383115 141.013853,282.130658 143.251597,280.792968 C145.49094,279.456931 147.306709,280.539981 147.306709,283.213708" id="Fill-53" fill="#FFFFFE"></path>
                        <polyline id="Fill-54" fill="#BDD5D6" points="112.169329 336.823948 32.4345048 383.103723 32.4345048 377.94201 112.169329 331.662234 112.169329 336.823948"></polyline>
                        <polyline id="Fill-55" fill="#BDD5D6" points="112.169329 346.301502 32.4345048 392.579787 32.4345048 387.416583 112.169329 341.138298 112.169329 346.301502"></polyline>
                        <polyline id="Fill-56" fill="#BDD5D6" points="112.169329 357.129799 32.4345048 403.409574 32.4345048 398.247861 112.169329 351.968085 112.169329 357.129799"></polyline>
                        <polyline id="Fill-57" fill="#2A3A74" points="154.063898 333.01541 132.440895 345.199468 132.440895 320.831351 154.063898 308.648936 154.063898 333.01541"></polyline>
                        <path d="M150.009585,335.531567 L135.14377,343.845745 L135.14377,343.138121 C135.14377,338.204097 138.242063,332.472182 142.062514,330.334804 L143.092505,329.759356 C146.912956,327.621977 150.009585,329.889919 150.009585,334.823944 L150.009585,335.531567" id="Fill-58" fill="#FFFFFE"></path>
                        <path d="M147.306709,319.765701 C147.306709,322.439293 145.49094,325.691585 143.251597,327.029207 C141.013853,328.365177 139.198083,327.280528 139.198083,324.606936 C139.198083,321.933344 141.013853,318.681053 143.251597,317.34343 C145.49094,316.007461 147.306709,317.090456 147.306709,319.765701" id="Fill-59" fill="#FFFFFE"></path>
                        <polyline id="Fill-60" fill="#BDD5D6" points="112.169329 373.37597 32.4345048 419.654255 32.4345048 414.491051 112.169329 368.212766 112.169329 373.37597"></polyline>
                        <polyline id="Fill-61" fill="#BDD5D6" points="112.169329 382.850543 32.4345048 429.130319 32.4345048 423.966948 112.169329 377.68883 112.169329 382.850543"></polyline>
                        <polyline id="Fill-62" fill="#BDD5D6" points="112.169329 390.972718 32.4345048 437.25266 32.4345048 432.089455 112.169329 385.81117 112.169329 390.972718"></polyline>
                        <polyline id="Fill-63" fill="#505E9B" points="154.063898 368.212218 132.440895 380.396277 132.440895 356.029803 154.063898 343.845745 154.063898 368.212218"></polyline>
                        <path d="M150.009585,370.729474 L135.14377,379.042553 L135.14377,378.336498 C135.14377,373.400557 138.242063,367.668288 142.062514,365.53239 L143.092505,364.955294 C146.912956,362.819395 150.009585,365.087478 150.009585,370.020195 L150.009585,370.729474" id="Fill-64" fill="#FFFFFE"></path>
                        <path d="M147.306709,354.962201 C147.306709,357.635783 145.49094,360.888063 143.251597,362.22568 C141.013853,363.561645 139.198083,362.478654 139.198083,359.805072 C139.198083,357.129836 141.013853,353.877557 143.251597,352.539939 C145.49094,351.203975 147.306709,352.288619 147.306709,354.962201" id="Fill-65" fill="#FFFFFE"></path>
                        <polyline id="Fill-66" fill="#212851" points="345.968051 161.093085 171.632588 261.687562 171.632588 372.273936 345.968051 271.68277 345.968051 161.093085"></polyline>
                        <polyline id="Fill-67" fill="#F9CA2A" points="191.904153 265.329787 195.244196 271.105696 202.715655 268.103886 197.309904 277.132587 198.585932 284.836568 191.904153 284.642099 185.222374 292.404255 186.498403 283.254219 181.092652 280.348812 188.564111 274.888708 191.904153 265.329787"></polyline>
                        <polyline id="Fill-68" fill="#57619D" points="337.859425 195.907903 227.041534 259.914894 227.041534 252.172887 337.859425 188.167553 337.859425 195.907903"></polyline>
                        <polyline id="Fill-69" fill="#F9CA2A" points="262.178914 231.938778 262.178914 239.609043 337.859425 195.836176 337.859425 188.167553 262.178914 231.938778"></polyline>
                        <polyline id="Fill-70" fill="#F9CA2A" points="191.904153 299.172872 195.244196 304.945811 202.715655 301.945479 197.309904 310.974734 198.585932 318.679189 191.904153 318.484707 185.222374 326.24734 186.498403 317.096742 181.092652 314.191157 188.564111 308.730718 191.904153 299.172872"></polyline>
                        <polyline id="Fill-71" fill="#57619D" points="337.859425 231.107846 227.041534 295.111702 227.041534 287.369875 337.859425 223.364362 337.859425 231.107846"></polyline>
                        <polyline id="Fill-72" fill="#F9CA2A" points="262.178914 267.134435 262.178914 274.805851 337.859425 231.035778 337.859425 223.364362 262.178914 267.134435"></polyline>
                        <polyline id="Fill-73" fill="#F9CA2A" points="191.904153 333.015957 195.244196 338.790559 202.715655 335.790226 197.309904 344.819481 198.585932 352.523936 191.904153 352.329455 185.222374 360.090426 186.498403 350.943152 181.092652 348.035904 188.564111 342.573803 191.904153 333.015957"></polyline>
                        <polyline id="Fill-74" fill="#57619D" points="337.859425 263.59573 227.041534 327.601064 227.041534 319.859058 337.859425 255.853723 337.859425 263.59573"></polyline>
                        <polyline id="Fill-75" fill="#F9CA2A" points="262.178914 299.625193 262.178914 307.295213 337.859425 263.523743 337.859425 255.853723 262.178914 299.625193"></polyline>
                        <polyline id="Fill-76" fill="#273576" points="281.099042 420.529027 274.339527 420.529027 249.675591 406.117021 207.665463 430.665454 200.01278 431.18723 200.01278 435.137114 231.43623 453.49734 266.471761 433.025081 280.227217 432.232446 280.227217 428.282563 276.097953 427.400195 281.099042 424.47891 281.099042 420.529027"></polyline>
                        <polyline id="Fill-77" fill="#4B65A1" points="249.675591 400.702128 200.01278 429.721576 231.43623 448.082447 266.471761 427.609469 280.227217 426.816806 274.029217 423.194153 281.099042 419.062998 249.675591 400.702128"></polyline>
                        <polyline id="Fill-78" fill="#FFFFFE" points="254.070288 409.148816 213.802854 431.837766 210.824281 430.159695 251.091715 407.470745 254.070288 409.148816"></polyline>
                        <polyline id="Fill-79" fill="#FFFFFE" points="262.178914 414.563597 221.91148 437.25266 218.932907 435.573073 259.200341 412.885638 262.178914 414.563597"></polyline>
                        <polyline id="Fill-80" fill="#FFFFFE" points="268.936102 418.624879 228.668668 441.31383 225.690096 439.634131 265.95753 416.946809 268.936102 418.624879"></polyline>
                        <path d="M132.440895,429.563429 L133.235125,426.02174 C133.235125,426.02174 140.142823,424.281933 141.333357,419.883272 L150.068272,416.946809 C150.068272,416.946809 152.496442,420.541951 152.71246,424.757836 L149.353627,427.708094 L139.348592,431.837766 L133.870185,431.837766 L132.440895,429.563429" id="Fill-81" fill="#EFA67F"></path>
                        <path d="M124.332268,430.075774 C127.83999,432.030198 131.26531,434.027649 135.109101,435.421065 C137.996387,436.46861 141.211664,435.758662 143.438122,433.637095 C145.850388,431.338455 149.348415,428.617817 152.528146,428.43247 C152.528146,428.43247 153.576747,422.526172 150.671688,422.363993 C147.768244,422.203469 142.064763,430.535833 138.261365,429.605786 C134.459583,428.675739 132.926267,426.248017 132.926267,426.248017 C132.926267,426.248017 127.962785,425.384165 124.332268,430.075774" id="Fill-82" fill="#AC3D68"></path>
                        <polyline id="Fill-83" fill="#AC3D68" points="150.618596 427.776596 151.361022 428.897267 150.9905 438.606383 149.537446 438.606383 148.658147 428.32347 150.618596 427.776596"></polyline>
                        <path d="M112.169329,436.332046 L112.963624,432.790357 C112.963624,432.790357 119.871874,431.05055 121.062504,426.650165 L129.798119,423.715426 C129.798119,423.715426 132.226484,427.310568 132.440895,431.524729 L129.083417,434.474987 L119.07758,438.606383 L113.598734,438.606383 L112.169329,436.332046" id="Fill-84" fill="#EFA67F"></path>
                        <path d="M116.791017,245.223608 L117.57508,243.860009 L113.880845,241.357766 C113.196193,240.892447 112.299892,240.833897 111.555914,241.205227 L109.330394,242.308433 C108.583209,242.681304 108.115016,243.419343 108.115016,244.226717 L108.115016,246.37766 L113.550544,243.860009 L116.791017,245.223608" id="Fill-85" fill="#EFA67F"></path>
                        <path d="M101.17381,251.792553 L98.6549521,251.446376 L99.7107608,249.251805 L118.019824,239.785932 C118.760566,239.403232 119.687331,239.662071 120.09122,240.363952 C120.495109,241.064246 120.221939,241.942392 119.482873,242.325092 L101.17381,251.792553" id="Fill-86" fill="#AC3D68"></path>
                        <path d="M117.57508,254.501694 L116.311562,250.691276 L117.57508,243.670213 L111.574214,246.963878 C111.574214,246.963878 110.214669,246.638577 109.660406,245.720282 C109.106143,244.803681 106.098971,242.794274 104.17674,244.451272 C103.408521,245.500027 106.70209,247.045203 106.81328,247.819485 C106.922784,248.593767 106.297764,252.248312 109.941749,253.319092 L111.424276,257.207447 L117.57508,254.501694" id="Fill-87" fill="#EFA67F"></path>
                        <path d="M121.107831,253.237699 L129.232492,274.487973 L147.889361,285.003402 C150.756888,286.620145 152.061793,290.082944 150.986878,293.220746 C149.61999,297.199913 145.056088,298.996478 141.389306,296.996996 L119.194515,284.894519 L109.466454,259.889442 C109.466454,259.889442 111.219919,252.22971 121.107831,253.237699" id="Fill-88" fill="#5C5C99"></path>
                        <path d="M105.412141,436.842737 C108.918247,438.798815 112.343567,440.796266 116.187358,442.189682 C119.07626,443.237227 122.289921,442.527279 124.517995,440.405712 C126.93026,438.107072 130.426672,435.38478 133.608019,435.201087 C133.608019,435.201087 134.656619,429.294789 131.75156,429.13261 C128.848116,428.972086 123.144635,437.304451 119.341237,436.374403 C115.537839,435.444356 114.00614,433.016634 114.00614,433.016634 C114.00614,433.016634 109.041041,432.151127 105.412141,436.842737" id="Fill-89" fill="#AC3D68"></path>
                        <polyline id="Fill-90" fill="#AC3D68" points="133.048523 433.191489 133.792332 434.31216 133.420428 444.021277 131.967373 444.021277 131.089457 433.736681 133.048523 433.191489"></polyline>
                        <path d="M156.535474,352.103414 C155.426067,361.290015 151.410304,355.640272 151.766151,385.457994 C151.804796,401.573276 150.695389,414.81754 153.054287,421.510541 C153.054287,421.510541 151.448948,422.776294 148.974117,423.808015 C146.808439,424.707887 143.977761,425.413281 140.994116,424.890828 C138.891234,424.526594 136.723946,423.545965 134.646827,421.588002 C134.646827,421.588002 136.532336,394.642947 136.226404,383.043503 C136.37937,374.183229 132.440895,348.555019 132.440895,348.555019 L144.947083,336.171072 L146.769795,334.369681 L150.746914,335.780469 L154.482508,337.112147 C154.482508,337.112147 157.63039,342.916813 156.535474,352.103414" id="Fill-91" fill="#AC3D68"></path>
                        <path d="M142.75654,364.421581 C138.813777,377.850466 137.11184,392.59879 137.800801,407.122529 C138.015674,411.397908 138.489761,415.896221 140.365643,419.230323 C141.337691,420.931227 142.770182,422.186263 144.267477,422.63048 C143.457437,423.099467 142.512675,423.505702 141.499699,423.715426 C139.272515,423.350474 136.977118,422.367913 134.77722,420.406094 C134.77722,420.406094 136.774182,393.407958 136.450166,381.785665 C136.612174,372.907936 132.440895,347.22924 132.440895,347.22924 L142.688326,333.015957 L145.537961,334.429524 C145.590827,334.559982 145.645398,334.69044 145.686326,334.820897 C147.117112,338.285457 147.562208,342.717716 147.171683,346.758601 C146.576517,352.967727 144.456771,358.630251 142.75654,364.421581" id="Fill-92" fill="#752744"></path>
                        <path d="M141.784502,352.687599 C140.645815,361.874204 132.194152,358.349897 132.56481,388.172985 C132.616569,404.289519 131.454507,417.539463 133.898844,424.233668 C133.898844,424.233668 129.616245,427.497526 124.261745,427.757975 C121.261421,427.912926 117.930511,427.12993 114.823332,424.311143 C114.823332,424.311143 116.780137,397.359591 116.44955,385.75806 C116.608165,376.883005 110.817891,344.804888 110.817891,344.804888 L127.382281,337.077128 L131.479551,338.486521 L135.379805,339.818438 C135.379805,339.818438 142.91985,343.499345 141.784502,352.687599" id="Fill-93" fill="#AC3D68"></path>
                        <path d="M117.506321,405.309887 C117.338008,409.838077 117.171328,414.45693 118.34789,418.83017 C119.266263,422.301728 121.181445,425.643061 123.97578,427.757975 C121.039277,427.912926 117.779218,427.12993 114.738132,424.311143 C114.738132,424.311143 116.653314,397.359591 116.329759,385.75806 C116.485,376.883005 110.817891,344.804888 110.817891,344.804888 L127.02994,337.077128 L131.040056,338.486521 C132.255837,340.57506 132.773852,343.027899 132.218253,345.390074 C131.105421,350.101239 126.601802,353.051898 123.71759,356.91413 C119.25319,362.906111 118.80054,370.905859 118.516204,378.396248 C118.179576,387.363614 117.842949,396.34252 117.506321,405.309887" id="Fill-94" fill="#752744"></path>
                        <path d="M154.063898,336.402426 C154.063898,336.402426 152.941591,347.122611 134.952104,351.593241 C131.661741,352.41108 127.806153,353.01738 123.292492,353.307205 C122.95694,353.335521 122.608357,353.32053 122.259774,353.280555 C120.210628,352.99073 113.374166,351.553266 109.466454,344.550833 C109.466454,344.550833 112.975088,330.372738 112.020557,321.418152 C111.724098,318.636501 111.196337,315.959786 110.719072,313.427983 C109.622827,307.796388 108.718792,302.917671 110.911281,299.434777 C110.911281,299.434777 124.826909,285.323309 144.430628,284.282272 C144.430628,284.282272 153.058871,283.952471 148.543582,303.339083 C147.061289,314.575623 147.538555,328.752052 154.063898,336.402426" id="Fill-95" fill="#7677AB"></path>
                        <path d="M136.495208,349.590105 C136.15284,349.815266 135.823768,350.027084 135.469767,350.237234 C132.112571,351.056154 128.178668,351.663255 123.573326,351.953462 C123.230958,351.981816 122.875295,351.966805 122.519632,351.926777 C120.428863,351.636569 113.45354,350.197206 109.466454,343.185522 C109.466454,343.185522 113.046355,328.988697 112.072436,320.022281 C111.769956,317.236955 111.231475,314.556704 110.744515,312.021556 C112.928355,306.831176 115.12549,301.655806 117.322625,296.465426 C121.151823,301.192141 123.428734,307.188098 123.717918,313.275787 C123.940623,318.307721 122.863661,323.284616 122.323518,328.289864 C121.783375,333.281769 121.836559,338.575557 124.16499,343.040418 C126.481788,347.503612 131.625611,350.804307 136.495208,349.590105" id="Fill-96" fill="#5C5C99"></path>
                        <path d="M89.8833537,341.250921 C89.8833537,341.250921 80.0159267,340.653836 79.9543465,342.209269 C79.8943867,343.761357 83.0835962,344.139344 83.0835962,344.139344 C83.0835962,344.139344 75.3374472,346.684902 75.692344,347.887436 C75.9451472,348.747105 79.6140345,347.947646 81.3674515,347.591402 C79.6788558,348.004511 76.2498075,349.173595 76.4766821,350.300866 C76.7959272,351.889749 83.1046631,349.988107 83.1046631,349.988107 C83.1046631,349.988107 77.5024797,351.720826 77.9384031,352.854787 C78.3759471,353.987075 84.5582814,351.762638 84.5582814,351.762638 C84.5582814,351.762638 79.7939137,353.575638 80.1763595,354.468757 C80.5571848,355.361877 88.8089402,353.175908 89.6499969,351.463259 C90.4926742,349.748938 91.5200923,345.947326 93.2492013,345.487386 L89.8833537,341.250921" id="Fill-97" fill="#EFA67F"></path>
                        <path d="M87.8434505,339.084784 L105.453116,324.465977 L109.184233,303.429635 C109.757478,300.19478 112.635433,297.830596 116.007853,297.819183 C120.288749,297.806139 123.563952,301.523614 122.893491,305.634033 L118.842228,330.531331 L98.1819636,347.887699 C98.1819636,347.887699 90.2420258,348.740435 87.8434505,339.084784" id="Fill-98" fill="#7677AB"></path>
                        <path d="M137.846645,284.281915 L137.846645,291.795679 C137.846645,294.412079 125.683706,294.412079 125.683706,291.795679 L125.683706,284.281915 L137.846645,284.281915" id="Fill-99" fill="#EFA67F"></path>
                        <path d="M137.846645,284.281915 L137.846645,286.143995 C135.098825,288.351804 131.440877,289.696809 127.395863,289.696809 C126.817007,289.696809 126.236408,289.672547 125.683706,289.613409 L125.683706,284.281915 L137.846645,284.281915" id="Fill-100" fill="#BE7756"></path>
                        <path d="M144.603834,272.098404 C144.603834,280.322171 137.9479,286.989362 129.738019,286.989362 C121.528138,286.989362 114.872204,280.322171 114.872204,272.098404 C114.872204,263.874638 121.528138,257.207447 129.738019,257.207447 C137.9479,257.207447 144.603834,263.874638 144.603834,272.098404" id="Fill-101" fill="#EFA67F"></path>
                        <path d="M151.310977,269.524579 C151.297887,269.875011 151.258617,270.212344 151.220983,270.548039 C149.756526,282.554459 142.139714,287.04131 136.528963,286.988909 C131.062203,286.651576 130.932938,282.904892 131.281463,280.843233 C131.425454,280.039202 131.631623,279.49554 131.631623,279.49554 C124.080262,279.49554 124.364972,272.727601 124.364972,272.727601 C123.443755,272.637536 122.615805,272.508171 121.89094,272.364067 C118.003175,271.586237 115.476783,267.826453 116.422544,264.027368 C116.577989,263.378903 116.785795,262.732076 117.057414,262.070511 C117.135955,261.862544 117.22595,261.667677 117.330671,261.47281 C118.482601,258.867489 120.284128,256.715766 122.49963,255.107705 C126.256494,252.386118 131.152198,251.205454 136.011903,252.073349 C142.748405,253.267113 147.709559,256.858231 150.041236,261.901845 C151.142442,264.287736 151.505693,266.919258 151.310977,269.524579" id="Fill-102" fill="#603926"></path>
                        <path d="M150.009585,269.191678 C149.996569,269.54879 149.957524,269.892553 149.920105,270.234647 C148.464025,282.469924 140.89078,287.0423 135.312122,286.9889 C129.876632,286.645137 129.748106,282.827037 130.094637,280.72608 C131.11308,280.370636 132.297467,280.315567 133.392374,280.197086 C135.144551,280.000174 137.20584,279.167467 137.425472,277.383573 C137.669508,275.349366 135.325137,274.027716 133.34194,273.817454 C131.357115,273.605522 129.103851,273.789085 127.634756,272.402353 C126.539849,271.372734 126.154272,269.667272 124.917824,268.822884 C124.079968,268.24049 123.011091,268.188759 122.031694,267.936778 C118.940574,267.170821 116.493708,264.225477 116.223642,260.986432 C117.368984,258.331451 119.160206,256.138713 121.363036,254.5 C121.839719,259.230907 124.234524,263.736533 127.854388,266.695227 C131.872844,269.984334 137.360396,271.319334 142.397295,270.234647 C144.123441,269.865853 145.810542,269.218378 147.575734,269.046497 C148.38756,268.968065 149.223789,268.993097 150.009585,269.191678" id="Fill-103" fill="#4E3022"></path>
                        <path d="M152.71246,272.099203 C152.71246,273.593132 151.50197,274.805851 150.009585,274.805851 C148.517199,274.805851 147.306709,273.593132 147.306709,272.099203 C147.306709,270.602079 148.517199,269.390957 150.009585,269.390957 C151.50197,269.390957 152.71246,270.602079 152.71246,272.099203" id="Fill-104" fill="#AC3D68"></path>
                        <path d="M153.934469,300.526596 C153.934469,300.526596 152.607945,299.96587 150.828624,298.74908 C147.149236,296.268638 141.546304,291.008808 141.918603,282.308678 C142.037671,281.171068 142.210405,280.133645 142.450219,279.212569 C142.835934,277.651587 143.644259,276.373392 144.720907,275.439388 C148.078307,272.470937 153.921053,272.689087 156.523792,277.037536 C157.147645,278.074959 157.625596,279.35477 157.878826,280.927063 C159.299265,288.948506 153.934469,300.526596 153.934469,300.526596" id="Fill-105" fill="#4E3022"></path>
                        <path d="M150.213109,300.526596 C146.787395,297.937269 141.570755,292.446547 141.917386,283.364505 C142.028246,282.176957 142.18907,281.093994 142.41235,280.132486 C142.771472,278.502981 143.524068,277.168677 144.526487,276.193673 C147.07157,275.940644 149.730636,277.087707 151.226458,279.906447 C151.807299,280.987722 152.252298,282.323714 152.48807,283.965026 C153.340595,289.349476 151.58558,296.265593 150.213109,300.526596" id="Fill-106" fill="#603926"></path>
                        <path d="M133.792332,278.19016 C133.792332,279.311421 132.884544,280.220745 131.765176,280.220745 C130.645808,280.220745 129.738019,279.311421 129.738019,278.19016 C129.738019,277.068899 130.645808,276.159574 131.765176,276.159574 C132.884544,276.159574 133.792332,277.068899 133.792332,278.19016" id="Fill-107" fill="#EFA67F"></path>
                        <polyline id="Fill-108" fill="#AAC5D1" points="324.345048 290.717424 322.587347 289.696809 289.207668 308.835821 289.207668 338.762308 290.965368 339.784574 292.829495 336.684745 322.587347 319.623295 322.587347 292.737185 322.698763 292.785078 324.345048 290.717424"></polyline>
                        <polyline id="Fill-109" fill="#C8E6F0" points="324.345048 291.050532 324.345048 320.773853 290.559105 339.784574 290.559105 310.059613 324.345048 291.050532"></polyline>
                        <polyline id="Fill-110" fill="#C8E6F0" points="324.345048 291.050532 324.345048 320.773853 290.559105 339.784574 290.559105 310.059613 324.345048 291.050532"></polyline>
                        <path d="M314.884984,312.304561 C314.884984,317.986251 310.953414,324.896054 306.100639,327.737734 C301.249509,330.579413 297.316294,328.275033 297.316294,322.593343 C297.316294,316.909984 301.249509,310.000181 306.100639,307.158502 C310.953414,304.316823 314.884984,306.621203 314.884984,312.304561" id="Fill-111" fill="#F9CA2A"></path>
                        <path d="M302.238707,326.24734 C300.307337,326.24734 300.019169,323.935117 300.019169,322.555402 C300.019169,317.838202 303.391378,311.862198 307.382013,309.50691 C308.3307,308.945418 309.222724,308.648936 309.960952,308.648936 C311.893941,308.648936 312.182109,310.961159 312.182109,312.342531 C312.182109,317.056419 308.8099,323.032423 304.817646,325.38771 C303.870578,325.949203 302.976935,326.24734 302.238707,326.24734" id="Fill-112" fill="#ED9831"></path>
                        <path d="M317.907194,298.893969 C317.840995,298.931875 317.776301,298.977361 317.713111,299.027396 C317.714615,299.021332 317.714615,299.01375 317.714615,299.006169 C317.714615,297.946335 316.975895,297.515729 316.065658,298.046405 C315.373578,298.449718 314.7823,299.289702 314.537063,300.13575 C313.957822,300.657328 313.533546,301.518539 313.533546,302.250871 C313.533546,303.130276 314.144383,303.485071 314.898149,303.045368 L317.907194,301.295655 C318.477409,300.963604 318.939297,300.158493 318.939297,299.494391 C318.939297,298.831805 318.477409,298.563434 317.907194,298.893969" id="Fill-113" fill="#FFFFFE"></path>
                        <path d="M298.472953,315.674441 C298.373419,315.734988 298.2756,315.802455 298.181214,315.878571 C298.18293,315.866462 298.18293,315.854353 298.18293,315.843973 C298.18293,314.254181 297.076038,313.608922 295.710014,314.404683 C294.671766,315.008424 293.784537,316.269532 293.417289,317.539291 C292.548937,318.321213 291.910543,319.61346 291.910543,320.711956 C291.910543,322.028422 292.828663,322.562966 293.95958,321.903868 L298.472953,319.277856 C299.327576,318.77964 300.019169,317.570429 300.019169,316.575728 C300.019169,315.582756 299.327576,315.177956 298.472953,315.674441" id="Fill-114" fill="#FFFFFE"></path>
                        <path d="M324.345048,305.941489 L324.345048,320.618127 L290.559105,339.784574 L290.559105,326.080316 C292.503148,324.534101 294.563328,323.490613 296.504004,322.825824 C300.607533,321.423481 304.610072,321.243227 308.760729,318.952845 C313.049404,316.588046 317.195011,312.137924 321.386064,308.407164 C322.357244,307.54393 323.348621,306.705501 324.345048,305.941489" id="Fill-115" fill="#55619E"></path>
                        <polyline id="Fill-116" fill="#AAC5D1" points="327.047923 292.072799 325.291803 291.050532 291.910543 310.189545 291.910543 340.116031 293.668327 341.138298 295.534205 338.04012 325.291803 320.977018 325.291803 294.090908 325.403223 294.140453 327.047923 292.072799"></polyline>
                        <polyline id="Fill-117" fill="#C8E6F0" points="327.047923 292.404255 327.047923 322.128577 293.261981 341.138298 293.261981 311.412336 327.047923 292.404255"></polyline>
                        <polyline id="Fill-118" fill="#C8E6F0" points="327.047923 292.404255 327.047923 322.128577 293.261981 341.138298 293.261981 311.412336 327.047923 292.404255"></polyline>
                        <path d="M320.290735,313.657107 C320.290735,319.339199 316.356243,326.251159 311.505567,329.091371 C306.654892,331.933251 302.722045,329.628708 302.722045,323.946616 C302.722045,318.264524 306.654892,311.352564 311.505567,308.512352 C316.356243,305.670472 320.290735,307.975015 320.290735,313.657107" id="Fill-119" fill="#F9CA2A"></path>
                        <path d="M306.294344,327.601064 C304.36323,327.601064 304.073482,325.288841 304.073482,323.909126 C304.073482,319.191925 307.445242,313.217577 311.436965,310.860634 C312.385526,310.299141 313.277431,310.00266 314.01556,310.00266 C315.946674,310.00266 316.236422,312.316539 316.236422,313.696254 C316.236422,318.410142 312.864662,324.387802 308.872939,326.74309 C307.924378,327.304582 307.034091,327.601064 306.294344,327.601064" id="Fill-120" fill="#ED9831"></path>
                        <path d="M323.313232,300.247152 C323.247052,300.286578 323.182375,300.33207 323.120707,300.382111 C323.120707,300.374529 323.120707,300.366947 323.120707,300.359365 C323.120707,299.299407 322.382192,298.870269 321.472209,299.399489 C320.780321,299.802849 320.187704,300.644447 319.944039,301.489077 C319.364959,302.010715 318.939297,302.872026 318.939297,303.605959 C318.939297,304.48395 319.551468,304.838786 320.306528,304.399032 L323.313232,302.649116 C323.883288,302.317027 324.345048,301.511823 324.345048,300.847643 C324.345048,300.18498 323.883288,299.916579 323.313232,300.247152" id="Fill-121" fill="#FFFFFE"></path>
                        <path d="M302.525222,317.029584 C302.427383,317.088401 302.329544,317.155868 302.235138,317.231984 C302.235138,317.219875 302.236855,317.209495 302.236855,317.197386 C302.236855,315.609323 301.129728,314.962335 299.763415,315.758096 C298.724947,316.361836 297.83753,317.624675 297.470204,318.892703 C296.601668,319.674625 295.964856,320.966872 295.964856,322.065368 C295.964856,323.383564 296.881454,323.916378 298.014327,323.25728 L302.525222,320.631268 C303.380027,320.134782 304.073482,318.923842 304.073482,317.92914 C304.073482,316.936168 303.380027,316.533098 302.525222,317.029584" id="Fill-122" fill="#FFFFFE"></path>
                        <path d="M327.047923,307.295213 L327.047923,321.972567 L293.261981,341.138298 L293.261981,327.43337 C295.20612,325.88708 297.266403,324.84354 299.207176,324.180372 C303.309225,322.776307 307.31533,322.597698 311.464511,320.30555 C315.7534,317.940636 319.899214,313.49195 324.092158,309.759355 C325.061703,308.896078 326.05313,308.059262 327.047923,307.295213" id="Fill-123" fill="#55619E"></path>
                        <polyline id="Fill-124" fill="#AAC5D1" points="331.102236 293.426522 329.344536 292.404255 295.964856 311.54492 295.964856 341.471406 297.722557 342.492021 299.586684 339.393843 329.344536 322.332393 329.344536 295.446283 329.455951 295.494176 331.102236 293.426522"></polyline>
                        <polyline id="Fill-125" fill="#C8E6F0" points="331.102236 292.404255 331.102236 322.128577 297.316294 341.138298 297.316294 311.413977 331.102236 292.404255"></polyline>
                        <polyline id="Fill-126" fill="#C8E6F0" points="331.102236 292.404255 331.102236 322.128577 297.316294 341.138298 297.316294 311.413977 331.102236 292.404255"></polyline>
                        <path d="M322.99361,315.011396 C322.99361,320.694861 319.060395,327.603125 314.209265,330.444858 C309.358135,333.28659 305.42492,330.983836 305.42492,325.30037 C305.42492,319.618574 309.358135,312.706972 314.209265,309.86524 C319.060395,307.025175 322.99361,309.32793 322.99361,315.011396" id="Fill-127" fill="#F9CA2A"></path>
                        <path d="M311.698771,327.601064 C309.767401,327.601064 309.479233,325.288623 309.479233,323.908778 C309.479233,319.19279 312.851442,313.216224 316.842077,310.859058 C317.790764,310.297512 318.682788,310.00266 319.421016,310.00266 C321.354005,310.00266 321.642173,312.3151 321.642173,313.694945 C321.642173,318.410933 318.269964,324.385843 314.277709,326.743009 C313.329023,327.304555 312.436998,327.601064 311.698771,327.601064" id="Fill-128" fill="#ED9831"></path>
                        <path d="M326.016108,301.600234 C325.949927,301.639658 325.885251,301.685147 325.822078,301.735185 C325.822078,301.727604 325.823582,301.720022 325.823582,301.713957 C325.823582,300.652545 325.085067,300.223432 324.175084,300.754137 C323.483196,301.155958 322.890579,301.995989 322.646914,302.842086 C322.067834,303.363694 321.642173,304.22647 321.642173,304.957328 C321.642173,305.835267 322.254343,306.193114 323.007899,305.753387 L326.016108,304.002057 C326.586163,303.671503 327.047923,302.863314 327.047923,302.202206 C327.047923,301.538066 326.586163,301.26968 326.016108,301.600234" id="Fill-129" fill="#FFFFFE"></path>
                        <path d="M306.579863,317.029252 C306.482045,317.086345 306.384226,317.155549 306.28984,317.231672 C306.28984,317.221292 306.291556,317.209181 306.291556,317.198801 C306.291556,315.607121 305.184665,314.963529 303.81864,315.757639 C302.780393,316.361439 301.893163,317.622672 301.525915,318.890825 C300.659279,319.674555 300.019169,320.968659 300.019169,322.065534 C300.019169,323.38213 300.937289,323.916727 302.068206,323.257564 L306.579863,320.631292 C307.434487,320.134758 308.127796,318.925427 308.127796,317.930627 C308.127796,316.935828 307.434487,316.532718 306.579863,317.029252" id="Fill-130" fill="#FFFFFE"></path>
                        <path d="M331.102236,308.648936 L331.102236,323.327227 L297.316294,342.492021 L297.316294,328.789417 C299.260336,327.241548 301.320516,326.19806 303.261192,325.534924 C307.363038,324.130928 311.36726,323.952328 315.516234,321.660292 C319.806593,319.297147 323.9522,314.847025 328.143252,311.112958 C329.112749,310.251377 330.105809,309.414602 331.102236,308.648936" id="Fill-131" fill="#55619E"></path>
                        <polyline id="Fill-132" fill="#4B65A1" points="368.942492 46.0265957 194.607029 146.100307 194.607029 231.486702 368.942492 131.412991 368.942492 46.0265957"></polyline>
                        <path d="M225.484109,217.949468 C225.484109,217.949468 221.856151,217.911257 220.284345,215.210974 L225.690096,212.534574 L225.484109,217.949468" id="Fill-133" fill="#EFA67F"></path>
                        <path d="M225.983944,215.242021 C225.983944,215.242021 224.520826,210.80978 228.124206,208.972547 C228.124206,208.972547 227.334779,204.757523 228.799624,204.432525 C230.262742,204.109186 231.95215,207.674213 230.601314,213.404788 L225.983944,215.242021" id="Fill-134" fill="#EFA67F"></path>
                        <path d="M203.432232,233.944391 L204.067093,227.851815 C204.067093,227.851815 201.207783,220.691892 199.303201,221.226386 C197.398618,221.762519 199.303201,226.891038 199.303201,226.891038 C199.303201,226.891038 196.974836,223.684074 195.070254,223.898856 L195.070254,219.303191 L193.871974,220.309876 C193.401105,220.708288 193.060132,221.237863 192.899387,221.836299 C192.391173,223.713586 191.400725,227.901002 192.212568,229.456937 C193.271211,231.486702 197.986392,235.547872 197.986392,235.547872 L203.432232,233.944391" id="Fill-135" fill="#EFA67F"></path>
                        <path d="M251.041947,372.698041 C251.041947,372.698041 246.896332,372.148632 244.189843,372.950255 L241.910255,372.273936 L241.910255,375.13022 C241.708477,378.105383 252.067512,382.304666 255.731195,383.694254 C256.5283,383.997874 257.415455,383.983416 258.202555,383.652486 C258.98632,383.321555 259.903491,383.64124 260.285368,384.380212 C260.473805,384.744878 260.802319,385.027615 261.204207,385.152918 C265.168056,386.389892 267.62274,385.649314 268.963478,384.839659 C269.798938,384.336837 270.28754,383.438827 270.28754,382.487803 L270.28754,372.698041 L251.041947,372.698041" id="Fill-136" fill="#38231A"></path>
                        <path d="M230.77035,382.175712 C230.77035,382.175712 226.624728,381.624696 223.918234,382.427926 L221.638642,381.75 L221.638642,384.606284 C221.438532,387.581446 231.795916,391.78073 235.459605,393.170317 C236.256712,393.473938 237.145536,393.45948 237.929302,393.128549 C238.714736,392.799225 239.631909,393.117304 240.013786,393.856275 C240.202224,394.220942 240.530738,394.503678 240.932627,394.628982 C244.896482,395.865956 247.35117,395.125378 248.69191,394.315723 C249.527371,393.812901 250.015974,392.91489 250.015974,391.965473 L250.015974,382.175712 L230.77035,382.175712" id="Fill-137" fill="#38231A"></path>
                        <path d="M270.28754,369.754856 L270.28754,379.721145 C270.28754,380.687682 269.798938,381.601885 268.963478,382.115409 C267.62274,382.939664 265.168056,383.69196 261.204207,382.434317 C260.802319,382.306754 260.473805,382.015648 260.285368,381.646042 C259.903491,380.895381 258.98632,380.568296 258.202555,380.905193 C257.415455,381.243727 256.5283,381.25681 255.731195,380.94935 C252.067512,379.534706 241.708477,375.258066 241.910255,372.229257 C242.15539,368.551183 251.041947,369.754856 251.041947,369.754856 L270.28754,369.754856" id="Fill-138" fill="#613927"></path>
                        <path d="M250.015974,377.877197 L250.015974,387.843485 C250.015974,388.810022 249.527371,389.724225 248.69191,390.237749 C247.35117,391.062004 244.896482,391.8143 240.932627,390.556657 C240.530738,390.429094 240.202224,390.137988 240.013786,389.768382 C239.631909,389.017721 238.714736,388.690636 237.929302,389.029169 C237.145536,389.366067 236.256712,389.37915 235.459605,389.07169 C231.795916,387.657047 221.438532,383.380407 221.638642,380.351597 C221.883778,376.673523 230.77035,377.877197 230.77035,377.877197 L250.015974,377.877197" id="Fill-139" fill="#613927"></path>
                        <path d="M271.638978,291.050532 L271.638978,367.394171 C271.638978,368.071266 271.440195,368.763187 271.029267,369.41557 C270.17066,370.799413 268.384958,372.049814 265.687195,372.847171 C262.672048,373.733489 259.431392,373.733489 256.402882,372.847171 C252.435583,371.672552 250.451099,369.532538 250.451099,367.394171 L250.451099,322.954697 C250.451099,322.485179 250.147079,322.09309 249.73615,321.936584 C249.604185,321.898693 249.47222,321.872334 249.340256,321.872334 C248.745578,321.872334 248.242776,322.355032 248.242776,322.954697 L248.242776,378.351241 C248.242776,380.059627 246.97324,381.768014 244.434169,382.993704 C243.799402,383.293536 243.084453,383.56701 242.290993,383.802593 C239.262483,384.675732 236.021826,384.675732 233.00668,383.802593 C229.039381,382.627974 227.041534,380.489607 227.041534,378.351241 L227.041534,310.511644 L250.451099,310.511644 L250.451099,291.050532 L271.638978,291.050532" id="Fill-140" fill="#C5A584"></path>
                        <path d="M244.610224,382.983628 C243.969031,383.285525 243.246845,383.560881 242.445353,383.798085 C239.386187,384.677234 236.112728,384.677234 233.067061,383.798085 C229.059604,382.615381 227.041534,380.462296 227.041534,378.30921 L227.041534,310.00266 L233.040063,310.00266 C232.439367,327.993695 231.850482,345.986389 231.249785,363.980742 C231.129983,367.498997 231.037179,371.123412 232.306066,374.42105 C234.189149,379.332672 239.332192,382.668462 244.610224,382.983628" id="Fill-141" fill="#9B7A5E"></path>
                        <path d="M264.214243,368.390815 C260.513395,366.25561 258.232659,362.192471 257.283175,358.010891 C256.332045,353.844116 256.539385,349.506262 256.761534,345.221048 C257.013304,340.136365 257.268365,333.745556 257.525071,328.659229 C257.702791,325.137293 254.893832,322.18617 251.367412,322.18617 L251.367412,367.518967 C251.367412,369.654172 253.322329,371.791022 257.230517,372.963904 C260.213904,373.848912 263.406277,373.848912 266.3765,372.963904 C269.034067,372.167726 270.793163,370.919174 271.638978,369.537377 C269.177231,370.096676 266.427512,369.667332 264.214243,368.390815" id="Fill-142" fill="#9B7A5E"></path>
                        <path d="M222.998054,220.205879 C222.998054,220.205879 222.515744,216.542493 227.987415,214.312535 C230.724897,213.358002 234.104362,214.312535 234.104362,214.312535 L242.804056,231.531591 C243.004881,231.927412 243.358795,232.227129 243.785138,232.360699 L262.127747,238.122102 C266.669366,239.547386 269.507261,244.012189 268.83894,248.680604 C268.050453,254.189529 262.135978,257.401711 257.016574,255.101711 L237.230326,246.211198 C235.113427,245.259923 233.424518,243.56913 232.484589,241.464596 L222.998054,220.205879" id="Fill-143" fill="#3B5796"></path>
                        <path d="M271.274741,295.04351 C270.73053,297.230628 269.59308,299.244772 267.935934,300.824819 C263.549561,304.999469 255.474647,310.820695 241.759877,315.073516 C240.323356,315.520918 238.770802,315.534224 237.321208,315.100127 C234.565833,314.270187 229.882024,312.490555 226.258853,309.318818 C224.925291,308.146257 224.214385,306.3949 224.356566,304.603626 C225.003736,296.84809 226.840652,273.250506 226.414109,262.37313 C226.258853,258.527795 227.979737,254.933604 230.865852,252.641704 C231.655203,252.022991 232.534439,251.497418 233.49212,251.088269 C233.56893,251.048352 233.647375,251.010098 233.73726,250.981823 C240.867567,248.059568 262.17841,238.301531 266.965179,244.149368 C270.640646,248.862897 268.893614,264.322409 269.52771,270.985217 C269.980402,275.765275 270.769753,284.575284 271.532955,290.434763 C271.740507,291.988199 271.637549,293.556603 271.274741,295.04351" id="Fill-144" fill="#4B65A1"></path>
                        <path d="M271.638978,296.560994 C271.090543,298.730532 269.944267,300.728487 268.27426,302.295834 C263.853848,306.43693 255.71627,312.211366 241.89507,316.430004 C240.447402,316.873811 238.8828,316.88701 237.421956,316.456402 C234.645199,315.633132 229.925042,313.867804 226.273755,310.721562 C224.929844,309.558425 224.213421,307.821145 224.356705,306.044268 C225.008897,298.351069 226.860069,274.943154 226.430215,264.153208 C226.273755,260.33878 228.007992,256.773478 230.916505,254.5 C233.549977,255.022999 236.000638,256.433611 237.617943,258.576752 C240.356819,262.193199 240.617038,267.053624 240.565982,271.572533 C240.460577,279.958665 239.665101,288.344796 238.177905,296.60059 C237.410427,300.885222 236.679181,305.993123 239.808385,309.023877 C242.860183,311.975439 247.853733,311.218163 251.844292,309.743207 C259.342853,306.973128 266.174399,302.412973 271.638978,296.560994" id="Fill-145" fill="#3B5796"></path>
                        <path d="M255.421725,247.731383 L255.421725,252.146845 C255.421725,255.284385 241.907348,255.284385 241.907348,252.146845 L241.907348,247.731383 L255.421725,247.731383" id="Fill-146" fill="#EFA67F"></path>
                        <path d="M255.421725,247.731383 L255.421725,247.95724 C252.896957,250.319509 249.320597,251.792553 245.384233,251.792553 C244.182639,251.792553 243.007888,251.657607 241.907348,251.397658 L241.907348,247.731383 L255.421725,247.731383" id="Fill-147" fill="#BE7756"></path>
                        <path d="M193.266519,239.158619 C193.266519,239.158619 192.782564,235.495298 198.255865,233.265379 C200.991693,232.309234 204.372794,233.265379 204.372794,233.265379 L213.072462,250.48413 C213.273287,250.879945 213.625553,251.179656 214.053541,251.313224 L232.396096,257.072897 C236.939347,258.499784 239.775587,262.964508 239.107268,267.634469 C238.318784,273.141668 232.40268,276.353794 227.284938,274.053834 L207.498748,265.163478 C205.381856,264.21222 203.691306,262.523085 202.753026,260.41696 L193.266519,239.158619" id="Fill-148" fill="#4B65A1"></path>
                        <path d="M262.178914,235.549555 C262.178914,243.771639 255.523356,250.43883 247.313939,250.43883 C239.102842,250.43883 232.447284,243.771639 232.447284,235.549555 C232.447284,227.324106 239.102842,220.656915 247.313939,220.656915 C255.523356,220.656915 262.178914,227.324106 262.178914,235.549555" id="Fill-149" fill="#EFA67F"></path>
                        <path d="M266.472259,241.886375 C264.610488,246.645594 260.331267,250.793643 253.073882,250.414751 C253.073882,250.414751 245.032506,248.003018 248.475692,239.629494 C248.475692,239.629494 244.048738,240.11217 244.448289,232.376174 C244.448289,232.376174 235.58263,229.325266 236.579827,220.220315 C237.229517,215.7082 241.124296,211.260332 245.975983,211.182906 C246.588739,211.16808 247.199816,211.233975 247.824324,211.364116 C251.838297,212.329468 254.05765,217.077155 253.646348,220.782065 C253.646348,220.782065 259.188015,220.885848 263.574678,225.646715 C265.76717,228.033737 267.044725,231.084645 267.469457,234.268989 C267.774996,236.576939 267.482887,239.314849 266.472259,241.886375" id="Fill-150" fill="#613927"></path>
                        <path d="M266.233227,241.885927 C264.386304,246.645396 260.141212,250.793662 252.941709,250.414749 C252.941709,250.414749 244.964467,248.00289 248.380192,239.628928 C248.380192,239.628928 243.988546,240.111629 244.38491,232.375229 C244.38491,232.375229 235.589959,229.324161 236.579204,220.218733 C237.223711,215.706382 241.087428,211.258281 245.900419,211.180851 C244.318294,212.276402 243.000967,213.750865 242.156611,215.472445 C240.679406,218.472442 240.65276,222.136359 242.103319,225.151183 C244.226697,224.119883 246.361734,223.07705 248.498436,222.04575 C247.495868,222.826638 246.731451,223.884298 246.361734,225.096817 C245.742207,227.144591 246.32343,229.507027 247.825616,231.057273 C249.262852,232.546563 251.477827,233.327452 252.427102,235.154468 C253.178195,236.589392 252.955033,238.348863 253.46964,239.889224 C254.577127,243.268134 258.980432,244.63716 262.436126,243.684937 C263.806746,243.306025 265.072447,242.666816 266.233227,241.885927" id="Fill-151" fill="#4E3022"></path>
                        <path d="M250.015974,238.932181 C250.015974,240.053442 249.107866,240.962766 247.989533,240.962766 C246.86834,240.962766 245.961661,240.053442 245.961661,238.932181 C245.961661,237.809488 246.86834,236.901596 247.989533,236.901596 C249.107866,236.901596 250.015974,237.809488 250.015974,238.932181" id="Fill-152" fill="#EFA67F"></path>
                        <path d="M363.332611,139.433511 C363.332611,139.433511 359.702796,139.393719 358.13099,136.695822 L363.536741,134.018617 L363.332611,139.433511" id="Fill-153" fill="#EFA67F"></path>
                        <path d="M363.831318,138.079787 C363.831318,138.079787 362.36648,133.647546 365.969843,131.810313 C365.969843,131.810313 365.182147,127.595289 366.646986,127.270291 C368.110096,126.946951 369.799497,130.511979 368.44694,136.242554 L363.831318,138.079787" id="Fill-154" fill="#EFA67F"></path>
                        <path d="M339.210863,151.756918 L338.540533,158.071465 L332.725809,159.739362 C332.725809,159.739362 328.693436,156.361062 327.047923,154.1406 L333.78067,150.33045 C333.945221,150.519172 334.069934,150.66709 334.109772,150.719796 C334.095915,150.653488 334.028363,150.478367 333.959078,150.221637 C333.493138,148.849575 332.50583,145.323358 334.137486,144.877905 C335.166365,144.595672 336.468918,146.385984 337.497797,148.2171 C338.485105,149.966607 339.210863,151.756918 339.210863,151.756918" id="Fill-155" fill="#EFA67F"></path>
                        <path d="M388.887462,292.829989 C388.887462,292.829989 384.741604,292.278945 382.034955,293.08061 L379.756901,292.404255 L379.756901,295.259081 C379.555111,298.236004 389.913087,302.435506 393.576985,303.825165 C394.374137,304.128802 395.263012,304.114343 396.048491,303.783395 C396.832301,303.452447 397.749527,303.772149 398.133094,304.509552 C398.321542,304.874237 398.650075,305.158595 399.050319,305.283906 C403.016068,306.519337 405.469229,305.780327 406.811713,304.97063 C407.647222,304.467782 408.134185,303.568118 408.134185,302.618652 L408.134185,292.829989 L388.887462,292.829989" id="Fill-156" fill="#38231A"></path>
                        <path d="M367.264459,302.306031 C367.264459,302.306031 363.1186,301.755015 360.411951,302.556638 L358.133897,301.880319 L358.133897,304.734997 C357.932108,307.711765 368.291751,311.911049 371.953982,313.300636 C372.751134,313.604257 373.640009,313.589799 374.425487,313.258869 C375.210966,312.927938 376.126523,313.247623 376.51009,313.986595 C376.698538,314.349654 377.027072,314.633998 377.428983,314.759301 C381.393065,315.996275 383.846226,315.255697 385.18871,314.446042 C386.024219,313.94322 386.511182,313.04521 386.511182,312.094186 L386.511182,302.306031 L367.264459,302.306031" id="Fill-157" fill="#38231A"></path>
                        <path d="M408.134185,291.238319 L408.134185,301.205455 C408.134185,302.171915 407.647222,303.084411 406.811713,303.59953 C405.469229,304.423719 403.016068,305.175956 399.050319,303.918413 C398.650075,303.790859 398.321542,303.499776 398.133094,303.130199 C397.749527,302.377963 396.832301,302.052539 396.048491,302.391045 C395.263012,302.727916 394.374137,302.740999 393.576985,302.433563 C389.913087,301.019031 379.555111,296.741094 379.756901,293.714159 C380.000383,290.036376 388.887462,291.238319 388.887462,291.238319 L408.134185,291.238319" id="Fill-158" fill="#613927"></path>
                        <path d="M386.511182,299.361239 L386.511182,309.327528 C386.511182,310.294065 386.024219,311.208268 385.18871,311.721792 C383.846226,312.546047 381.393065,313.298343 377.428983,312.0407 C377.027072,311.913137 376.698538,311.622031 376.51009,311.252425 C376.126523,310.501764 375.210966,310.176314 374.425487,310.513212 C373.640009,310.85011 372.751134,310.863193 371.953982,310.555733 C368.291751,309.141089 357.932108,304.862814 358.133897,301.83564 C358.377379,298.157566 367.264459,299.361239 367.264459,299.361239 L386.511182,299.361239" id="Fill-159" fill="#613927"></path>
                        <path d="M409.485623,211.180851 L409.485623,287.523144 C409.485623,288.201874 409.288504,288.893783 408.87756,289.546155 C408.01725,290.928326 406.233152,292.180352 403.533617,292.976047 C400.518358,293.863997 397.279251,293.863997 394.248956,292.976047 C390.28151,291.803097 388.298621,289.66312 388.298621,287.523144 L388.298621,243.086101 C388.298621,242.614944 387.99459,242.224509 387.583646,242.068006 C387.451676,242.030116 387.319706,242.00211 387.187736,242.00211 C386.591366,242.00211 386.088545,242.484799 386.088545,243.086101 L386.088545,298.481667 C386.088545,300.190024 384.818962,301.898381 382.279796,303.124049 C381.645004,303.423876 380.931699,303.698992 380.136539,303.932923 C377.107915,304.806047 373.867138,304.806047 370.851878,303.932923 C366.884431,302.758325 364.888179,300.618349 364.888179,298.481667 L364.888179,230.643268 L388.298621,230.643268 L388.298621,211.180851 L409.485623,211.180851" id="Fill-160" fill="#4B65A1"></path>
                        <path d="M382.456869,304.467671 C381.815614,304.769567 381.095047,305.046582 380.291791,305.282128 C377.232331,306.161277 373.958557,306.161277 370.912598,305.282128 C366.904756,304.099424 364.888179,301.944679 364.888179,299.793253 L364.888179,231.486702 L370.887285,231.486702 C370.284843,249.477738 369.697589,267.470432 369.096834,285.463126 C368.975334,288.983039 368.88252,292.607455 370.15153,295.905093 C372.034793,300.816715 377.180018,304.150846 382.456869,304.467671" id="Fill-161" fill="#3B5796"></path>
                        <path d="M400.707805,288.521336 C397.008603,286.386046 394.727866,282.321099 393.776737,278.140997 C392.825607,273.974056 393.034592,269.636028 393.256742,265.348998 C393.506866,260.264112 393.763572,253.874693 394.018633,248.788162 C394.196353,245.266085 391.38904,242.316489 387.86262,242.316489 L387.86262,287.647808 C387.86262,289.784744 389.815891,291.921679 393.724079,293.092963 C396.709112,293.979651 399.899839,293.979651 402.870062,293.092963 C405.529275,292.298398 407.286726,291.048151 408.134185,289.667944 C405.672438,290.22891 402.922719,289.797904 400.707805,288.521336" id="Fill-162" fill="#3B5796"></path>
                        <path d="M359.493256,140.336813 C359.493256,140.336813 359.01095,136.67349 364.484216,134.44357 C367.220026,133.487425 370.59946,134.44357 370.59946,134.44357 L379.300718,151.662329 C379.499896,152.058144 379.853806,152.357856 380.280145,152.491423 L398.622583,158.251099 C403.165805,159.677987 406.003673,164.141084 405.333713,168.811047 C404.545233,174.319877 398.630813,177.532004 393.511457,175.232043 L373.72704,166.341684 C371.610162,165.390425 369.919622,163.699661 368.979702,161.595164 L359.493256,140.336813" id="Fill-163" fill="#9B7A5E"></path>
                        <path d="M409.120924,217.881628 C408.578349,220.068729 407.439267,222.082857 405.782123,223.662892 C401.395758,227.83751 393.322493,233.65869 379.606113,237.909815 C378.169595,238.358877 376.618678,238.372183 375.169086,237.938089 C372.413717,237.108155 367.728281,235.3302 364.106752,232.155162 C362.773192,230.984274 362.062287,229.231267 362.202834,227.44167 C362.850003,219.686194 364.686916,196.088793 364.260373,185.211501 C364.106752,181.366196 365.825998,177.772033 368.712108,175.480151 C369.501458,174.861443 370.380692,174.33421 371.338371,173.926728 C371.416816,173.886811 371.493626,173.846894 371.585145,173.821946 C378.713805,170.898051 400.026244,161.140089 404.813004,166.986218 C408.48683,171.701374 406.739801,187.160765 407.37553,193.823522 C407.826587,198.601879 408.615937,207.41182 409.380772,213.272917 C409.58669,214.82634 409.483731,216.394733 409.120924,217.881628" id="Fill-164" fill="#C5A584"></path>
                        <path d="M409.485623,216.691443 C408.938831,218.860988 407.790898,220.858949 406.120878,222.426301 C401.70043,226.567409 393.564434,232.341863 379.741476,236.558865 C378.293796,237.004323 376.730828,237.017521 375.269973,236.586912 C372.493193,235.76364 367.771351,233.999957 364.121682,230.850404 C362.77776,229.688914 362.061331,227.949979 362.20297,226.174746 C362.855168,218.481524 364.706354,195.073537 364.276496,184.283557 C364.121682,180.469117 365.854287,176.903804 368.762823,174.630319 C371.396316,175.15332 373.848644,176.563936 375.465961,178.705434 C378.203213,182.323542 378.46508,187.183982 378.412377,191.702905 C378.308619,200.089062 377.513136,208.47522 376.025928,216.731039 C375.256797,221.014034 374.525545,226.121951 377.656421,229.152715 C380.706596,232.105936 385.701834,231.347008 389.690778,229.872047 C397.189399,227.103609 404.022648,222.54344 409.485623,216.691443" id="Fill-165" fill="#9B7A5E"></path>
                        <path d="M391.916933,169.215426 L391.916933,173.630888 C391.916933,176.768428 378.402556,176.768428 378.402556,173.630888 L378.402556,169.215426 L391.916933,169.215426" id="Fill-166" fill="#EFA67F"></path>
                        <path d="M391.916933,169.215426 L391.916933,169.441283 C389.390586,171.803551 385.815805,173.276596 381.877862,173.276596 C380.677847,173.276596 379.503096,173.140229 378.402556,172.881701 L378.402556,169.215426 L391.916933,169.215426" id="Fill-167" fill="#BE7756"></path>
                        <path d="M329.761626,160.642662 C329.761626,160.642662 329.279333,156.97934 334.752455,154.749421 C337.488193,153.793277 340.867538,154.749421 340.867538,154.749421 L349.568568,171.968173 C349.76774,172.363988 350.121641,172.663699 350.547969,172.797266 L368.889924,178.556939 C373.433027,179.983827 376.27082,184.448551 375.602523,189.118512 C374.814064,194.625711 368.898154,197.837836 363.778933,195.537876 L343.995036,186.647521 C341.876568,185.696263 340.187718,184.005499 339.247823,181.901003 L329.761626,160.642662" id="Fill-168" fill="#C5A584"></path>
                        <path d="M398.674121,157.031915 C398.674121,165.255681 392.018188,171.922872 383.808307,171.922872 C375.598426,171.922872 368.942492,165.255681 368.942492,157.031915 C368.942492,148.808148 375.598426,142.140957 383.808307,142.140957 C392.018188,142.140957 398.674121,148.808148 398.674121,157.031915" id="Fill-169" fill="#EFA67F"></path>
                        <path d="M402.967467,163.368771 C401.107374,168.129637 396.828153,172.277686 389.56909,171.898793 C389.56909,171.898793 381.527714,169.485413 384.9709,161.111889 C384.9709,161.111889 380.543946,161.594565 380.943497,153.860217 C380.943497,153.860217 372.077837,150.809309 373.075035,141.704358 C373.726403,137.192243 377.621183,132.744375 382.472869,132.666949 C383.083947,132.652123 383.695024,132.718017 384.319532,132.848158 C388.333505,133.813511 390.552858,138.561198 390.141556,142.266107 C390.141556,142.266107 395.684901,142.369891 400.069885,147.130757 C402.264056,149.51778 403.539932,152.570335 403.964665,155.751385 C404.270204,158.060981 403.978095,160.798891 402.967467,163.368771" id="Fill-170" fill="#613927"></path>
                        <path d="M402.728435,163.368323 C400.883177,168.129438 396.638085,172.277704 389.436917,171.898792 C389.436917,171.898792 381.459675,169.485285 384.8754,161.111323 C384.8754,161.111323 380.483754,161.594025 380.880118,153.859271 C380.880118,153.859271 372.085167,150.808203 373.074411,141.702776 C373.720584,137.190425 377.584301,132.742324 382.397292,132.664894 C380.815167,133.760444 379.496174,135.23326 378.651819,136.95484 C377.174614,139.954837 377.149633,143.620402 378.600192,146.633578 C380.721905,145.603925 382.858607,144.559445 384.993643,143.529792 C383.992741,144.312328 383.226659,145.368341 382.858607,146.58086 C382.23908,148.630281 382.818637,150.99107 384.322489,152.542963 C385.758059,154.028958 387.9747,154.811494 388.923975,156.638511 C389.675069,158.071788 389.451906,159.832906 389.964847,161.373267 C391.072335,164.750529 395.477305,166.121203 398.931334,165.16898 C400.301954,164.790068 401.56932,164.150859 402.728435,163.368323" id="Fill-171" fill="#4E3022"></path>
                        <path d="M385.159744,160.416223 C385.159744,161.537484 384.251956,162.446809 383.132588,162.446809 C382.01322,162.446809 381.105431,161.537484 381.105431,160.416223 C381.105431,159.29353 382.01322,158.385638 383.132588,158.385638 C384.251956,158.385638 385.159744,159.29353 385.159744,160.416223" id="Fill-172" fill="#EFA67F"></path>
                        <path d="M84.431376,345.221993 C84.9054312,345.110907 85.3775516,345.428946 85.6000673,345.775898 C85.824518,346.124371 85.9154592,346.526105 86.2153717,346.835014 C86.6855571,347.317398 87.6201232,347.525874 87.8136151,348.114779 C87.960669,348.562164 87.5446613,349.043027 86.9932093,349.195199 C86.4378874,349.34737 85.8090386,349.219546 85.3214389,348.962376 C84.2591681,348.400862 83.8354208,347.320442 83.7909176,346.314586 C83.7715684,345.882418 83.9050779,345.345252 84.431376,345.221993" id="Fill-173" fill="#BE7756"></path>
                        <path d="M58.1118211,392.579787 L58.1118211,466.196922 C58.1118211,466.24802 58.1118211,466.313952 58.0984576,466.36505 C58.0065833,468.453468 56.0220989,470.502326 52.1600384,471.651203 C49.1315282,472.539646 45.9042354,472.539646 42.8757252,471.651203 C38.9067565,470.489139 36.910579,468.336437 36.910579,466.196922 L36.910579,421.73357 C36.910579,421.184681 36.5013209,420.728097 35.9584274,420.663813 C35.9049733,420.650626 35.8665532,420.650626 35.813099,420.650626 C35.2050584,420.650626 34.7156191,421.133583 34.7156191,421.73357 L34.7156191,477.15823 C34.7156191,479.299394 32.7311347,481.438909 28.7504729,482.614159 C25.7353262,483.500954 22.4946699,483.500954 19.4795232,482.614159 C15.5122249,481.438909 13.514377,479.299394 13.514377,477.15823 L13.514377,397.419246 L58.1118211,392.579787" id="Fill-178" fill="#AC3D68"></path>
                        <path d="M35.1373802,475.42354 L35.1373802,477.117634 C35.1373802,479.272998 33.113418,481.426704 29.053568,482.609748 C25.9784403,483.502424 22.6733169,483.502424 19.5981892,482.609748 C15.5519685,481.426704 13.514377,479.272998 13.514377,477.117634 L13.514377,398.243568 C14.0408116,398.072666 14.594505,397.994681 15.160124,397.994681 C17.8042227,398.007955 20.0701063,400.09529 21.068458,402.487927 C22.0668097,404.877246 22.0668097,407.532045 22.0531803,410.118814 C21.9577747,429.050846 21.8504434,447.981219 21.7431121,466.911593 C21.7294827,470.155425 21.9322196,473.887076 24.5354302,475.9097 C26.2203617,477.2371 28.5816509,477.472713 30.699315,477.066197 C32.2496564,476.762554 33.7062958,476.13204 35.1373802,475.42354" id="Fill-179" fill="#752744"></path>
                        <path d="M53.8868203,467.372535 C51.4191999,467.59455 48.8764641,466.466251 47.2830589,464.486342 C45.7887422,462.650578 45.1558551,460.261433 44.6124672,457.940218 C42.2087748,447.613214 40.9765628,434.764519 40.8838672,424.147571 C40.8614924,421.655703 38.8941085,419.654255 36.4888179,419.654255 L36.4888179,466.297255 C36.4888179,468.447816 38.3986666,470.611633 42.1959892,471.779696 C45.0935253,472.672726 48.1812472,472.672726 51.0787833,471.779696 C54.7738211,470.624887 56.6724824,468.565451 56.7603834,466.466251 C55.8749807,466.964956 54.8872933,467.28141 53.8868203,467.372535" id="Fill-180" fill="#752744"></path>
                        <path d="M53.023432,366.859043 C53.023432,366.859043 59.4162387,357.977364 67.571885,357.52083 C67.571885,357.52083 61.3248644,335.027772 49.9015974,335.739967 C46.9707929,335.924241 44.527618,337.984458 43.7216049,340.869758 C41.0170204,350.544977 50.6238254,364.314068 53.023432,366.859043" id="Fill-181" fill="#EEA13D"></path>
                        <path d="M63.2231379,356.029347 L66.0933205,356.787398 L74.3290735,369.654045 L68.7752944,381.725581 C65.2334015,382.294961 57.3902908,372.782267 52.0068731,366.263031 L51.3546326,361.192515 C51.3546326,361.192515 55.6736977,356.004079 56.348653,356.029347 C57.0252308,356.057985 63.2231379,356.029347 63.2231379,356.029347" id="Fill-182" fill="#BE7756"></path>
                        <path d="M66.2702198,380.474862 C66.2702198,380.474862 65.1768055,369.488771 73.2397051,363.734152 C81.3009556,357.979533 86.2468824,354.675532 86.2468824,354.675532 L90.5463259,358.618754 C90.5463259,358.618754 77.6842776,388.156952 66.2702198,380.474862" id="Fill-183" fill="#BE7756"></path>
                        <path d="M83.5679949,354.777675 C82.2523536,355.073795 80.9794395,356.190487 81.0933787,357.535513 C81.2108785,358.919783 82.6814058,359.78852 84.0486758,360.016853 C85.2129916,360.211293 86.5553374,360.05253 87.3190859,359.1499 C88.1362433,358.184835 87.9546528,356.606125 87.0769652,355.692792 C86.2010578,354.779459 84.7999622,354.501178 83.5679949,354.777675" id="Fill-184" fill="#A36348"></path>
                        <path d="M58.1118211,393.403058 C58.1118211,393.403058 49.0821275,407.051014 25.1598121,408.824468 C25.1598121,408.824468 14.1774431,408.668378 8.1086262,398.926005 C8.1086262,398.926005 11.2525152,365.80825 10.3734028,350.728911 C10.3603305,350.582783 10.3603305,350.451601 10.3472582,350.320418 C10.3472582,350.320418 40.8416741,331.546384 50.441647,336.581133 C60.0399859,341.617543 54.2832702,361.417789 55.2408164,370.842999 C55.9777675,378.127776 57.2964362,387.644315 57.8536431,391.576467 C58.0088767,392.733862 58.1118211,393.403058 58.1118211,393.403058" id="Fill-185" fill="#F9CE3D"></path>
                        <path d="M58.1118211,393.542393 C58.1118211,393.542393 49.0821275,407.067038 25.1598121,408.824468 C25.1598121,408.824468 14.1774431,408.669788 8.1086262,399.015439 C8.1086262,399.015439 11.2525152,366.196906 10.3734028,351.253811 C10.3864751,351.239001 10.3995474,351.239001 10.4126197,351.225837 C12.8326299,350.027888 15.8065789,350.732177 18.1220107,352.11278 C23.0780477,355.058286 25.9506864,360.751834 26.7137821,366.496394 C27.4768779,372.229435 26.3902426,378.05298 24.9800679,383.667542 C24.1385384,386.976711 23.1679198,390.325373 23.2463536,393.751375 C23.3362257,397.177378 24.6696007,400.774515 27.5030225,402.650424 C31.5129516,405.294797 36.8562556,403.744704 41.2027965,401.738798 C46.1457613,399.458088 50.8550586,396.682072 55.2408164,393.465053 C56.0807119,392.83975 56.9353138,392.201282 57.8536431,391.732305 C58.0088767,392.879242 58.1118211,393.542393 58.1118211,393.542393" id="Fill-186" fill="#EEA13D"></path>
                        <path d="M44.5974441,391.632154 C36.7494413,401.08173 29.4380253,397.274514 29.014493,397.045748 C29.000994,397.040738 28.9959319,397.034059 28.9959319,397.034059 C23.7161209,391.638833 14.8658147,380.686408 14.8658147,380.686408 L15.2151023,375.069094 L20.32955,368.212766 L29.5173322,371.295275 L44.5974441,391.632154" id="Fill-187" fill="#EFA67F"></path>
                        <path d="M80.964858,342.422242 L81.3770526,341.689538 L79.5355817,340.522887 C76.8278318,337.864123 72.478006,337.630459 67.571885,340.452788 C59.3615049,345.172802 52.7060703,356.655723 52.7060703,366.099091 C52.7060703,370.431891 54.1102128,373.578011 56.4191728,375.262061 C57.0173576,375.699347 57.6792148,376.03816 58.3913396,376.273493 L61.157735,377.68883 L61.7508931,376.634003 C63.5387452,376.482122 65.5058853,375.836207 67.571885,374.647859 C75.7822651,369.926175 82.4376997,358.443254 82.4376997,349.001555 C82.4376997,346.339454 81.9082139,344.126321 80.964858,342.422242" id="Fill-188" fill="#56629E"></path>
                        <path d="M85.1405751,350.263766 C85.1405751,359.623931 78.4851405,371.004026 70.2747604,375.684109 C62.0660559,380.364191 55.4089457,376.570826 55.4089457,367.210661 C55.4089457,357.85215 62.0660559,346.470401 70.2747604,341.790319 C78.4851405,337.108582 85.1405751,340.901947 85.1405751,350.263766" id="Fill-189" fill="#263779"></path>
                        <path d="M82.4376997,352.453792 C82.4376997,360.141169 76.9915334,369.490238 70.2739337,373.334745 C63.556334,377.179253 58.1118211,374.06235 58.1118211,366.373335 C58.1118211,358.68432 63.556334,349.33689 70.2739337,345.492382 C76.9915334,341.647875 82.4376997,344.764777 82.4376997,352.453792" id="Fill-190" fill="#EBF6F9"></path>
                        <path d="M70.6065821,361.503477 L63.1875112,365.379015 C62.6239928,365.673824 62.1661342,365.43479 62.1661342,364.846766 C62.1661342,364.258742 62.6239928,363.54164 63.1875112,363.246832 L69.5852051,359.903543 L69.5852051,350.987576 C69.5852051,350.397959 70.0413028,349.680857 70.6065821,349.387642 C71.1683394,349.09124 71.6261981,349.331867 71.6261981,349.919891 L71.6261981,359.903543 C71.6261981,360.49316 71.1683394,361.210262 70.6065821,361.503477" id="Fill-191" fill="#263779"></path>
                        <path d="M71.6261981,359.858119 C71.6261981,360.862467 71.020859,362.082275 70.2754897,362.582752 C69.5272031,363.084926 68.9233227,362.677758 68.9233227,361.675106 C68.9233227,360.672455 69.5272031,359.452647 70.2754897,358.95217 C71.020859,358.449996 71.6261981,358.855467 71.6261981,359.858119" id="Fill-192" fill="#56629E"></path>
                        <path d="M62.1478993,373.383263 C61.9397548,372.638231 59.4253685,373.5857 58.1365375,374.123317 L58.1232162,373.904288 C59.4286989,373.371648 61.994705,372.195194 61.7382709,371.280912 C61.5451127,370.590637 59.3587623,371.35724 58.0116507,371.901495 L57.9999946,371.689103 L57.9999946,371.684125 C59.3587623,371.110002 61.5650946,370.031448 61.3269772,369.181879 C61.1471403,368.536406 59.2305452,369.161967 57.8817685,369.691289 L57.8817685,369.613301 C59.2438665,369.035859 61.3935835,367.97058 61.1587964,367.134285 C60.9822898,366.497108 59.1139843,367.096121 57.7652076,367.620464 C57.4654794,367.736616 52.7181184,369.860539 52.7181184,369.860539 C52.7181184,369.860539 49.9506283,369.1321 49.872366,372.779273 C49.872366,372.779273 41.9778593,376.789836 36.8258652,382.235706 C35.4587718,383.675991 34.2865016,385.215834 33.5055432,386.812095 L28.3801917,397.040109 C28.3801917,397.040109 28.3851872,397.046746 28.3985084,397.051724 C28.8164627,397.27905 36.0315856,401.062287 43.7762282,391.672227 C45.0134395,390.167229 46.2706326,388.330368 47.5078438,386.083656 C50.6799669,381.140558 52.6331954,378.13388 53.8570854,377.402123 C54.7945685,376.842934 58.1232162,376.167593 58.2481029,376.116154 C59.4137125,375.661502 62.4276456,374.368896 62.1478993,373.383263" id="Fill-193" fill="#EFA67F"></path>
                        <path d="M52.7060703,371.668135 L51.7448124,369.912401 C51.7448124,369.912401 51.6724397,365.535607 50.7649973,365.505822 C48.7960887,365.44155 47.9981333,371.553699 49.2600163,373.62766 L51.6705839,373.4756 L52.7060703,371.668135" id="Fill-194" fill="#EFA67F"></path>
                        <path d="M41.8945687,338.430851 L41.8945687,346.898814 C41.8945687,350.047913 29.7316294,350.047913 29.7316294,346.898814 L29.7316294,338.430851 L41.8945687,338.430851" id="Fill-195" fill="#EFA67F"></path>
                        <path d="M41.8945687,338.430851 L41.8945687,345.151056 C41.4980779,345.187365 41.101587,345.199468 40.7067621,345.199468 C36.3403652,345.199468 32.4221029,343.474787 29.7316294,340.731939 L29.7316294,338.430851 L41.8945687,338.430851" id="Fill-196" fill="#BE7756"></path>
                        <path d="M52.7060703,328.953946 C52.7060703,337.17893 46.0505126,343.845745 37.8410955,343.845745 C29.6299986,343.845745 22.9744409,337.17893 22.9744409,328.953946 C22.9744409,320.730644 29.6299986,314.06383 37.8410955,314.06383 C46.0505126,314.06383 52.7060703,320.730644 52.7060703,328.953946" id="Fill-197" fill="#EFA67F"></path>
                        <path d="M54.057508,320.365987 C52.8263466,321.391229 51.4782499,322.285159 50.0232409,322.990539 C47.3237065,324.323859 44.2950829,325.071326 41.0943973,325.071326 C38.5552313,325.071326 36.1346711,324.591533 33.8995368,323.751474 C31.7963723,326.988814 28.1463211,329.135257 24.0068123,329.135257 C23.2534151,329.135257 22.5000178,329.056133 21.7850421,328.923138 C21.771678,328.988794 21.771678,329.056133 21.771678,329.135257 C21.771678,334.2682 24.3509362,338.784989 28.2649269,341.465096 L28.2649269,342.492021 C21.1886722,339.865786 16.2172524,333.574605 16.2172524,326.229563 L16.2172524,326.190843 C16.2306164,321.030963 18.7163263,316.394647 22.6436811,313.180876 C25.3565795,310.968778 28.7410205,309.436807 32.4979839,308.889674 C33.5420489,308.716276 34.6011484,308.648936 35.6986695,308.648936 C44.1764771,308.648936 51.3847017,313.541142 54.057508,320.365987" id="Fill-198" fill="#603926"></path>
                        <path d="M25.6773163,329.632365 C25.6773163,330.752589 24.7706375,331.662234 23.6508748,331.662234 C22.5311121,331.662234 21.6230032,330.752589 21.6230032,329.632365 C21.6230032,328.509276 22.5311121,327.601064 23.6508748,327.601064 C24.7706375,327.601064 25.6773163,328.509276 25.6773163,329.632365" id="Fill-199" fill="#EFA67F"></path>
                        <path d="M15.18385,381.75 C15.18385,381.75 21.5770971,372.867135 29.7316294,372.412285 C29.7316294,372.412285 23.4858543,349.918766 12.0618003,350.630922 C9.13079394,350.815186 6.68745073,352.875294 5.88138209,355.76044 C3.17661121,365.435144 12.784078,379.203501 15.18385,381.75" id="Fill-200" fill="#F9CE3D"></path>
                        <path d="M89.125609,353.896907 C88.905134,351.750769 88.2636129,349.677437 87.2714752,347.906915 L86.7111012,351.729258 L85.3453809,350.145716 C81.6554863,356.569237 85.6852799,360.090426 85.6852799,360.090426 L85.7327433,359.971288 C86.8121523,360.280715 87.9941434,359.478189 88.5820768,358.276881 C89.2113493,356.991184 89.2787166,355.391095 89.125609,353.896907" id="Fill-201" fill="#BE7756"></path>
                        <path d="M91.8369414,353.759869 C91.6217227,353.358493 90.9621816,353.231894 89.8756744,353.384388 C87.5620737,353.712394 83.4069648,355.325092 82.5981591,356.398305 C82.4488945,356.596835 82.403768,356.783856 82.4627796,356.952175 C82.6068373,357.359306 83.249022,357.475834 84.4205753,357.310392 C86.7359117,356.983825 91.0402852,355.504919 91.7761942,354.371284 C91.9514933,354.097945 91.9046311,353.887906 91.8369414,353.759869" id="Fill-202" fill="#BE7756"></path>
                        <path d="M90.5092746,352.576266 C90.3443997,352.102048 89.7198735,351.902811 88.6540156,351.986787 C86.3640863,352.167912 82.1639398,353.664663 81.2796107,354.822216 C81.119732,355.032979 81.0581121,355.238803 81.0980818,355.433101 C81.1946752,355.910612 81.8008819,356.096677 82.9533408,356.007761 C85.2399392,355.826636 89.5716526,354.497837 90.391031,353.262895 C90.5842177,352.969801 90.5625675,352.729399 90.5092746,352.576266" id="Fill-203" fill="#BE7756"></path>
                        <path d="M90.5183216,351.340221 C90.3746511,350.821856 89.7644741,350.579481 88.704693,350.618402 C86.4600529,350.705092 82.2581137,352.109807 81.313269,353.307531 C81.1357937,353.530446 81.061423,353.75336 81.0935376,353.970968 C81.1695985,354.485794 81.7628731,354.715785 82.9088565,354.669787 C85.1534966,354.584867 89.4754429,353.365914 90.3611292,352.085039 C90.5757898,351.775436 90.5656484,351.506523 90.5183216,351.340221" id="Fill-204" fill="#BE7756"></path>
                        <path d="M90.5411489,350.103199 C90.4759306,349.660674 89.9171686,349.389026 88.8824896,349.295555 C86.7496758,349.104232 82.6003835,349.722014 81.4335052,350.589538 C81.2025973,350.760414 81.086262,350.942974 81.086262,351.132836 C81.086262,351.559295 81.6450239,351.826563 82.7502093,351.924415 C84.9129882,352.118658 89.1327867,351.655687 90.2467853,350.719521 C90.5288103,350.481463 90.5623007,350.253628 90.5411489,350.103199" id="Fill-205" fill="#BE7756"></path>
                    </g>
                </g>
            </g>
        </g>
    </g>
</svg>