<?xml version="1.0" encoding="UTF-8"?>
<svg width="51px" height="43px" viewBox="0 0 51 43" version="1.1" xmlns="http://www.w3.org/2000/svg" xmlns:xlink="http://www.w3.org/1999/xlink">
    <!-- Generator: Sketch 52.5 (67469) - http://www.bohemiancoding.com/sketch -->
    <title>Stroke 84</title>
    <desc>Created with Sketch.</desc>
    <g id="Designs" stroke="none" stroke-width="1" fill="none" fill-rule="evenodd" stroke-linecap="round" stroke-linejoin="round">
        <g id="İletişim" transform="translate(-44.000000, -686.000000)" stroke="#303C42">
            <g id="Group-3" transform="translate(44.000000, 681.000000)">
                <path d="M3.26086957,8.17391235 C7.44565217,13.4891281 14.9413043,18.5043438 25,19.0434741 C24.4456522,16.7347792 24.3913043,10.4717377 28.7782609,7.86739071 C30.7391304,6.7043476 32.5956522,6 34.7826087,6 C37.5326087,6 39.7869565,6.94347796 42.1869565,9.23478158 C44.1413043,8.94999906 47.7891304,7.38260826 48.6543478,6.76739106 C48.0913043,8.92825994 45.8369565,11.704346 44.2065217,12.3630415 C45.7021739,12.3565197 48.9934783,11.4652157 50,10.936955 C48.6021739,13.1826064 46.1608696,15.3347796 44.823913,16.2282576 C46.3717391,30.0760793 34.0282609,47.2869434 16.3043478,47.3043347 C11.2413043,47.3086825 5.74130435,46.2347698 0,42.95651 C5.66304348,43.6195533 11.7326087,41.7847712 15.2173913,38.6086853 C10.823913,38.5086853 6.37173913,35.5478167 4.34782609,30.999992 C6.55,31.6847744 8.58043478,32.0326004 9.7826087,30.999992 C7.7326087,30.7695573 1.08695652,27.1304281 1.08695652,20.0826042 C2.61521739,21.3456473 4.81304348,22.6521686 6.52173913,22.3043426 C3.72391304,20.6478214 -0.339130435,14.3413017 3.26086957,8.17391235 Z" id="Stroke-84"></path>
            </g>
        </g>
    </g>
</svg>