<svg xmlns="http://www.w3.org/2000/svg" width="50.001" height="50" viewBox="0 0 50.001 50">
  <g id="arrow-white" transform="translate(0 0)">
    <path id="Combined_Shape" data-name="Combined Shape" d="M23.849,48.78,1.319,27.946a3.949,3.949,0,0,1,0-5.892L23.849,1.22a4.77,4.77,0,0,1,6.373,0,3.949,3.949,0,0,1,0,5.892L15.4,20.822h30.1A4.346,4.346,0,0,1,50,24.988a4.347,4.347,0,0,1-4.506,4.167H15.371L30.222,42.887a3.95,3.95,0,0,1,0,5.893,4.77,4.77,0,0,1-6.373,0Z" transform="translate(50 50) rotate(180)" fill="#fff"/>
  </g>
</svg>
