<svg xmlns="http://www.w3.org/2000/svg" width="30" height="30" viewBox="0 0 30 30">
  <g id="arrow" transform="translate(0 0)">
    <path id="Combined_Shape" data-name="Combined Shape" d="M14.31,29.268.792,16.768a2.37,2.37,0,0,1,0-3.536L14.31.733a2.861,2.861,0,0,1,3.823,0,2.369,2.369,0,0,1,0,3.535L9.238,12.493H27.3a2.607,2.607,0,0,1,2.7,2.5,2.607,2.607,0,0,1-2.7,2.5H9.222l8.911,8.24a2.37,2.37,0,0,1,0,3.536,2.861,2.861,0,0,1-3.823,0Z" transform="translate(30 30) rotate(180)" fill="#4a4a4a"/>
  </g>
</svg>
