<svg xmlns="http://www.w3.org/2000/svg" xmlns:xlink="http://www.w3.org/1999/xlink" width="409.15" height="617.72" viewBox="0 0 409.15 617.72">
  <defs>
    <clipPath id="clip-path"/>
  </defs>
  <g id="Phone_Illustration" data-name="Phone Illustration" transform="translate(-90)">
    <g id="Additional_Elements" data-name="Additional Elements" transform="translate(0 69)">
      <ellipse id="Oval_11" data-name="Oval 11" cx="6.5" cy="9" rx="6.5" ry="9" transform="translate(444 12)" fill="#48d2a0" opacity="0.162"/>
      <ellipse id="Oval_11-2" data-name="Oval 11" cx="4" cy="5.5" rx="4" ry="5.5" transform="translate(425 59)" fill="#48d2a0" opacity="0.17"/>
      <ellipse id="Oval_11-3" data-name="Oval 11" cx="6" cy="8.5" rx="6" ry="8.5" transform="translate(458 87)" fill="#48d2a0" opacity="0.301"/>
      <ellipse id="Oval_11-4" data-name="Oval 11" cx="6" cy="8.5" rx="6" ry="8.5" transform="translate(104 65)" fill="#48d2a0" opacity="0.184"/>
      <ellipse id="Oval_11-5" data-name="Oval 11" cx="4" cy="5.5" rx="4" ry="5.5" transform="translate(90 125)" fill="#48d2a0" opacity="0.15"/>
      <g id="Group_23" data-name="Group 23" transform="translate(177.45 25.855) rotate(-120)" opacity="0.364">
        <path id="Line" d="M0,3.473H17.063" transform="translate(0 5.931)" fill="none" stroke="#48d2a0" stroke-linecap="round" stroke-miterlimit="10" stroke-width="7"/>
        <g id="Group_22" data-name="Group 22" transform="translate(12.308 0.957) rotate(90)">
          <path id="Line-2" data-name="Line" d="M0,3.473H17.063" transform="translate(0 0)" fill="none" stroke="#48d2a0" stroke-linecap="round" stroke-miterlimit="10" stroke-width="7"/>
        </g>
      </g>
      <g id="Group_23-2" data-name="Group 23" transform="translate(387.182 465.573) rotate(30)" opacity="0.464">
        <path id="Line-3" data-name="Line" d="M0,3.295H18.965" transform="translate(0 6.884)" fill="none" stroke="#48d2a0" stroke-linecap="round" stroke-miterlimit="10" stroke-width="6"/>
        <g id="Group_22-2" data-name="Group 22" transform="translate(13.131 0.835) rotate(90)">
          <path id="Line-4" data-name="Line" d="M0,3.295H18.965" transform="translate(0 0)" fill="none" stroke="#48d2a0" stroke-linecap="round" stroke-miterlimit="10" stroke-width="6"/>
        </g>
      </g>
      <ellipse id="Oval_11-6" data-name="Oval 11" cx="6.5" cy="9" rx="6.5" ry="9" transform="translate(331 513)" fill="#48d2a0" opacity="0.224"/>
      <ellipse id="Oval_11-7" data-name="Oval 11" cx="4" cy="5.5" rx="4" ry="5.5" transform="translate(303 451)" fill="#48d2a0" opacity="0.135"/>
      <g id="Group_23-3" data-name="Group 23" transform="matrix(0.966, -0.259, 0.259, 0.966, 478.109, 290.827)" opacity="0.391">
        <path id="Line-5" data-name="Line" d="M0,2.216H12.451" transform="translate(0 4.648)" fill="none" stroke="#48d2a0" stroke-linecap="round" stroke-miterlimit="10" stroke-width="6"/>
        <g id="Group_22-3" data-name="Group 22" transform="translate(8.68 0.778) rotate(90)">
          <path id="Line-6" data-name="Line" d="M0,2.216H12.451" transform="translate(0 0)" fill="none" stroke="#48d2a0" stroke-linecap="round" stroke-miterlimit="10" stroke-width="6"/>
        </g>
      </g>
    </g>
    <g id="Earth" transform="translate(419 54)">
      <g id="Path_12_Path_13_Mask" data-name="Path 12 + Path 13 Mask">
        <g id="Path_12_Path_13_Mask-2" data-name="Path 12 + Path 13 Mask" clip-path="url(#clip-path)">
          <ellipse id="Oval_15" data-name="Oval 15" cx="34.49" cy="34.676" rx="34.49" ry="34.676" transform="translate(1.419 6.161)" fill="#fff"/>
          <path id="Path_12" data-name="Path 12" d="M7.75,45.79s6.514-4.984,5.5-7.727S-2.023,30.32.244,24.107s11.376-3.075,14.732-5.542,4.808-7.267,8.116-8.84,3.667,3.828,7.656,1.34S33.529-2.412,36.8,1.178c3.842,0,12.94-6.423,8.792,10.727S26.007,45.79,26.007,45.79Z" transform="translate(33.5 23.835)" fill="#e9f1fb"/>
          <path id="Path_12-2" data-name="Path 12" d="M26.007,45.79H7.75c.065-.05,6.5-5.026,5.5-7.727-.272-.738-1.514-1.633-2.817-2.49l.5-15.913a8.159,8.159,0,0,0,4.037-1.094A17.946,17.946,0,0,0,18.781,14.2c1.3-1.865,2.532-3.626,4.311-4.472a2.69,2.69,0,0,1,1.164-.293,3.438,3.438,0,0,1,2.191,1.12l.034.029a3.631,3.631,0,0,0,2.319,1.15,3.727,3.727,0,0,0,1.948-.666c1.9-1.187,2.629-4.334,3.212-6.863.481-2.089.862-3.738,1.713-3.738.319,0,.687.234,1.125.714a12.327,12.327,0,0,0,2.8-.533A14.818,14.818,0,0,1,43.172,0a3.025,3.025,0,0,1,2.553,1.073C47,2.7,46.959,6.241,45.59,11.905a57.933,57.933,0,0,1-4.81,12.53,95.5,95.5,0,0,1-6.537,10.844A107.584,107.584,0,0,1,26.008,45.79ZM8.3,34.206h0a35.249,35.249,0,0,1-6.164-4.581C.219,27.672-.4,25.868.244,24.107c1.154-3.164,4.124-3.882,6.878-4.168L8.3,34.2Z" transform="translate(31.182 23.835)" fill="none" stroke="#7c8495" stroke-linecap="round" stroke-miterlimit="10" stroke-width="4"/>
          <path id="Path_13" data-name="Path 13" d="M18.156,27.668c5.181,2.386,3.091-9.434,8.358-6.413a13.611,13.611,0,0,1,2.968,2.288,16.415,16.415,0,0,1,1.389,1.621c1.756,2.322,2.771,4.691,4.827,6.062a7.961,7.961,0,0,0,3.778.984,14.506,14.506,0,0,0,3.484-.235c3.367-.654,6.112-2.583,4.283-6.057-3.295-6.258,1.89-7.1,3.593-10.45s3.149-7.093,1.4-12.1S43.947.416,43.947.416L0,19.66S12.975,25.282,18.156,27.668Z" transform="translate(-6.674 -8.741)" fill="#e9f1fb"/>
          <path id="Path_13-2" data-name="Path 13" d="M39.476,32.21h0a7.978,7.978,0,0,1-3.775-.984,12.755,12.755,0,0,1-3.34-3.9c-.461-.706-.937-1.436-1.487-2.164l8.6,7.044Zm3.484-.235h0L29.481,23.543a13.575,13.575,0,0,0-2.968-2.288,3.2,3.2,0,0,0-1.544-.5c-1.477,0-2.1,1.806-2.7,3.552l-.022.064c-.611,1.777-1.243,3.615-2.829,3.615a3.077,3.077,0,0,1-1.265-.32C13.062,25.322.13,19.717,0,19.66L43.947.416A11.042,11.042,0,0,1,46.887,0c1.9,0,4.367.585,5.344,3.37,1.789,5.107.217,8.922-1.4,12.1a9.779,9.779,0,0,1-2.164,2.566,7.678,7.678,0,0,0-2.288,2.973c-.462,1.36-.189,2.92.859,4.91a3.626,3.626,0,0,1,.3,3.349c-.62,1.293-2.248,2.255-4.582,2.708Z" transform="translate(-7.254 -7.284)" fill="none" stroke="#7c8495" stroke-linecap="round" stroke-miterlimit="10" stroke-width="4"/>
        </g>
      </g>
      <path id="Mask" d="M34.5,69a34.662,34.662,0,0,1-8.761-1.122l38-51.705A34.49,34.49,0,0,1,34.5,69ZM18.328,64.984l0,0A34.5,34.5,0,0,1,0,34.5,34.5,34.5,0,0,1,58.5,9.712L18.326,64.981ZM61.192,12.643l-.855-1.006c.3.344.592.682.856,1Z" transform="translate(0 1)" fill="none" stroke="#7c8495" stroke-linecap="round" stroke-miterlimit="10" stroke-width="4"/>
      <path id="Path_13-3" data-name="Path 13" d="M.937,6.251c3.279,2.391,9.407,3.255,6.124-3.559S-2.342,3.86.937,6.251Z" transform="translate(46 11)" fill="#97e5c8" stroke="#7c8495" stroke-miterlimit="10" stroke-width="4"/>
      <path id="Path_13-4" data-name="Path 13" d="M6.106,7.985C9.4,8.287,8.514,4.032,2.5.67s.31,7.012,3.609,7.315" transform="translate(24 56)" fill="#97e5c8" stroke="#7c8495" stroke-miterlimit="10" stroke-width="4"/>
    </g>
    <g id="Phone_Illustration-2" data-name="Phone Illustration" transform="translate(152.5 490) rotate(30)">
      <path id="Path_2" data-name="Path 2" d="M24.1,12.662C7.647,6.161,11.534,36.315,1.4,62.179-3.89,72.8,7.122,59,12.891,60.763s1.95,14.754,7.07,9.459,6.971-9.46,14.656-9.46,4.529,10.172,10.3,9.459S52.956,59.11,58.755,58.112s9.586,12.978,10.411,5.4C70.611,48.9,48.119,26.41,48.119,7.842S34.645,9.029,24.1,12.662Z" transform="matrix(0.966, 0.259, -0.259, 0.966, 25.488, 9.431)" fill="#8adaf8"/>
      <path id="Path_2-2" data-name="Path 2" d="M.239,74.806a.21.21,0,0,1-.192-.1c-.178-.288.147-1.255,1-2.958a93.749,93.749,0,0,0,5.293-12.64l50.945,6.044c-1.085,1.494-2.587,3.327-2.6,3.341-1.77,2.027-3.324,3.061-4.889,3.254a4.542,4.542,0,0,1-.563.036c-2.221,0-3.1-1.817-4.03-3.74l-.086-.177-.13-.267c-1.081-2.2-2.309-4.183-5.421-4.183a8.537,8.537,0,0,0-1.205.091c-6.145.877-7.441,2.086-10.572,5.007l-.015.014c-.983.917-2.1,1.956-3.6,3.22a4.86,4.86,0,0,1-2.459,1.408c-.926,0-.966-1.372-1.016-3.108a14.864,14.864,0,0,0-.456-3.885,3.666,3.666,0,0,0-2.488-2.655,2.633,2.633,0,0,0-.768-.107c-2.555,0-6.471,3.047-9.6,5.7-.892.758-1.729,1.492-2.538,2.2l-.017.015C2.612,73.269.858,74.806.239,74.806Zm76.876-9.032c-.97,0-2.385-1.363-4.023-2.94l-.05-.048c-.3-.284-.6-.577-.909-.869a15.484,15.484,0,0,0-5.119-3.608L56.987,65.57h0q.227-.306.453-.616c2.293-3.121,4.664-6.347,7.537-6.842a3.591,3.591,0,0,1,.609-.051,4.556,4.556,0,0,1,1.43.248l8.627-6.248c2.168,4.6,3.073,8.347,2.766,11.452C78.242,65.034,77.819,65.774,77.116,65.774ZM8.39,52.69v0h0c1.316-4.413,2.462-8.793,3.57-13.03,1.954-7.473,3.8-14.532,6.08-19.558,2.522-5.56,5.345-8.15,8.885-8.15a9.3,9.3,0,0,1,3.393.712c3.5-1.207,7.253-4.133,10.879-6.963C44.953,2.768,48.5,0,50.923,0a2.652,2.652,0,0,1,2.5,1.755,14.879,14.879,0,0,1,.915,6.086c0,9.5,6.617,19.93,13.017,30.012,2.294,3.614,4.461,7.028,6.307,10.365Z" transform="matrix(0.966, 0.259, -0.259, 0.966, 19.481, 7.821)" fill="none" stroke="#7c8495" stroke-linecap="round" stroke-miterlimit="10" stroke-width="4"/>
      <path id="Path_5" data-name="Path 5" d="M14.377,17.551s1.22-6.347-.931-9.516S0,0,0,0" transform="translate(84.119 5.013) rotate(76)" fill="none" stroke="#6e7585" stroke-linecap="round" stroke-linejoin="round" stroke-miterlimit="10" stroke-width="6"/>
      <path id="Rectangle_9" data-name="Rectangle 9" d="M0,54.958V11.46a10,10,0,0,1,8.621-9.9L19.791,0,30.962,1.556a10,10,0,0,1,8.621,9.9V63.349A10,10,0,0,1,30.622,73.3l-10.83,1.131q-1.7,0-3.247-.05c-1.563-.049-3-.129-4.3-.228l-3.689-.539A10,10,0,0,1,0,63.714Z" transform="translate(31.339 0)" fill="#f6f9fc"/>
      <path id="Rectangle_9-2" data-name="Rectangle 9" d="M19.795,74.426c-1.088,0-2.181-.017-3.247-.05L27.068.344a50.092,50.092,0,0,1,8.668,1.5,5.257,5.257,0,0,1,3.849,4.872V68.406a4.864,4.864,0,0,1-3.894,4.646A79.241,79.241,0,0,1,19.795,74.426Zm-7.549-.278h0a65,65,0,0,1-8.355-1.085A4.913,4.913,0,0,1,0,68.408V57.245l0-3.959,12.244,20.86ZM0,52.333v0H0V6.709A5.2,5.2,0,0,1,3.852,1.842,60.235,60.235,0,0,1,19.795,0c1.5,0,2.979.042,4.4.124Z" transform="translate(31.336 0)" fill="none" stroke="#7c8495" stroke-linecap="round" stroke-linejoin="round" stroke-miterlimit="10" stroke-width="4"/>
      <path id="Rectangle_9-3" data-name="Rectangle 9" d="M30.557,54.8H1.583A1.584,1.584,0,0,1,0,53.224V1.581A1.584,1.584,0,0,1,1.583,0H30.557A1.584,1.584,0,0,1,32.14,1.581V53.222A1.584,1.584,0,0,1,30.557,54.8Z" transform="translate(35.061 8.119)" fill="#fff" stroke="#7c8495" stroke-linecap="round" stroke-linejoin="round" stroke-miterlimit="10" stroke-width="4"/>
      <path id="M" d="M11.836.56,9.669,6.731,7.5.56C7.5.544,7.491.528,7.481.5A.667.667,0,0,1,7.453.441a.8.8,0,0,0-.14-.189A.779.779,0,0,0,7.11.1.123.123,0,0,0,7.046.077L7,.056C6.953.037,6.934.032,6.92.027A.428.428,0,0,0,6.843.013c-.054,0-.07-.007-.084-.007H6.682a2.061,2.061,0,0,0-.2.035L6.4.07c-.03.014-.037.019-.056.028a.873.873,0,0,0-.21.154.749.749,0,0,0-.14.2c-.009.019-.044.1-.049.105L3.779,6.731,1.612.56A.842.842,0,0,0,1.184.084.8.8,0,0,0,.553.049a.815.815,0,0,0-.47.428.8.8,0,0,0-.035.631L2.994,9.5c.016.04.03.075.049.112a.883.883,0,0,0,.077.112.7.7,0,0,0,.077.091c.042.037.07.061.1.084a.936.936,0,0,0,.105.063,1.073,1.073,0,0,0,.105.042.334.334,0,0,0,.105.028.756.756,0,0,0,.168.021.58.58,0,0,0,.126-.014.849.849,0,0,0,.133-.028l.1-.042a.859.859,0,0,0,.1-.056A.73.73,0,0,0,4.34,9.83l.084-.084c.033-.049.051-.079.07-.112a1.236,1.236,0,0,0,.063-.126S6.724,3.33,6.724,3.33L8.891,9.5a.959.959,0,0,0,.049.112c.033.054.051.084.07.112a.947.947,0,0,0,.077.091c.044.037.072.061.105.084a.548.548,0,0,0,.1.063c.049.021.077.033.105.042a.352.352,0,0,0,.105.028.822.822,0,0,0,.168.021A.68.68,0,0,0,9.8,10.04a.849.849,0,0,0,.133-.028c.035-.016.065-.028.1-.042a.859.859,0,0,0,.1-.056c.049-.037.077-.061.105-.084a.9.9,0,0,0,.154-.2.566.566,0,0,0,.056-.126l2.952-8.4a.8.8,0,0,0-.035-.631A.825.825,0,0,0,11.836.56Z" transform="translate(57.746 50) rotate(180)" fill="#15b4f1" stroke="#15b4f1" stroke-miterlimit="10" stroke-width="3" opacity="0.5"/>
      <path id="Path_8" data-name="Path 8" d="M0,1.692S.14.266,1.278.028,3.045,1.175,3.045,1.175" transform="translate(44.401 17.592) rotate(7)" fill="none" stroke="#7c8495" stroke-linecap="round" stroke-linejoin="round" stroke-miterlimit="10" stroke-width="4"/>
      <path id="Path_8-2" data-name="Path 8" d="M0,1.692S.14.266,1.278.028,3.045,1.175,3.045,1.175" transform="translate(54.889 17.592) rotate(7)" fill="none" stroke="#7c8495" stroke-linecap="round" stroke-linejoin="round" stroke-miterlimit="10" stroke-width="4"/>
      <path id="Path_5-2" data-name="Path 5" d="M0,24.746s4.988-3.338,4.988-9.166S1.06,0,1.06,0" transform="matrix(-0.848, -0.53, 0.53, -0.848, 17.839, 44.929)" fill="none" stroke="#6e7585" stroke-linecap="round" stroke-linejoin="round" stroke-miterlimit="10" stroke-width="6"/>
      <ellipse id="Oval" cx="3.045" cy="3.045" rx="3.045" ry="3.045" transform="translate(48.255 65.631)" fill="#e1ebf7"/>
      <path id="Path_10" data-name="Path 10" d="M.081,1.257c-.429.935.9,1.655,2.569,1.461s2.9-1.75,2.5-2.446S.51.322.081,1.257Z" transform="matrix(0.848, 0.53, -0.53, 0.848, 46.113, 25.249)" fill="#7c8495"/>
    </g>
    <text id="DİJİTAL_KAYNAKLARIMI" data-name="DİJİTAL KAYNAKLARIMI" transform="translate(305.5 15)" fill="#294859" font-size="14" font-family="SegoeUI, Segoe UI"><tspan x="-76.033" y="0">DİJİTAL KAYNAKLARIMIZ</tspan></text>
  </g>
</svg>
